<svg width="1396" height="631" viewBox="0 0 1396 631" fill="none" xmlns="http://www.w3.org/2000/svg">
<g opacity="0.7">
<path d="M1232.38 506.178C1232.25 506.049 1232.13 505.919 1232.03 505.792L1233.88 505.579C1235.95 508.271 1241.56 510.78 1239.96 513.646C1239.07 515.735 1235.21 516.954 1233.8 519.064C1233.52 519.486 1233.33 519.945 1233.29 520.453C1232.47 521.91 1232.79 523.286 1233.52 524.606L1232.23 524.568C1232.06 524.544 1231.89 524.52 1231.71 524.498C1231.12 522.979 1230.96 521.432 1231.85 519.835C1231.91 519.429 1232.05 519.048 1232.23 518.683C1233.17 516.859 1235.51 515.467 1237.29 513.825C1240.07 511.106 1234.69 508.549 1232.38 506.178Z" fill="black"/>
<path d="M1194.03 505.407C1206.78 504.882 1219.53 506.741 1232.38 506.178C1234.69 508.549 1240.07 511.106 1237.29 513.825C1235.51 515.466 1233.17 516.859 1232.23 518.683C1232.05 519.047 1231.91 519.429 1231.85 519.835C1230.96 521.432 1231.12 522.979 1231.71 524.498C1219.24 522.833 1206.14 523.526 1193.51 522.191C1181.53 520.923 1169.03 518.43 1156.84 519.753C1149.93 520.502 1143.91 523.126 1137.19 524.285C1129.83 525.553 1122.82 524.211 1115.82 522.635C1092.33 517.348 1067.09 518.486 1042.73 517.138C1022.11 515.997 1001.5 514.642 980.834 513.97C957.856 513.223 934.862 512.645 911.901 511.64C892.484 510.788 871.671 510.894 854.691 503.66C841.213 497.917 827.891 500.465 813.056 500.488C804.932 500.502 796.653 500.107 788.79 501.779C781.85 503.256 775.587 506.238 768.05 506.21C767.431 506.208 766.81 506.212 766.187 506.23C765.68 506.22 765.181 506.211 764.681 506.201C765.68 503.253 761.945 501.463 759.811 499.137C759.292 498.618 759.526 497.936 759.495 497.342C769.511 495.069 780.372 494.165 790.707 492.931C803.037 491.457 815.743 490.248 828.227 491.563C836.784 492.464 845.381 493.634 853.588 495.504C862.044 497.43 870.308 499.979 879.271 500.666C912.305 503.2 946.022 502.904 979.228 503.368C991.134 503.535 1003.04 503.761 1014.95 503.841C1026.26 503.916 1037.08 501.798 1048.41 501.626C1061.01 501.432 1073.47 502.887 1086 503.53C1087.77 503.62 1089.54 503.676 1091.32 503.707C1092.21 503.724 1093.1 503.733 1094 503.74C1097.36 503.794 1100.82 503.614 1104.3 503.974C1107.1 504.295 1109.76 504.892 1112.36 505.535C1113.23 505.749 1114.09 505.969 1114.95 506.188C1116.58 506.839 1118.45 506.839 1120.09 507.38C1120.94 507.548 1121.8 507.697 1122.67 507.818C1125.27 508.182 1127.93 508.29 1130.74 507.913C1142.49 506.659 1153.7 505.584 1165.2 506.101C1166.2 506.123 1167.19 506.141 1168.18 506.158C1170.17 506.19 1172.16 506.211 1174.14 506.206C1175.13 506.204 1176.12 506.196 1177.11 506.18C1180.94 506.122 1184.94 505.943 1188.66 505.652C1189.55 505.609 1190.44 505.567 1191.34 505.526C1192.23 505.484 1193.13 505.445 1194.03 505.407Z" fill="#D97595"/>
<path d="M1193.51 522.191C1206.14 523.526 1219.24 522.833 1231.71 524.498C1231.8 524.721 1231.89 524.943 1232 525.166C1232.27 525.744 1232.59 526.318 1232.93 526.889C1234.08 528.87 1237.56 530.481 1237.55 532.094C1237.35 535.586 1233.1 537.568 1228.73 539.549C1228 539.879 1227.27 540.209 1226.56 540.548C1226.12 540.777 1225.68 541.072 1225.35 541.404C1217.72 541.068 1210.11 540.648 1202.51 540.191C1201.64 540.138 1200.75 540.085 1199.88 540.027C1195.1 540.154 1191.62 537.645 1187.35 536.572C1183.61 535.675 1179.6 536.213 1175.86 537.109C1158.93 540.687 1142.22 542.193 1124.71 539.483C1095.66 534.986 1065.07 532.002 1035.44 529.836C1011.57 528.091 987.49 527.676 963.565 526.362C944.19 525.298 924.76 524.444 905.522 522.487C886.305 520.531 868.103 516.781 849.538 513.029C834.788 510.048 819.771 507.092 804.241 506.975C789.56 506.866 777.933 510.196 764.737 513.322C764.566 512.581 764.497 511.658 764.345 510.959C764.346 509.705 764.079 508.631 764.49 507.413C764.558 507.007 764.619 506.606 764.679 506.211C764.68 506.208 764.68 506.205 764.681 506.201C765.181 506.211 765.68 506.22 766.187 506.23C766.81 506.212 767.431 506.208 768.051 506.21C775.587 506.238 781.851 503.256 788.79 501.779C796.653 500.107 804.932 500.502 813.056 500.489C827.891 500.465 841.213 497.917 854.691 503.66C871.671 510.894 892.484 510.788 911.901 511.64C934.862 512.645 957.856 513.223 980.834 513.97C1001.5 514.643 1022.11 515.997 1042.73 517.138C1067.09 518.486 1092.33 517.348 1115.82 522.635C1122.82 524.211 1129.83 525.553 1137.19 524.286C1143.91 523.127 1149.93 520.502 1156.84 519.753C1169.03 518.43 1181.53 520.923 1193.51 522.191Z" fill="#D86B68"/>
<path d="M1225.35 541.404C1225.69 541.072 1226.12 540.777 1226.56 540.548C1227.27 540.209 1228 539.879 1228.73 539.549C1233.1 537.568 1237.35 535.586 1237.55 532.094C1237.56 530.481 1234.08 528.87 1232.93 526.889C1232.59 526.318 1232.27 525.744 1232 525.166C1231.89 524.943 1231.8 524.721 1231.71 524.498C1231.89 524.52 1232.06 524.544 1232.23 524.568L1233.52 524.606C1233.85 525.233 1234.28 525.847 1234.72 526.452C1235.06 526.922 1235.41 527.386 1235.78 527.854C1244.46 532.965 1238.34 536.394 1231.57 539.762C1230.73 540.184 1229.89 540.606 1229.11 541.037C1226.87 541.944 1227.41 543.556 1229.28 544.453C1234.08 546.423 1239.16 547.318 1243.43 549.646C1244.23 550.184 1244.23 550.901 1243.16 551.438C1237.4 554.46 1226.96 552.762 1223.58 557.072L1222.04 556.902C1221.64 556.865 1221.24 556.828 1220.84 556.793C1220.95 556.625 1221.07 556.465 1221.2 556.309C1225.8 552.512 1233.55 553.408 1239.69 551.616C1240.49 551.437 1241.29 551.08 1241.29 550.541C1241.29 549.646 1239.69 549.288 1238.62 548.751C1234.09 546.96 1229.28 546.064 1225.54 543.557C1224.47 542.845 1224.7 542.053 1225.35 541.404Z" fill="black"/>
<path d="M759.493 497.277C759.496 497.299 759.499 497.32 759.495 497.342C758.521 497.562 757.559 497.795 756.606 498.044C756.625 497.698 757.149 497.526 757.675 497.537C758.445 497.426 759.493 497.277 759.493 497.277Z" fill="black"/>
<path d="M756.606 498.044C757.558 497.795 758.521 497.562 759.495 497.342C759.527 497.935 759.293 498.618 759.812 499.137C761.946 501.463 765.681 503.253 764.681 506.201C764.49 506.198 764.3 506.194 764.109 506.191C763.425 506.178 762.741 506.166 762.064 506.153C762.071 506.112 762.077 506.073 762.084 506.032C762.482 503.794 760.611 502.181 758.603 500.785C758.143 500.389 757.711 499.978 757.351 499.529C757.004 499.082 756.736 498.6 756.603 498.063C756.604 498.056 756.605 498.05 756.606 498.044Z" fill="black"/>
<path d="M804.241 506.975C819.772 507.091 834.789 510.048 849.539 513.029C868.103 516.78 886.305 520.531 905.523 522.487C924.76 524.444 944.191 525.298 963.566 526.362C987.491 527.675 1011.57 528.09 1035.44 529.836C1065.07 532.002 1095.66 534.986 1124.71 539.483C1142.22 542.193 1158.93 540.687 1175.86 537.109C1179.6 536.213 1183.61 535.675 1187.35 536.572C1191.62 537.645 1195.1 540.154 1199.88 540.027C1200.76 540.085 1201.64 540.138 1202.51 540.191C1210.11 540.648 1217.72 541.068 1225.35 541.404C1224.7 542.053 1224.48 542.844 1225.54 543.556C1229.28 546.063 1234.09 546.96 1238.62 548.751C1239.69 549.288 1241.29 549.645 1241.29 550.541C1241.29 551.08 1240.49 551.437 1239.69 551.616C1233.55 553.407 1225.8 552.512 1221.2 556.309C1221.07 556.464 1220.95 556.624 1220.84 556.792C1220.39 556.753 1219.93 556.713 1219.47 556.673C1218.62 556.6 1217.77 556.531 1216.95 556.468C1209.71 555.956 1202.52 555.434 1195.33 554.892C1194.43 554.824 1193.53 554.756 1192.63 554.687C1189.79 554.814 1187.09 554.089 1184.41 553.43C1183.88 553.298 1183.34 553.169 1182.81 553.048C1182.08 552.847 1181.33 552.623 1180.57 552.391C1179.82 552.159 1179.06 551.915 1178.33 551.674C1173.46 549.108 1168.66 550.362 1164.38 553.048C1162.78 553.944 1158.51 554.662 1155.39 555.292C1154.37 555.544 1153.37 555.768 1152.38 555.965C1149.58 556.525 1146.74 556.864 1143.89 557.02C1142.93 557.074 1141.99 557.106 1141.03 557.12C1140.16 557.234 1139.18 557.201 1138.21 557.139C1137.22 557.077 1136.23 556.986 1135.32 556.984C1132.61 556.811 1129.93 556.632 1127.21 556.136C1126.34 556.009 1125.47 555.872 1124.6 555.726C1116.82 554.411 1109.2 552.346 1102.11 550.296C1101.23 550.087 1100.36 549.87 1099.49 549.646C1097.62 549.108 1095.49 549.825 1093.62 550.187C1093.04 550.213 1092.46 550.199 1091.9 550.151C1089.07 549.915 1086.36 548.87 1083.47 548.571C1062.43 545.818 1040.97 543.59 1019.65 542.113C994.092 540.342 968.534 538.5 942.978 536.69C920.518 535.099 897.976 532.828 876.192 528.766C867.301 527.109 858.495 525.262 849.572 523.681C824.758 519.279 795.668 512.927 770.299 518.787C769.572 517.274 767.991 515.817 765.416 514.541C765.067 514.383 764.87 513.91 764.738 513.321C777.934 510.195 789.56 506.866 804.241 506.975Z" fill="#EEDDA1"/>
<path d="M764.681 506.201C764.681 506.205 764.681 506.208 764.68 506.211C764.62 506.606 764.559 507.006 764.49 507.413C764.08 508.63 764.347 509.705 764.346 510.959C764.498 511.658 764.567 512.581 764.738 513.322C763.632 513.585 762.512 513.847 761.373 514.105L761.334 514.102C761.145 512.917 761.148 511.69 761.362 510.385C761.474 509.644 761.597 508.917 761.716 508.214C761.836 507.501 761.952 506.813 762.064 506.153C762.741 506.166 763.425 506.178 764.109 506.191C764.3 506.194 764.49 506.198 764.681 506.201Z" fill="black"/>
<path d="M761.373 514.105C762.512 513.847 763.631 513.585 764.738 513.322C764.869 513.91 765.066 514.383 765.416 514.541C767.991 515.817 769.572 517.275 770.299 518.787C768.295 519.249 766.317 519.789 764.364 520.411L763.937 520.4C762.61 518.297 761.666 516.271 761.333 514.102L761.373 514.105Z" fill="black"/>
<path d="M770.3 518.787C795.668 512.927 824.758 519.279 849.573 523.682C858.496 525.263 867.301 527.109 876.192 528.766C897.976 532.828 920.519 535.1 942.978 536.69C968.535 538.5 994.092 540.343 1019.65 542.113C1040.97 543.59 1062.43 545.818 1083.47 548.571C1086.36 548.87 1089.07 549.916 1091.9 550.151C1092.46 550.199 1093.04 550.214 1093.62 550.188C1095.49 549.826 1097.62 549.108 1099.49 549.646C1100.36 549.871 1101.23 550.088 1102.11 550.296C1109.2 552.346 1116.82 554.412 1124.6 555.726C1125.47 555.873 1126.34 556.009 1127.21 556.137C1129.93 556.632 1132.61 556.812 1135.32 556.984C1136.23 556.987 1137.22 557.077 1138.21 557.14C1139.19 557.202 1140.16 557.234 1141.03 557.12C1141.99 557.107 1142.93 557.074 1143.89 557.021C1146.74 556.864 1149.58 556.525 1152.38 555.965C1153.37 555.768 1154.37 555.545 1155.39 555.293C1158.51 554.662 1162.78 553.945 1164.38 553.048C1168.66 550.362 1173.46 549.109 1178.33 551.674C1179.06 551.916 1179.82 552.159 1180.57 552.391C1181.33 552.624 1182.08 552.847 1182.81 553.049C1183.34 553.169 1183.88 553.299 1184.41 553.431C1187.09 554.089 1189.79 554.814 1192.63 554.688C1193.53 554.757 1194.43 554.824 1195.33 554.893C1202.52 555.434 1209.71 555.956 1216.95 556.468C1217.78 556.531 1218.62 556.6 1219.47 556.673C1219.93 556.713 1220.39 556.753 1220.84 556.793C1220.65 557.103 1220.51 557.435 1220.41 557.793C1220.32 558.285 1220.23 558.776 1220.15 559.269C1219.44 563.443 1218.74 567.597 1218.06 571.621C1218.05 571.686 1218.04 571.752 1218.03 571.817C1217.75 571.791 1217.42 571.762 1217.05 571.731C1216.3 571.663 1215.37 571.581 1214.27 571.488C1213.57 571.4 1212.87 571.357 1212.18 571.346C1211.15 571.544 1210.13 571.711 1209.11 571.852C1208.09 571.992 1207.07 572.104 1206.06 572.193C1205.03 572.239 1204.02 572.256 1203.01 572.249C1202 572.242 1200.99 572.21 1199.99 572.157C1198.5 572.037 1197.01 571.868 1195.53 571.673C1194.79 571.576 1194.05 571.473 1193.31 571.365C1192.57 571.258 1191.83 571.146 1191.09 571.033C1190.35 570.922 1189.61 570.807 1188.87 570.695C1186.65 570.36 1184.43 570.041 1182.19 569.811C1181.2 569.657 1180.21 569.501 1179.24 569.351C1177.28 569.053 1175.32 568.784 1173.35 568.575C1172.37 568.47 1171.39 568.381 1170.41 568.311C1165.37 567.651 1161.06 568.804 1156.66 570.662C1156.04 570.927 1155.4 571.207 1154.77 571.499C1152.9 572.215 1151.03 573.109 1148.89 573.109C1145.83 573.109 1142.95 572.931 1140.09 572.685C1139.36 572.623 1138.65 572.558 1137.93 572.491C1133.94 571.856 1129.67 572.214 1125.87 571.073C1124.99 570.876 1124.13 570.662 1123.29 570.431C1117.34 568.824 1111.88 566.307 1105.88 564.642C1105.06 564.408 1104.24 564.176 1103.44 563.947C1102.62 563.717 1101.82 563.493 1101.02 563.275C1100.07 563.054 1099.12 562.843 1098.16 562.636C1078.08 558.318 1056.52 557.061 1035.75 555.664C1035.04 555.601 1034.32 555.538 1033.61 555.474C984.877 551.156 933.363 546.59 888.22 542.59C887.219 542.501 886.218 542.413 885.224 542.325C883.639 542.177 882.011 542.087 880.361 542.014C879.543 541.978 878.71 541.946 877.891 541.912C872.24 541.229 863.156 541.228 860.931 537.101C860.828 536.616 860.724 536.101 860.506 535.631C860.289 535.161 859.952 534.735 859.417 534.422C849.005 527.796 834.053 530.661 820.965 532.093C816.428 532.632 812.149 531.556 808.194 530.441C807.546 530.335 806.89 530.273 806.228 530.248C801.546 530.078 796.153 531.776 791.552 532.689C790.735 532.838 789.956 532.957 789.175 533.052C788.435 533.134 787.693 533.193 786.949 533.221C786.332 533.284 785.621 533.27 784.933 533.129C784.244 532.988 783.577 532.72 783.045 532.273C782.508 531.824 782.224 531.276 782.044 530.7C781.865 530.123 781.795 529.519 781.679 528.959C781.562 528.399 781.42 527.873 781.172 527.429C780.771 526.716 779.836 526.315 778.771 526.137C777.706 525.958 776.505 526.004 775.564 526.183C774.854 526.362 774.135 526.516 773.413 526.65C772.685 526.783 771.953 526.897 771.218 526.993C769.693 527.078 768.356 527.257 766.779 527.416C766.505 527.434 766.239 527.451 765.966 527.466C766.17 527.236 766.38 527.003 766.598 526.769C770.131 524.432 771.619 521.521 770.3 518.787Z" fill="#E7EB8A"/>
<path d="M764.365 520.411C766.317 519.788 768.295 519.249 770.3 518.787C771.619 521.521 770.131 524.432 766.596 526.769C766.378 527.003 766.167 527.236 765.963 527.467C765.963 527.468 765.963 527.468 765.963 527.468C765.49 527.496 765.017 527.522 764.544 527.546C763.879 527.582 763.213 527.615 762.548 527.647C763.824 525.993 766.218 523.851 765.42 522.601C764.887 521.852 764.384 521.121 763.938 520.4L764.365 520.411Z" fill="black"/>
<path d="M1220.84 556.793C1221.24 556.828 1221.64 556.865 1222.04 556.902L1223.58 557.072C1223.35 557.36 1223.16 557.674 1223.01 558.02C1222.92 558.513 1222.83 559.006 1222.75 559.5C1222.05 563.624 1221.36 567.728 1220.69 571.705C1220.67 571.812 1220.65 571.921 1220.63 572.028L1219.33 571.932C1219.33 571.932 1218.89 571.892 1218.03 571.817C1218.04 571.752 1218.05 571.686 1218.06 571.622C1218.74 567.597 1219.44 563.443 1220.15 559.269C1220.23 558.776 1220.31 558.285 1220.41 557.794C1220.5 557.436 1220.65 557.103 1220.84 556.793Z" fill="black"/>
<path d="M775.561 526.183C776.502 526.004 777.704 525.958 778.769 526.137C779.834 526.315 780.769 526.716 781.17 527.429C781.418 527.873 781.56 528.399 781.676 528.959C781.793 529.519 781.862 530.123 782.042 530.7C782.222 531.276 782.505 531.824 783.043 532.273C783.574 532.72 784.241 532.988 784.93 533.129C785.619 533.27 786.329 533.284 786.947 533.221C787.69 533.192 788.433 533.134 789.172 533.052C789.954 532.956 790.732 532.838 791.549 532.689C796.15 531.776 801.544 530.078 806.226 530.248C806.888 530.273 807.544 530.335 808.192 530.441C812.147 531.556 816.425 532.631 820.963 532.093C834.05 530.661 849.003 527.796 859.415 534.422C859.949 534.735 860.286 535.161 860.504 535.631C860.721 536.101 860.825 536.616 860.928 537.101C863.153 541.228 872.238 541.229 877.889 541.911C878.708 541.946 879.54 541.978 880.359 542.014C882.009 542.087 883.636 542.177 885.221 542.324C886.216 542.413 887.217 542.5 888.218 542.589C933.361 546.59 984.874 551.156 1033.61 555.474C1034.32 555.537 1035.04 555.601 1035.75 555.664C1056.51 557.061 1078.08 558.318 1098.16 562.636C1099.11 562.843 1100.07 563.054 1101.01 563.275C1101.81 563.492 1102.62 563.717 1103.43 563.947C1104.24 564.176 1105.06 564.408 1105.88 564.642C1111.87 566.307 1117.34 568.824 1123.28 570.431C1124.13 570.662 1124.99 570.876 1125.87 571.073C1129.67 572.214 1133.94 571.856 1137.93 572.491C1138.65 572.558 1139.36 572.623 1140.08 572.685C1142.95 572.931 1145.82 573.109 1148.89 573.109C1151.03 573.109 1152.9 572.215 1154.77 571.499C1155.4 571.207 1156.04 570.927 1156.66 570.662C1161.06 568.804 1165.37 567.651 1170.41 568.311C1171.39 568.381 1172.37 568.47 1173.35 568.575C1175.31 568.784 1177.27 569.053 1179.23 569.351C1180.21 569.501 1181.2 569.657 1182.19 569.81C1184.42 570.041 1186.64 570.359 1188.86 570.695C1189.61 570.807 1190.35 570.922 1191.09 571.033C1191.83 571.146 1192.57 571.258 1193.31 571.364C1194.05 571.473 1194.79 571.576 1195.53 571.673C1197.01 571.868 1198.49 572.037 1199.98 572.157C1200.99 572.209 1202 572.242 1203.01 572.249C1204.02 572.255 1205.03 572.239 1206.05 572.192C1207.07 572.104 1208.09 571.992 1209.11 571.852C1210.13 571.711 1211.15 571.544 1212.17 571.346C1212.87 571.357 1213.56 571.4 1214.27 571.488C1215.37 571.581 1216.3 571.663 1217.04 571.731C1217.42 571.762 1217.75 571.791 1218.03 571.816C1217.95 572.254 1217.88 572.69 1217.81 573.125C1218.73 577.501 1224.57 579.967 1227.98 583.515C1228.47 584.022 1228.9 584.551 1229.27 585.11C1229.17 585.879 1228.6 586.396 1227.81 586.794C1226.93 587.227 1225.8 587.515 1224.73 587.831C1224.05 588.031 1223.4 588.245 1222.87 588.514C1222.33 588.693 1222.06 589.051 1222.33 589.408C1222.55 589.917 1222.99 590.344 1223.6 590.72C1224.15 591.073 1224.81 591.342 1225.51 591.564C1214.26 590.973 1205.36 589.872 1194.93 586.743C1184.06 583.481 1172.68 585.576 1161.45 586.522C1150.01 587.487 1138.9 586.093 1127.95 583.878C1090.78 576.359 1053.34 572.114 1015.04 568.098C982.235 564.657 949.565 560.631 916.736 557.273C900.893 555.653 885.7 552.17 869.929 550.512C862.992 549.784 855.919 549.905 848.998 549.128C834.015 547.447 823.613 539.746 807.597 540.976C798.874 541.647 790.104 542.244 781.316 541.898C773.89 541.607 766.703 540.373 759.376 539.653C759.393 539.59 759.404 539.526 759.421 539.462C759.512 535.413 762.088 531.882 765.057 528.481C765.352 528.144 765.653 527.807 765.961 527.468C765.961 527.468 765.961 527.468 765.961 527.466C766.234 527.451 766.501 527.434 766.775 527.416C768.352 527.257 769.688 527.078 771.214 526.993C771.949 526.897 772.681 526.783 773.409 526.65C774.133 526.516 774.852 526.362 775.561 526.183Z" fill="#B9D17D"/>
<path d="M764.544 527.546C765.016 527.522 765.489 527.496 765.962 527.468C765.654 527.807 765.354 528.144 765.059 528.481C762.089 531.882 759.513 535.413 759.423 539.462C759.405 539.526 759.394 539.59 759.377 539.653C758.43 539.56 757.481 539.474 756.523 539.401C756.582 539.096 756.64 538.788 756.706 538.475C756.977 535.158 759.062 532.305 761.234 529.407C761.669 528.827 762.11 528.246 762.539 527.659C762.54 527.654 762.547 527.652 762.548 527.647C763.213 527.614 763.878 527.582 764.544 527.546Z" fill="black"/>
<path d="M807.599 540.976C823.615 539.745 834.017 547.447 849 549.128C855.921 549.905 862.994 549.784 869.93 550.512C885.702 552.17 900.895 555.653 916.738 557.273C949.567 560.631 982.237 564.657 1015.04 568.098C1053.34 572.114 1090.78 576.359 1127.95 583.878C1138.9 586.093 1150.01 587.487 1161.45 586.522C1172.68 585.576 1184.07 583.481 1194.93 586.743C1205.36 589.872 1214.26 590.973 1225.51 591.564C1227.25 592.113 1229.28 592.368 1230.89 592.871C1232.16 593.267 1233.17 593.817 1233.55 594.782C1234.66 597.39 1232.76 598.882 1229.75 599.994C1225.52 601.554 1219.09 602.363 1215.66 604.455C1214.32 605.171 1212.72 605.707 1212.33 606.923C1212.11 607.501 1211.98 607.94 1211.89 608.224C1211.75 608.205 1211.58 608.183 1211.4 608.159C1209.58 607.739 1207.71 607.427 1205.81 607.162C1204.86 607.029 1203.9 606.908 1202.95 606.792C1192.68 606.101 1178.5 597.719 1168.44 600.391C1162.21 602.047 1155.92 603.634 1148.94 603.356C1142.71 603.108 1136.73 603.587 1130.65 602.881C1119.74 601.612 1108.01 601.198 1097.67 598.317C1090.51 596.321 1084.01 593.528 1076.42 592.095C1065.77 590.087 1054.79 587.436 1043.96 585.905C1042.84 585.747 1041.76 585.601 1040.68 585.457C1025.11 583.386 1009.54 581.332 993.96 579.257C966.558 575.604 939.119 572.053 911.747 568.302C894.75 565.971 877.889 564.474 860.779 562.692C857.084 562.306 853.698 561.614 851.33 559.576C849.361 557.875 848.974 555.717 846.266 554.329C839.333 550.772 829.301 554.857 822.013 555.861C815.015 556.825 808.213 556.236 801.54 554.613C795.406 553.121 789.773 550.656 783.032 550.646C773.884 550.632 765.097 549.138 756.28 547.676C757.897 547.472 758.37 546.396 758.499 545.083C758.557 544.544 758.556 543.966 758.561 543.388C758.685 542.737 758.82 542.09 758.962 541.444C759.096 540.848 759.236 540.255 759.377 539.653C766.704 540.373 773.891 541.608 781.317 541.899C790.106 542.244 798.876 541.647 807.599 540.976Z" fill="#6288B1"/>
<path d="M1217.81 573.124C1217.88 572.69 1217.95 572.254 1218.03 571.816C1218.89 571.892 1219.33 571.932 1219.33 571.932L1220.63 572.027C1220.55 572.487 1220.48 572.947 1220.4 573.402C1220.45 577.692 1226.19 580.284 1229.41 583.625C1229.87 584.103 1230.28 584.595 1230.61 585.111C1230.61 585.469 1230.88 586.006 1230.61 586.006C1229.78 586.283 1229.07 586.583 1228.47 586.904L1227.81 586.794C1228.6 586.396 1229.18 585.879 1229.27 585.11C1228.91 584.551 1228.47 584.022 1227.99 583.515C1224.57 579.967 1218.73 577.5 1217.81 573.124Z" fill="black"/>
<path d="M756.28 547.676C755.916 547.724 755.493 547.725 755 547.676C755.402 546.198 755.502 544.821 755.735 543.364C755.811 542.877 755.908 542.381 756.034 541.869C756.134 541.318 756.246 540.77 756.352 540.222C756.405 539.949 756.464 539.676 756.524 539.401C757.481 539.474 758.43 539.56 759.377 539.653C759.236 540.254 759.096 540.848 758.962 541.444C758.82 542.09 758.684 542.737 758.561 543.387C758.556 543.965 758.557 544.544 758.499 545.083C758.37 546.396 757.898 547.472 756.28 547.676Z" fill="black"/>
<path d="M1225.51 591.564C1224.81 591.342 1224.15 591.073 1223.6 590.72C1222.99 590.344 1222.56 589.917 1222.33 589.408C1222.06 589.051 1222.33 588.693 1222.87 588.514C1223.4 588.245 1224.05 588.031 1224.73 587.831C1225.8 587.516 1226.94 587.227 1227.81 586.794L1228.47 586.904C1227.77 587.271 1227.22 587.667 1226.8 588.089C1226.41 588.485 1226.14 588.902 1226.1 589.343C1226.8 591.091 1228.78 591.961 1231.04 592.662L1230.89 592.872C1229.28 592.369 1227.25 592.113 1225.51 591.564Z" fill="black"/>
<path d="M1230.89 592.872L1231.04 592.662C1233.05 593.279 1235.27 593.764 1237.02 594.604C1238.62 595.499 1236.76 596.932 1235.95 597.649C1234.43 598.711 1232.64 599.51 1230.73 600.193L1229.75 599.994C1232.76 598.882 1234.66 597.391 1233.55 594.782C1233.17 593.817 1232.16 593.267 1230.89 592.872Z" fill="black"/>
<path d="M1211.89 608.224C1211.98 607.94 1212.11 607.502 1212.33 606.923C1212.72 605.707 1214.32 605.172 1215.66 604.455C1219.09 602.363 1225.52 601.554 1229.75 599.994L1230.73 600.193C1224.92 602.275 1218.05 603.272 1214.75 607.307C1214.48 608.405 1214.38 609 1214.38 609L1211.81 608.613C1211.81 608.613 1211.83 608.481 1211.89 608.224Z" fill="black"/>
<path d="M755.08 547.478C755.478 547.544 755.882 547.61 756.28 547.676C765.098 549.137 773.884 550.632 783.032 550.646C789.773 550.655 795.406 553.121 801.541 554.613C808.214 556.235 815.015 556.825 822.013 555.86C829.301 554.857 839.333 550.772 846.267 554.328C848.975 555.716 849.362 557.875 851.331 559.576C853.698 561.613 857.084 562.305 860.78 562.691C877.889 564.474 894.75 565.971 911.747 568.301C939.119 572.053 966.558 575.603 993.961 579.257C1009.54 581.332 1025.11 583.386 1040.69 585.457C1041.76 585.601 1042.84 585.746 1043.96 585.905C1054.79 587.435 1065.77 590.086 1076.42 592.095C1084.01 593.527 1090.51 596.321 1097.67 598.316C1108.01 601.198 1119.74 601.612 1130.65 602.88C1136.73 603.586 1142.71 603.107 1148.94 603.355C1155.92 603.634 1162.21 602.046 1168.44 600.39C1178.5 597.719 1192.68 606.101 1202.95 606.792C1203.9 606.908 1204.86 607.029 1205.81 607.162C1207.71 607.427 1209.58 607.739 1211.4 608.158C1211.58 608.183 1211.75 608.205 1211.9 608.223C1212.73 608.336 1213.17 608.393 1213.17 608.393" stroke="black" stroke-width="4" stroke-miterlimit="10"/>
<path d="M756.489 498.074C756.53 498.064 756.565 498.054 756.606 498.044C757.559 497.795 758.521 497.563 759.496 497.342C769.512 495.069 780.373 494.166 790.708 492.931C803.037 491.458 815.744 490.248 828.228 491.564C836.785 492.465 845.381 493.635 853.589 495.504C862.045 497.43 870.309 499.98 879.272 500.667C912.306 503.2 946.023 502.905 979.229 503.368C991.135 503.536 1003.04 503.762 1014.95 503.842C1026.26 503.917 1037.08 501.799 1048.41 501.626C1061.01 501.432 1073.47 502.887 1086 503.531C1087.77 503.62 1089.55 503.676 1091.32 503.708C1092.21 503.725 1093.1 503.734 1094 503.741C1097.36 503.795 1100.82 503.615 1104.3 503.974C1107.1 504.295 1109.76 504.893 1112.36 505.535C1113.23 505.75 1114.09 505.969 1114.95 506.188C1116.58 506.84 1118.45 506.839 1120.09 507.381C1120.94 507.549 1121.8 507.697 1122.67 507.818C1125.27 508.182 1127.93 508.29 1130.74 507.914C1142.49 506.66 1153.7 505.584 1165.2 506.101C1166.2 506.123 1167.19 506.142 1168.18 506.158C1170.17 506.191 1172.16 506.212 1174.14 506.207C1175.13 506.204 1176.12 506.197 1177.11 506.18C1180.94 506.122 1184.94 505.943 1188.66 505.652C1189.55 505.609 1190.44 505.567 1191.34 505.526C1192.23 505.485 1193.13 505.445 1194.03 505.407C1206.78 504.882 1219.53 506.742 1232.38 506.178C1232.71 506.164 1233.05 506.149 1233.38 506.131" stroke="black" stroke-width="4" stroke-miterlimit="10"/>
<path d="M764.365 520.411C766.317 519.788 768.295 519.249 770.3 518.787C795.668 512.927 824.758 519.279 849.573 523.682C858.496 525.263 867.301 527.109 876.192 528.766C897.976 532.828 920.519 535.1 942.978 536.69C968.535 538.5 994.092 540.343 1019.65 542.113C1040.97 543.59 1062.43 545.818 1083.47 548.571C1086.36 548.87 1089.07 549.916 1091.9 550.151C1092.46 550.199 1093.04 550.214 1093.62 550.188C1095.49 549.826 1097.62 549.108 1099.49 549.646C1100.36 549.871 1101.23 550.088 1102.11 550.296C1109.2 552.346 1116.82 554.412 1124.6 555.726C1125.47 555.872 1126.34 556.009 1127.21 556.136C1129.93 556.632 1132.61 556.812 1135.32 556.984C1136.23 556.987 1137.22 557.077 1138.21 557.139C1139.19 557.201 1140.16 557.234 1141.03 557.12C1141.99 557.107 1142.93 557.074 1143.89 557.021C1146.74 556.864 1149.58 556.525 1152.38 555.965C1153.37 555.768 1154.37 555.545 1155.39 555.293C1158.51 554.662 1162.78 553.945 1164.38 553.048C1168.66 550.362 1173.46 549.108 1178.33 551.674C1179.06 551.916 1179.82 552.159 1180.57 552.391C1181.33 552.624 1182.08 552.847 1182.81 553.049C1183.34 553.169 1183.88 553.299 1184.41 553.43C1187.09 554.089 1189.79 554.814 1192.63 554.688C1193.53 554.757 1194.43 554.824 1195.33 554.893C1202.52 555.434 1209.71 555.956 1216.95 556.468C1217.78 556.531 1218.62 556.6 1219.47 556.673C1219.93 556.713 1220.39 556.753 1220.84 556.793C1221.24 556.828 1221.64 556.865 1222.04 556.902" stroke="black" stroke-width="4" stroke-miterlimit="10"/>
<path d="M762.329 527.658C762.402 527.654 762.475 527.651 762.548 527.647C763.214 527.614 763.879 527.582 764.545 527.546C765.017 527.521 765.49 527.496 765.963 527.468C765.963 527.468 765.963 527.468 765.963 527.466C766.236 527.451 766.503 527.434 766.777 527.416C768.354 527.257 769.691 527.077 771.216 526.993C771.951 526.897 772.683 526.783 773.411 526.65C774.133 526.516 774.852 526.362 775.562 526.183C776.503 526.004 777.704 525.958 778.769 526.137C779.835 526.315 780.769 526.716 781.17 527.429C781.418 527.873 781.56 528.399 781.677 528.959C781.793 529.519 781.862 530.123 782.042 530.7C782.222 531.276 782.505 531.824 783.043 532.273C783.574 532.72 784.242 532.988 784.93 533.129C785.619 533.27 786.329 533.284 786.947 533.221C787.691 533.192 788.433 533.134 789.173 533.052C789.954 532.956 790.733 532.838 791.55 532.689C796.151 531.776 801.544 530.078 806.226 530.248C806.888 530.273 807.544 530.335 808.192 530.441C812.147 531.556 816.425 532.631 820.963 532.093C834.05 530.661 849.003 527.796 859.415 534.422C859.95 534.735 860.287 535.161 860.504 535.631C860.722 536.101 860.826 536.616 860.929 537.101C863.154 541.228 872.238 541.229 877.889 541.911C878.708 541.946 879.541 541.978 880.359 542.014C882.009 542.087 883.637 542.177 885.221 542.324C886.216 542.413 887.217 542.5 888.218 542.589C933.362 546.59 984.875 551.156 1033.61 555.474C1034.32 555.537 1035.04 555.601 1035.75 555.664C1056.52 557.061 1078.08 558.318 1098.16 562.636C1099.11 562.843 1100.07 563.054 1101.01 563.275C1101.81 563.492 1102.62 563.717 1103.43 563.947C1104.24 564.176 1105.06 564.408 1105.88 564.642C1111.88 566.307 1117.34 568.824 1123.28 570.431C1124.13 570.662 1124.99 570.876 1125.87 571.073C1129.67 572.214 1133.94 571.856 1137.93 572.491C1138.65 572.558 1139.36 572.623 1140.08 572.685C1142.95 572.931 1145.82 573.109 1148.89 573.109C1151.03 573.109 1152.9 572.215 1154.77 571.499C1155.4 571.207 1156.04 570.927 1156.66 570.662C1161.06 568.804 1165.37 567.651 1170.41 568.311C1171.39 568.381 1172.37 568.47 1173.35 568.575C1175.31 568.784 1177.27 569.053 1179.24 569.351C1180.21 569.501 1181.2 569.657 1182.19 569.81C1184.42 570.041 1186.65 570.359 1188.86 570.695C1189.61 570.807 1190.35 570.922 1191.09 571.033C1191.83 571.146 1192.57 571.258 1193.31 571.364C1194.05 571.473 1194.79 571.576 1195.53 571.673C1197.01 571.868 1198.49 572.037 1199.98 572.157C1200.99 572.209 1202 572.242 1203.01 572.249C1204.02 572.255 1205.03 572.239 1206.05 572.192C1207.07 572.104 1208.09 571.992 1209.11 571.852C1210.13 571.711 1211.15 571.544 1212.18 571.346C1212.87 571.357 1213.56 571.4 1214.27 571.488C1215.37 571.581 1216.3 571.663 1217.04 571.731C1217.42 571.762 1217.75 571.791 1218.03 571.816C1218.88 571.892 1219.33 571.932 1219.33 571.932" stroke="black" stroke-width="4" stroke-miterlimit="10"/>
<path d="M756.517 539.401L756.523 539.401C757.481 539.474 758.43 539.56 759.377 539.653C766.704 540.373 773.891 541.608 781.317 541.898C790.106 542.244 798.876 541.647 807.599 540.977C823.614 539.746 834.017 547.447 848.999 549.128C855.921 549.905 862.994 549.784 869.93 550.513C885.702 552.17 900.894 555.653 916.738 557.273C949.567 560.631 982.237 564.657 1015.04 568.098C1053.34 572.115 1090.78 576.359 1127.95 583.878C1138.9 586.093 1150.01 587.487 1161.45 586.522C1172.68 585.576 1184.07 583.481 1194.93 586.743C1205.36 589.872 1214.26 590.973 1225.51 591.564C1225.9 591.586 1226.3 591.605 1226.69 591.625" stroke="black" stroke-width="4" stroke-miterlimit="10"/>
<path d="M761.373 514.105C762.512 513.847 763.632 513.585 764.738 513.322C777.934 510.196 789.56 506.866 804.241 506.975C819.772 507.091 834.789 510.048 849.539 513.029C868.103 516.78 886.305 520.531 905.523 522.487C924.76 524.444 944.191 525.298 963.566 526.362C987.491 527.675 1011.57 528.09 1035.44 529.836C1065.07 532.002 1095.66 534.986 1124.71 539.483C1142.22 542.193 1158.93 540.687 1175.86 537.109C1179.6 536.213 1183.61 535.675 1187.35 536.572C1191.62 537.645 1195.1 540.154 1199.88 540.027C1200.76 540.085 1201.64 540.138 1202.51 540.191C1210.11 540.648 1217.72 541.068 1225.35 541.404" stroke="black" stroke-width="4" stroke-miterlimit="10"/>
<path d="M762.064 506.153C762.741 506.166 763.425 506.178 764.109 506.191C764.3 506.194 764.49 506.199 764.681 506.201C765.181 506.211 765.681 506.22 766.187 506.23C766.811 506.212 767.431 506.208 768.051 506.21C775.588 506.238 781.851 503.256 788.791 501.779C796.654 500.107 804.933 500.502 813.057 500.489C827.892 500.465 841.214 497.917 854.692 503.66C871.671 510.894 892.485 510.788 911.902 511.64C934.863 512.645 957.856 513.223 980.835 513.97C1001.5 514.643 1022.11 515.997 1042.73 517.138C1067.09 518.486 1092.34 517.348 1115.82 522.635C1122.82 524.211 1129.83 525.553 1137.19 524.286C1143.91 523.127 1149.93 520.502 1156.84 519.753C1169.03 518.43 1181.53 520.923 1193.51 522.191C1206.14 523.526 1219.24 522.833 1231.71 524.498C1231.89 524.52 1232.06 524.544 1232.24 524.568" stroke="black" stroke-width="4" stroke-miterlimit="10"/>
</g>
<g opacity="0.7">
<path d="M675.713 552.139C675.954 558.097 676.219 564.053 675.706 570.069C675.386 572.119 675.148 573.252 675.148 573.252C663.759 576.59 652.841 567.982 642.603 564.294C638.51 563.064 633.734 561.837 629.811 561.099C627.8 560.744 625.792 560.438 623.781 560.178C609.705 558.348 595.387 558.602 581.324 559.181C578.603 558.807 575.866 558.416 573.124 558.006C545.698 553.923 517.708 548.451 496.94 542.129C494.865 541.498 492.86 540.859 490.941 540.213C475.41 534.169 459.031 528.021 442.146 524.177C439.693 523.672 437.169 523.177 434.574 522.687C416.442 519.275 395.028 516.285 373.499 513.745C371.906 513.555 370.309 513.369 368.716 513.188C366.905 512.652 364.857 512.037 363.492 512.652C338.243 526.791 315.722 513.265 291.927 506.676C289.746 506.229 287.562 505.782 285.374 505.323C277.507 504.044 269.317 504.659 261.128 505.274C261.243 503.94 261.433 502.627 261.668 501.326C262.493 496.666 263.176 492.363 262.493 487.445C262.045 485.762 261.647 484.088 261.291 482.42L261.359 482.408C272.731 483.139 283.649 482.524 294.909 484.305C312.108 487.023 324.859 500.482 343.518 496.409C352.058 494.545 359.001 490.891 368.064 491.448C369.755 491.552 371.464 491.717 373.193 491.956C374.62 492.121 376.057 492.293 377.493 492.464C398.333 494.983 418.877 497.917 436.249 501.25C438.739 501.727 441.164 502.214 443.552 502.728C448.114 504.044 452.89 504.659 457.666 506.504C473.362 513.265 489.059 520.028 505.779 522.92C508.193 523.55 510.687 524.193 513.238 524.82C533.653 529.857 557.984 534.175 581.328 537.431C584.049 537.814 586.759 538.178 589.467 538.521C591.709 538.763 593.954 538.968 596.199 539.145C605.071 539.424 613.941 539.717 622.898 540.403C625.14 540.571 627.382 540.77 629.644 541.012C631.52 541.079 633.364 541.3 635.185 541.633C637.009 541.967 638.809 542.41 640.623 542.934C652.138 545.844 663.036 553.813 675.713 552.139Z" fill="#6288B1"/>
<path d="M675.474 528.713C675.679 530.644 675.814 532.581 675.838 534.527C675.264 540.439 675.474 546.291 675.712 552.139C663.036 553.813 652.138 545.844 640.623 542.934C638.809 542.41 637.009 541.967 635.184 541.633C633.364 541.299 631.519 541.079 629.644 541.012C627.382 540.77 625.14 540.571 622.898 540.403C613.941 539.717 605.071 539.423 596.199 539.145C593.954 538.967 591.708 538.762 589.466 538.521C586.759 538.178 584.048 537.814 581.328 537.431C557.984 534.175 533.652 529.857 513.238 524.82C510.687 524.193 508.193 523.55 505.778 522.919C489.059 520.028 473.362 513.264 457.665 506.504C452.889 504.659 448.113 504.044 443.551 502.728C441.164 502.214 438.738 501.727 436.248 501.25C418.877 497.917 398.333 494.982 377.493 492.464C376.056 492.292 374.619 492.121 373.193 491.956C371.464 491.717 369.755 491.552 368.063 491.448C359.001 490.891 352.058 494.545 343.518 496.408C324.859 500.482 312.107 487.023 294.909 484.305C283.648 482.524 272.731 483.139 261.358 482.408L261.29 482.42C259.694 474.987 258.909 467.682 258.213 460.411C272.782 463.453 288.445 458.559 301.278 465.154C303.388 465.959 305.511 466.724 307.647 467.437C324.74 473.144 342.791 475.461 360.984 469.34C363.114 469.405 365.305 469.555 367.496 469.726C369.691 469.901 371.885 470.087 374.072 470.298C375.859 470.509 377.643 470.724 379.426 470.944C405.775 474.16 431.513 478.05 450.804 482.564C452.947 483.066 455.012 483.574 456.996 484.097C474.728 489.287 490.425 498.511 509.097 502.018C511.353 502.602 513.662 503.178 516.02 503.741C532.525 507.695 551.364 511.18 570.074 514.036C571.701 514.283 573.328 514.525 574.952 514.764C577.775 515.725 581.185 515.725 584.599 516.34C591.147 516.524 597.761 516.487 604.382 516.527C606.586 516.542 608.794 516.563 611.016 516.6C616.722 516.964 622.395 517.365 628.021 517.95C629.892 518.145 631.76 518.363 633.642 518.635C648.028 519.41 660.974 532.266 675.474 528.713Z" fill="#E7EB8A"/>
<path d="M675.417 528.181C675.437 528.358 675.457 528.536 675.474 528.713C660.974 532.266 648.028 519.41 633.643 518.636C631.761 518.363 629.893 518.146 628.021 517.95C622.395 517.366 616.723 516.965 611.016 516.601C608.794 516.564 606.587 516.542 604.382 516.527C597.762 516.487 591.148 516.524 584.599 516.34C581.185 515.725 577.775 515.725 574.952 514.764C573.328 514.526 571.701 514.284 570.074 514.036C551.365 511.181 532.526 507.695 516.02 503.741C513.663 503.178 511.353 502.603 509.097 502.018C490.425 498.511 474.728 489.288 456.997 484.098C455.013 483.574 452.948 483.066 450.804 482.564C431.513 478.051 405.776 474.161 379.426 470.945C377.643 470.724 375.86 470.51 374.073 470.299C371.885 470.088 369.691 469.901 367.497 469.727C365.306 469.555 363.115 469.405 360.985 469.341C342.791 475.462 324.74 473.145 307.648 467.438C305.511 466.725 303.388 465.959 301.278 465.155C288.445 458.56 272.782 463.453 258.213 460.411C257.636 454.398 257.123 448.412 256.257 442.395C256.185 441.982 256.114 441.569 256.039 441.159C265.187 442.389 273.764 440.146 283.034 441.291C285.347 441.49 287.63 441.814 289.868 442.319C311.136 447.124 330.175 463.006 351.531 448.801C352.992 448.443 354.459 448.143 355.934 447.907C361.837 446.958 367.853 446.98 374.073 448.544C375.86 448.755 377.643 448.969 379.426 449.189C399.919 451.689 420.046 454.6 437.054 457.893C439.482 458.367 441.853 458.86 444.208 459.447C464.49 465.926 484.963 474.534 506.285 479.526C508.748 480.184 511.285 480.832 513.883 481.469C529.468 485.288 547.292 488.688 565.193 491.522C566.823 491.779 568.46 492.03 570.101 492.275C572.353 492.458 574.609 492.657 576.861 492.871C579.113 493.089 581.365 493.318 583.617 493.557C585.747 493.713 587.877 493.826 590.02 493.909C600.615 494.365 611.373 493.517 622.039 493.532C624.172 493.532 626.306 493.569 628.435 493.655C630.341 493.643 632.253 493.719 634.166 493.875C636.075 494.031 637.987 494.264 639.896 494.567C650.793 494.821 662.118 502.979 672.784 501.379C672.798 501.865 672.808 502.352 672.815 502.839C672.238 511.428 674.473 519.759 675.417 528.181Z" fill="#B9D17D"/>
<path d="M675.227 482.264C675.312 484.153 675.003 486.142 674.483 488.186C673.997 491.133 671.949 493.593 672.632 496.666C672.696 498.248 672.751 499.818 672.784 501.379C662.119 502.979 650.794 494.821 639.897 494.567C637.987 494.264 636.075 494.031 634.166 493.875C632.254 493.719 630.341 493.642 628.436 493.655C626.305 493.569 624.173 493.532 622.039 493.532C611.373 493.517 600.615 494.365 590.021 493.909C587.877 493.826 585.747 493.713 583.617 493.557C581.365 493.318 579.113 493.089 576.861 492.871C574.609 492.657 572.353 492.458 570.101 492.275C568.461 492.03 566.824 491.779 565.193 491.522C547.292 488.688 529.469 485.288 513.883 481.469C511.285 480.832 508.748 480.183 506.285 479.525C484.963 474.534 464.49 465.926 444.208 459.447C441.854 458.86 439.483 458.367 437.054 457.893C420.046 454.6 399.92 451.689 379.427 449.189C377.643 448.969 375.86 448.755 374.073 448.543C367.853 446.98 361.838 446.958 355.934 447.907C354.46 448.143 352.992 448.442 351.532 448.8C330.176 463.006 311.136 447.123 289.869 442.319C287.63 441.814 285.348 441.49 283.034 441.291C273.764 440.146 265.187 442.389 256.04 441.159C255.768 439.65 255.493 438.166 255.336 436.706C254.688 431.161 255.839 425.888 260.445 421.044C263.176 417.971 274.097 419.202 282.345 419.465C284.315 419.495 286.275 419.63 288.242 419.921C290.205 420.212 292.179 420.658 294.156 421.319C296.221 421.941 298.283 422.583 300.345 423.201C306.53 425.062 312.736 426.733 319.136 427.192C325.277 427.807 331.419 424.735 337.56 423.504C340.974 423.504 343.702 422.889 347.438 423.85C349.188 424.028 350.947 424.211 352.71 424.398C383.598 427.663 416.391 431.893 441.419 437.003C443.919 437.514 446.344 438.035 448.685 438.579C469.27 446.251 489.059 456.09 510.857 458.961C512.984 459.499 515.157 460.029 517.372 460.552C530.657 463.689 545.389 466.526 560.315 468.977C561.942 469.246 563.569 469.506 565.2 469.763C569.911 470.663 574.616 471.306 579.31 471.771C581.661 472.003 584.008 472.19 586.386 472.34C596.784 473.711 607.083 472.065 617.341 470.935C619.393 470.709 621.445 470.504 623.493 470.348C638.511 470.844 654.887 465.926 668.535 472.689C673.314 475.149 675.057 478.494 675.227 482.264Z" fill="#D86B68"/>
<path d="M255 441.006C255.346 441.064 255.693 441.113 256.039 441.159C265.187 442.389 273.764 440.146 283.034 441.291C285.347 441.49 287.63 441.814 289.869 442.319C311.136 447.124 330.176 463.006 351.532 448.801C352.992 448.443 354.46 448.143 355.934 447.907C361.838 446.958 367.853 446.98 374.073 448.544C375.86 448.755 377.643 448.969 379.426 449.189C399.92 451.689 420.046 454.6 437.054 457.893C439.483 458.367 441.854 458.86 444.208 459.447C464.49 465.926 484.963 474.534 506.285 479.526C508.748 480.184 511.285 480.832 513.883 481.469C529.468 485.288 547.292 488.688 565.193 491.522C566.824 491.779 568.46 492.03 570.101 492.275C572.354 492.458 574.609 492.657 576.861 492.871C579.113 493.089 581.365 493.318 583.617 493.557C585.747 493.713 587.877 493.826 590.021 493.909C600.615 494.365 611.373 493.517 622.039 493.532C624.172 493.532 626.306 493.569 628.435 493.655C630.341 493.643 632.253 493.719 634.166 493.875C636.075 494.031 637.987 494.264 639.896 494.567C650.793 494.821 662.119 502.979 672.784 501.379" stroke="black" stroke-width="5" stroke-miterlimit="10"/>
<path d="M258.142 460.396C258.166 460.402 258.19 460.405 258.213 460.411C272.782 463.453 288.445 458.56 301.279 465.154C303.388 465.959 305.511 466.724 307.648 467.437C324.741 473.145 342.791 475.461 360.985 469.341C363.115 469.405 365.306 469.555 367.497 469.726C369.691 469.901 371.885 470.088 374.073 470.299C375.86 470.51 377.643 470.724 379.426 470.944C405.776 474.161 431.514 478.05 450.804 482.564C452.948 483.066 455.013 483.574 456.997 484.097C474.728 489.288 490.425 498.511 509.098 502.018C511.353 502.603 513.663 503.178 516.02 503.741C532.526 507.695 551.365 511.181 570.074 514.036C571.701 514.284 573.328 514.526 574.952 514.764C577.775 515.725 581.186 515.725 584.599 516.34C591.148 516.524 597.762 516.487 604.382 516.527C606.587 516.542 608.795 516.564 611.016 516.6C616.723 516.965 622.396 517.366 628.021 517.95C629.893 518.146 631.761 518.363 633.643 518.636C648.028 519.41 660.974 532.266 675.475 528.713C675.509 528.704 675.539 528.698 675.573 528.688" stroke="black" stroke-width="5" stroke-miterlimit="10"/>
<path d="M261.359 482.408C272.732 483.139 283.649 482.524 294.91 484.305C312.108 487.023 324.86 500.482 343.518 496.409C352.058 494.545 359.001 490.891 368.064 491.448C369.756 491.552 371.464 491.717 373.193 491.956C374.62 492.121 376.057 492.293 377.494 492.464C398.333 494.983 418.877 497.917 436.249 501.25C438.739 501.727 441.164 502.214 443.552 502.728C448.114 504.044 452.89 504.659 457.666 506.504C473.362 513.265 489.059 520.028 505.779 522.92C508.194 523.55 510.687 524.193 513.238 524.82C533.653 529.857 557.985 534.175 581.328 537.431C584.049 537.814 586.759 538.178 589.467 538.521C591.709 538.763 593.954 538.968 596.199 539.145C605.072 539.424 613.941 539.717 622.899 540.403C625.141 540.571 627.383 540.77 629.644 541.012C631.52 541.079 633.364 541.3 635.185 541.633C637.009 541.967 638.809 542.41 640.623 542.934C652.139 545.844 663.036 553.813 675.713 552.139C675.737 552.136 675.761 552.133 675.784 552.13" stroke="black" stroke-width="5" stroke-miterlimit="10"/>
<path d="M675.713 552.139C675.954 558.098 676.219 564.053 675.706 570.069C675.387 572.12 675.149 573.252 675.149 573.252C663.759 576.591 652.842 567.982 642.603 564.295C638.51 563.064 633.734 561.837 629.811 561.1C627.8 560.745 625.792 560.439 623.782 560.179C609.705 558.349 595.387 558.603 581.324 559.181C578.604 558.808 575.866 558.416 573.124 558.006C545.698 553.923 517.708 548.452 496.94 542.129C494.865 541.499 492.86 540.859 490.941 540.213C475.411 534.169 459.032 528.021 442.146 524.178C439.693 523.673 437.169 523.177 434.574 522.687C416.442 519.275 395.028 516.285 373.499 513.745C371.906 513.556 370.309 513.369 368.716 513.188C366.906 512.653 364.857 512.038 363.492 512.653C338.243 526.791 315.722 513.265 291.927 506.676C289.746 506.229 287.562 505.783 285.375 505.323C277.508 504.044 269.318 504.659 261.128 505.274C261.244 503.94 261.434 502.627 261.668 501.327C262.494 496.666 263.176 492.363 262.494 487.445C262.045 485.762 261.648 484.088 261.291 482.42C259.695 474.987 258.91 467.682 258.214 460.411C257.636 454.398 257.123 448.412 256.257 442.395C256.186 441.982 256.114 441.569 256.04 441.159C255.768 439.65 255.493 438.166 255.336 436.706C254.688 431.161 255.839 425.888 260.445 421.044C263.176 417.971 274.097 419.202 282.345 419.465C284.315 419.495 286.275 419.63 288.242 419.921C290.205 420.212 292.179 420.658 294.156 421.319C296.221 421.941 298.283 422.583 300.345 423.201C306.53 425.062 312.736 426.733 319.136 427.192C325.277 427.807 331.419 424.735 337.56 423.504C340.974 423.504 343.702 422.889 347.438 423.85C349.188 424.028 350.947 424.211 352.71 424.398C383.598 427.663 416.391 431.893 441.419 437.003C443.919 437.514 446.344 438.035 448.685 438.579C469.27 446.251 489.059 456.09 510.857 458.961C512.984 459.499 515.157 460.029 517.372 460.552C530.657 463.689 545.389 466.526 560.315 468.977C561.942 469.246 563.569 469.506 565.2 469.763C569.911 470.663 574.616 471.306 579.31 471.771C581.661 472.003 584.008 472.19 586.386 472.34C596.784 473.711 607.083 472.065 617.341 470.935C619.393 470.709 621.445 470.504 623.493 470.348C638.511 470.844 654.887 465.926 668.535 472.689C673.315 475.149 675.057 478.494 675.227 482.264C675.312 484.153 675.003 486.142 674.483 488.186C673.997 491.133 671.949 493.593 672.632 496.666C672.696 498.248 672.751 499.818 672.785 501.379C672.798 501.865 672.809 502.352 672.816 502.839C672.238 511.429 674.473 519.759 675.417 528.181C675.438 528.358 675.458 528.536 675.475 528.713C675.679 530.644 675.815 532.581 675.839 534.528C675.264 540.44 675.475 546.291 675.713 552.139Z" stroke="black" stroke-width="5" stroke-miterlimit="10"/>
</g>
<g opacity="0.8" filter="url(#filter0_f_189_4540)">
<path fill-rule="evenodd" clip-rule="evenodd" d="M899.111 487.529C903.923 487.062 908.761 486.045 913.546 486.257C920.434 486.566 923.53 483.393 924.277 476.998C924.894 471.736 925.58 466.48 926.235 461.221C927.033 461.148 927.831 461.073 928.629 461C929.339 464.611 930.224 468.2 930.73 471.841C932.651 485.66 932.712 485.75 946.811 486.494C949.945 486.66 953.074 486.935 956.208 487.158C956.291 487.974 956.373 488.788 956.456 489.604C953.092 490.249 949.746 490.994 946.363 491.52C935.169 493.266 933.613 494.718 932.87 505.914C932.224 515.644 932.052 525.406 931.468 535.142C931.28 538.233 930.438 541.283 929.894 544.353C929.106 544.426 928.319 544.5 927.532 544.574C926.843 542.06 925.762 539.58 925.533 537.024C924.547 525.96 923.511 514.886 923.088 503.791C922.832 497.059 919.89 494.029 913.349 493.455C908.534 493.033 903.781 491.922 899 491.118C899.037 489.922 899.074 488.725 899.111 487.529Z" fill="white"/>
<path fill-rule="evenodd" clip-rule="evenodd" d="M579.897 559C578.999 550.117 570.522 546.076 568 543.324C578.103 542.767 577.279 535.99 579.259 532C581.184 535.57 582.219 544.231 590 542.429C587.239 544.736 581.992 548.624 579.897 559Z" fill="white"/>
<path fill-rule="evenodd" clip-rule="evenodd" d="M205.897 28C204.999 19.1173 196.522 15.0764 194 12.3245C204.103 11.7666 203.279 4.99032 205.259 1C207.184 4.57022 208.219 13.231 216 11.4287C213.239 13.7362 207.992 17.6244 205.897 28Z" fill="white"/>
<path fill-rule="evenodd" clip-rule="evenodd" d="M1060.67 627C1059.67 616.905 1057.25 608.166 1047 606.56C1058.08 608.251 1059.5 593.914 1059.5 588C1060.75 592.609 1062.75 608.59 1072 605.98C1065.25 608.082 1063 615.208 1060.67 627Z" fill="white"/>
<path fill-rule="evenodd" clip-rule="evenodd" d="M76.1098 557.316C80.8843 556.958 85.6837 556.179 90.4301 556.342C97.2636 556.578 100.335 554.148 101.076 549.251C101.688 545.221 102.369 541.197 103.019 537.169C103.81 537.113 104.602 537.056 105.393 537C106.099 539.766 106.977 542.514 107.478 545.302C109.384 555.885 109.444 555.954 123.432 556.523C126.541 556.65 129.645 556.861 132.754 557.032C132.836 557.656 132.918 558.28 133 558.904C129.663 559.398 126.343 559.969 122.987 560.372C111.882 561.709 110.338 562.821 109.601 571.395C108.96 578.846 108.79 586.321 108.21 593.778C108.023 596.144 107.188 598.48 106.649 600.831C105.867 600.887 105.086 600.944 104.306 601C103.622 599.075 102.55 597.176 102.323 595.218C101.344 586.746 100.317 578.265 99.8973 569.769C99.6425 564.614 96.7246 562.293 90.2347 561.854C85.4583 561.531 80.7432 560.68 76 560.064C76.037 559.148 76.0734 558.232 76.1098 557.316Z" fill="white"/>
<path fill-rule="evenodd" clip-rule="evenodd" d="M1.05974 431.38C3.65639 431.162 6.2666 430.687 8.84796 430.786C12.5644 430.93 14.2351 429.45 14.638 426.465C14.9707 424.01 15.341 421.557 15.6945 419.103C16.1249 419.069 16.5556 419.034 16.9859 419C17.3694 420.685 17.847 422.36 18.1196 424.059C19.1564 430.508 19.1891 430.55 26.7963 430.897C28.4871 430.974 30.1755 431.103 31.8663 431.207C31.9108 431.587 31.9552 431.968 32 432.348C30.1852 432.649 28.3794 432.997 26.5545 433.242C20.5148 434.057 19.6753 434.735 19.2742 439.959C18.9258 444.5 18.8331 449.055 18.5177 453.599C18.4163 455.041 17.9619 456.464 17.6688 457.897C17.2433 457.931 16.8189 457.966 16.3944 458C16.0224 456.827 15.4393 455.67 15.316 454.477C14.7835 449.314 14.225 444.146 13.9968 438.968C13.8582 435.827 12.2712 434.413 8.74167 434.145C6.14398 433.948 3.57963 433.43 1 433.055C1.02015 432.496 1.03994 431.938 1.05974 431.38Z" fill="white"/>
<path fill-rule="evenodd" clip-rule="evenodd" d="M426.897 621C425.999 612.117 417.522 608.076 415 605.324C425.103 604.767 424.279 597.99 426.259 594C428.184 597.57 429.219 606.231 437 604.429C434.239 606.736 428.992 610.624 426.897 621Z" fill="white"/>
<path fill-rule="evenodd" clip-rule="evenodd" d="M1384.67 557C1383.67 546.905 1381.25 538.166 1371 536.56C1382.08 538.251 1383.5 523.914 1383.5 518C1384.75 522.609 1386.75 538.59 1396 535.98C1389.25 538.082 1387 545.208 1384.67 557Z" fill="white"/>
<path fill-rule="evenodd" clip-rule="evenodd" d="M1175.41 482C1173.77 467.763 1169.81 455.44 1153 453.175C1171.18 455.56 1173.5 435.34 1173.5 427C1175.55 433.5 1178.83 456.038 1194 452.357C1182.93 455.32 1179.24 465.37 1175.41 482Z" fill="white"/>
</g>
<path d="M210.666 555.729C271.343 555.729 320.531 506.541 320.531 445.864C320.531 385.188 271.343 336 210.666 336C149.99 336 100.802 385.188 100.802 445.864C100.802 506.541 149.99 555.729 210.666 555.729Z" fill="#0B0B0B" stroke="#4E4E4E" stroke-width="5" stroke-miterlimit="10"/>
<path d="M385.713 415.96C382.207 404.914 354.675 402.746 313.92 408.252C298.56 366.1 258.131 336 210.668 336C149.991 336 100.802 385.188 100.802 445.864C100.802 454.1 101.737 462.112 103.454 469.829C47.4595 494.446 11.9186 519.167 16.376 533.213C21.2527 548.572 72.5559 546.772 141.287 531.039C160.205 546.468 184.352 555.729 210.667 555.729C262.839 555.729 306.487 519.348 317.704 470.58C362.518 449.001 389.642 428.336 385.713 415.96Z" stroke="#4E4E4E" stroke-width="5" stroke-miterlimit="10"/>
<path d="M16.3779 533.213C22.8369 553.558 110.753 543.802 212.74 511.421C314.73 479.041 392.171 436.302 385.713 415.958" stroke="#4E4E4E" stroke-width="5" stroke-miterlimit="10"/>
<path d="M1262.14 616.759C1294.38 616.759 1320.52 590.622 1320.52 558.38C1320.52 526.137 1294.38 500 1262.14 500C1229.89 500 1203.76 526.137 1203.76 558.38C1203.76 590.622 1229.89 616.759 1262.14 616.759Z" fill="#0B0B0B" stroke="#5E5E5E" stroke-width="5" stroke-miterlimit="10"/>
<path d="M1203.76 558.38C1203.76 551.142 1205.08 544.216 1207.49 537.82C1186.99 539.258 1173.16 544.221 1172.07 551.876C1170.89 560.125 1184.8 569.501 1206.77 576.885C1204.83 571.068 1203.76 564.85 1203.76 558.38Z" stroke="#5E5E5E" stroke-width="5" stroke-miterlimit="10"/>
<path d="M1320.51 558.288C1320.51 558.319 1320.52 558.35 1320.52 558.381C1320.52 569.164 1317.58 579.257 1312.48 587.926C1326.26 585.649 1335.08 581.281 1335.94 575.23C1336.72 569.775 1330.89 563.827 1320.51 558.288Z" stroke="#5E5E5E" stroke-width="5" stroke-miterlimit="10"/>
<path d="M1172.07 551.876C1173.91 538.947 1212.09 533.693 1257.34 540.143C1302.6 546.591 1337.79 562.299 1335.95 575.23" stroke="#5E5E5E" stroke-width="5" stroke-miterlimit="10"/>
<path d="M712.217 581.736C744.453 581.736 770.585 555.604 770.585 523.368C770.585 491.132 744.453 465 712.217 465C679.982 465 653.85 491.132 653.85 523.368C653.85 555.604 679.982 581.736 712.217 581.736Z" fill="#0B0B0B" stroke="#727272" stroke-width="5" stroke-miterlimit="10"/>
<path d="M807 532.62C807 545.954 763.795 556.764 710.5 556.764C657.204 556.764 614 545.955 614 532.62" stroke="#727272" stroke-width="5" stroke-miterlimit="10"/>
<path d="M807 532.62C807 524.873 792.418 517.98 769.749 513.562C765.083 485.998 741.109 465 712.218 465C683.557 465 659.739 485.663 654.805 512.9C630.117 517.274 614 524.476 614 532.62C614 541.555 633.402 549.357 662.241 553.532C672.466 570.435 691.021 581.736 712.218 581.736C733.651 581.736 752.374 570.176 762.524 552.958C789.274 548.666 807 541.161 807 532.62Z" stroke="#727272" stroke-width="5" stroke-miterlimit="10"/>
<defs>
<filter id="filter0_f_189_4540" x="0" y="0" width="1397" height="736" filterUnits="userSpaceOnUse" color-interpolation-filters="sRGB">
<feFlood flood-opacity="0" result="BackgroundImageFix"/>
<feBlend mode="normal" in="SourceGraphic" in2="BackgroundImageFix" result="shape"/>
<feGaussianBlur stdDeviation="0.5" result="effect1_foregroundBlur_189_4540"/>
</filter>
</defs>
</svg>
