<svg width="540" height="638" viewBox="0 0 540 638" fill="none" xmlns="http://www.w3.org/2000/svg">
<path d="M377.101 658.364L323.734 308.533H347.492L432.301 658.364H377.101Z" fill="#D97595"/>
<path d="M348.143 306.545V308.533H347.492L347.01 306.545H348.143Z" fill="black"/>
<path d="M347.01 306.545L347.492 308.533H323.734L323.431 306.545H347.01Z" fill="black"/>
<path d="M323.734 308.533L377.102 658.364H319.13L296.961 308.533H323.734Z" fill="#D86B68"/>
<path d="M323.431 306.545L323.734 308.533H296.961L296.837 306.545H323.431Z" fill="black"/>
<path d="M319.13 658.364H270.014V308.533H296.961L319.13 658.364Z" fill="#EEDDA1"/>
<path d="M296.837 306.545L296.961 308.533H270.014V306.545H296.837Z" fill="black"/>
<path d="M270.015 308.533V658.364H222.613L244.776 308.533H270.015Z" fill="#E7EB8A"/>
<path d="M270.014 306.545V308.533H244.776L244.9 306.545H270.014Z" fill="black"/>
<path d="M244.9 306.545L244.776 308.533H218.008L218.311 306.545H244.9Z" fill="black"/>
<path d="M244.776 308.533L222.612 658.364H164.64L218.008 308.533H244.776Z" fill="#B9D17D"/>
<path d="M218.311 306.545L218.008 308.533H192.536L193.018 306.545H218.311Z" fill="black"/>
<path d="M218.008 308.533L164.641 658.364H107.727L192.536 308.533H218.008Z" fill="#6288B1"/>
<path d="M193.018 306.545L192.536 308.533H192.407V306.545H193.018Z" fill="black"/>
<path d="M193.018 306.545L192.536 308.533L107.727 658.364L107.483 659.358" stroke="black" stroke-width="4" stroke-miterlimit="10"/>
<path d="M347.01 306.545L347.492 308.533L432.302 658.364L432.545 659.358" stroke="black" stroke-width="4" stroke-miterlimit="10"/>
<path d="M270.014 306.545V308.533V658.364V659.358" stroke="black" stroke-width="4" stroke-miterlimit="10"/>
<path d="M244.901 306.545L244.776 308.533L222.613 658.364L222.548 659.358" stroke="black" stroke-width="4" stroke-miterlimit="10"/>
<path d="M218.311 306.545L218.008 308.533L164.641 658.364L164.487 659.358" stroke="black" stroke-width="4" stroke-miterlimit="10"/>
<path d="M296.837 306.545L296.961 308.533L319.13 658.364L319.194 659.358" stroke="black" stroke-width="4" stroke-miterlimit="10"/>
<path d="M323.431 306.545L323.734 308.533L377.101 658.364L377.255 659.358" stroke="black" stroke-width="4" stroke-miterlimit="10"/>
<path fill-rule="evenodd" clip-rule="evenodd" d="M419.612 276.725C401.15 299.205 348.096 325.387 271.941 325.387C195.786 325.387 151.59 298.18 130.469 277.489C71.5124 219.731 195.786 225.836 271.941 225.836C348.096 225.836 458.677 229.157 419.612 276.725Z" fill="#1587B9" stroke="black" stroke-width="16" stroke-miterlimit="10"/>
<path d="M271.411 282.902C400.128 282.902 504.474 254.197 504.474 218.788C504.474 183.379 400.128 154.674 271.411 154.674C142.694 154.674 38.3477 183.379 38.3477 218.788C38.3477 254.197 142.694 282.902 271.411 282.902Z" fill="#73CBF1" stroke="black" stroke-width="16" stroke-miterlimit="10"/>
<path d="M97.3705 233.215C109.881 233.215 120.023 227.785 120.023 221.088C120.023 214.39 109.881 208.961 97.3705 208.961C84.86 208.961 74.7183 214.39 74.7183 221.088C74.7183 227.785 84.86 233.215 97.3705 233.215Z" fill="#42535B" stroke="black" stroke-width="5" stroke-miterlimit="10"/>
<path d="M96.9058 226.965C108.285 226.965 117.509 222.931 117.509 217.956C117.509 212.98 108.285 208.947 96.9058 208.947C85.5269 208.947 76.3025 212.98 76.3025 217.956C76.3025 222.931 85.5269 226.965 96.9058 226.965Z" fill="#83D3EC" stroke="black" stroke-width="5" stroke-miterlimit="10"/>
<path d="M178.327 256.689C190.838 256.689 200.98 251.26 200.98 244.562C200.98 237.865 190.838 232.435 178.327 232.435C165.817 232.435 155.675 237.865 155.675 244.562C155.675 251.26 165.817 256.689 178.327 256.689Z" fill="#42535B" stroke="black" stroke-width="5" stroke-miterlimit="10"/>
<path d="M177.862 250.44C189.241 250.44 198.465 246.406 198.465 241.431C198.465 236.455 189.241 232.422 177.862 232.422C166.483 232.422 157.259 236.455 157.259 241.431C157.259 246.406 166.483 250.44 177.862 250.44Z" fill="#83D3EC" stroke="black" stroke-width="5" stroke-miterlimit="10"/>
<path d="M273.219 265.683C285.729 265.683 295.871 260.253 295.871 253.556C295.871 246.858 285.729 241.429 273.219 241.429C260.708 241.429 250.567 246.858 250.567 253.556C250.567 260.253 260.708 265.683 273.219 265.683Z" fill="#42535B" stroke="black" stroke-width="5" stroke-miterlimit="10"/>
<path d="M272.754 259.433C284.133 259.433 293.357 255.4 293.357 250.424C293.357 245.449 284.133 241.415 272.754 241.415C261.375 241.415 252.15 245.449 252.15 250.424C252.15 255.4 261.375 259.433 272.754 259.433Z" fill="#83D3EC" stroke="black" stroke-width="5" stroke-miterlimit="10"/>
<path d="M443.402 228.336C455.913 228.336 466.054 222.906 466.054 216.209C466.054 209.511 455.913 204.082 443.402 204.082C430.892 204.082 420.75 209.511 420.75 216.209C420.75 222.906 430.892 228.336 443.402 228.336Z" fill="#42535B" stroke="black" stroke-width="5" stroke-miterlimit="10"/>
<path d="M442.937 222.086C454.315 222.086 463.54 218.052 463.54 213.077C463.54 208.101 454.315 204.068 442.937 204.068C431.558 204.068 422.333 208.101 422.333 213.077C422.333 218.052 431.558 222.086 442.937 222.086Z" fill="#83D3EC" stroke="black" stroke-width="5" stroke-miterlimit="10"/>
<path d="M364.768 253.542C377.278 253.542 387.42 248.113 387.42 241.416C387.42 234.718 377.278 229.289 364.768 229.289C352.257 229.289 342.115 234.718 342.115 241.416C342.115 248.113 352.257 253.542 364.768 253.542Z" fill="#42535B" stroke="black" stroke-width="5" stroke-miterlimit="10"/>
<path d="M364.303 247.293C375.681 247.293 384.906 243.259 384.906 238.284C384.906 233.308 375.681 229.275 364.303 229.275C352.924 229.275 343.699 233.308 343.699 238.284C343.699 243.259 352.924 247.293 364.303 247.293Z" fill="#83D3EC" stroke="black" stroke-width="5" stroke-miterlimit="10"/>
<path fill-rule="evenodd" clip-rule="evenodd" d="M524.775 186.176C523.156 177.206 517.417 173.672 509.776 171.116C517.438 168.561 523.189 165.05 524.373 156.077C527.695 163.262 530.823 169.681 540 170.729C532.361 173.713 526.55 177.398 524.775 186.176Z" fill="#FFF0B4"/>
<path fill-rule="evenodd" clip-rule="evenodd" d="M479.688 305.617C478.068 296.646 472.329 293.112 464.688 290.556C472.35 288.001 478.101 284.491 479.286 275.518C482.607 282.702 485.735 289.122 494.912 290.17C487.274 293.154 481.462 296.838 479.688 305.617Z" fill="#2BC5F3"/>
<path d="M378.966 167.162C363.729 123.2 328.232 85.928 272.659 84.4555C228.793 83.2902 182.774 114.719 169.664 156.009C168.634 159.25 167.294 162.41 166.201 165.638C164.411 170.941 161.559 177.314 161.946 183.025C162.396 189.665 168.012 193.157 173.68 195.212C181.091 197.897 189.112 199.374 196.742 201.325C216.254 206.321 236.081 209.892 256.175 211.425C267.063 212.255 278 211.513 288.869 210.759C298.426 210.096 308.065 209.893 317.582 208.78C326.385 207.746 335.128 206.182 343.835 204.577C351.417 203.18 359.083 202.012 366.346 199.33C372.07 197.215 378.591 194.366 380.984 188.296C383.624 181.6 381.207 173.627 378.966 167.162ZM378.14 140.829C381.774 147.988 383.92 156.416 386.034 164.13C388.16 171.887 390.505 180.036 391.187 188.073C391.725 194.414 389.38 198.42 383.433 200.775C341.399 217.431 297.808 223.225 252.905 220.392C221.89 218.437 191.881 212.004 162.912 200.52C159.685 199.243 155.549 195.44 155.114 192.092C153.906 182.762 154.991 174.294 157.16 166.828C159.753 157.901 163.953 149.557 168.164 141.309C170.837 136.085 173.82 131.017 177.075 126.133C185.251 113.858 196.455 103.902 208.644 95.7177C214.782 91.5874 221.303 88.1315 228.228 85.5061C232.28 83.97 236.412 82.6809 240.58 81.5115C244.712 80.3462 248.836 79.0615 253.056 78.2594C256.199 77.6651 259.374 77.3897 262.557 77.2218C275.041 76.5673 287.597 77.4692 299.873 79.7756C309.589 81.5955 318.878 84.9594 327.538 89.7159C335.479 94.0812 342.949 99.3808 349.838 105.255C356.77 111.165 363.043 117.817 368.297 125.271C371.826 130.278 375.364 135.35 378.14 140.829Z" fill="black"/>
<path d="M343.835 204.577C335.128 206.182 326.385 207.745 317.582 208.78C308.066 209.893 298.426 210.097 288.869 210.759C278 211.513 267.064 212.255 256.175 211.425C236.081 209.893 216.254 206.321 196.742 201.325C189.112 199.374 181.091 197.897 173.68 195.212C168.012 193.157 162.397 189.665 161.946 183.025C161.559 177.314 164.41 170.942 166.201 165.638C167.294 162.41 168.634 159.25 169.664 156.009C182.774 114.719 228.794 83.2901 272.659 84.4555C328.232 85.9279 363.729 123.199 378.966 167.162C381.207 173.627 383.624 181.6 380.984 188.296C378.591 194.365 372.069 197.214 366.346 199.329C359.083 202.011 351.417 203.18 343.835 204.577ZM263.319 103.386C265.309 102.951 266.94 100.852 268.739 99.5074C266.757 98.4061 264.807 97.2249 262.764 96.2468C262.142 95.9477 261.257 96.1991 261.56 96.1991C239.934 97.7352 221.894 105.221 206.797 119.296C205.21 120.772 205.086 123.829 204.288 126.151C206.654 125.656 209.692 125.924 211.288 124.535C222.476 114.763 235.068 107.879 249.686 105.058C254.169 104.192 258.863 104.364 263.319 103.386Z" fill="#D4DFE3"/>
<path d="M268.739 99.5081C266.94 100.853 265.309 102.952 263.318 103.387C258.863 104.364 254.169 104.193 249.685 105.059C235.067 107.88 222.476 114.764 211.288 124.537C209.692 125.925 206.653 125.658 204.288 126.153C205.086 123.83 205.209 120.774 206.797 119.297C221.893 105.223 239.933 97.7364 261.559 96.2003C261.256 96.2003 262.141 95.9488 262.764 96.248C264.806 97.225 266.756 98.4063 268.739 99.5081Z" fill="white"/>
<path fill-rule="evenodd" clip-rule="evenodd" d="M107.672 147.174C106.053 138.203 100.314 134.669 92.6729 132.113C100.335 129.558 106.086 126.048 107.27 117.075C110.592 124.259 113.72 130.679 122.897 131.726C115.258 134.711 109.447 138.395 107.672 147.174Z" fill="#E1DCA5"/>
<path fill-rule="evenodd" clip-rule="evenodd" d="M83.8163 291.135C74.8506 292.755 71.3179 298.497 68.7633 306.142C66.2092 298.475 62.7009 292.722 53.7322 291.537C60.9132 288.214 67.3298 285.084 68.3769 275.902C71.3597 283.545 75.0423 289.359 83.8163 291.135Z" fill="#FFF0B4"/>
<path fill-rule="evenodd" clip-rule="evenodd" d="M30.0842 96.2144C21.1179 97.835 17.5858 103.577 15.0307 111.222C12.477 103.556 8.96922 97.8022 0 96.6169C7.18104 93.2943 13.5976 90.1644 14.6452 80.9825C17.6275 88.6248 21.3102 94.4388 30.0842 96.2144Z" fill="#2BC5F3"/>
<path fill-rule="evenodd" clip-rule="evenodd" d="M161.796 30.0984C160.176 21.1288 154.437 17.5939 146.796 15.038C154.458 12.4832 160.209 8.97263 161.394 0C164.715 7.18456 167.844 13.6043 177.02 14.6514C169.382 17.6357 163.571 21.3201 161.796 30.0984Z" fill="#E1DCA5"/>
<path fill-rule="evenodd" clip-rule="evenodd" d="M376.942 84.8526C375.323 75.8825 369.584 72.3481 361.943 69.7917C369.605 67.2368 375.355 63.7268 376.54 54.7537C379.862 61.9382 382.99 68.358 392.167 69.4051C384.528 72.3898 378.718 76.0743 376.942 84.8526Z" fill="#E1DCA5"/>
<path fill-rule="evenodd" clip-rule="evenodd" d="M389.37 370.694C380.404 372.314 376.871 378.056 374.317 385.701C371.763 378.035 368.254 372.282 359.286 371.097C366.467 367.773 372.884 364.643 373.93 355.462C376.913 363.105 380.596 368.918 389.37 370.694Z" fill="#FFF0B4"/>
<path fill-rule="evenodd" clip-rule="evenodd" d="M364.527 608.672C373.497 607.053 377.031 601.314 379.588 593.673C382.143 601.335 385.653 607.086 394.626 608.27C387.441 611.592 381.021 614.72 379.974 623.897C376.99 616.258 373.305 610.447 364.527 608.672Z" fill="#E1DCA5"/>
<path fill-rule="evenodd" clip-rule="evenodd" d="M220.565 584.816C218.945 575.851 213.204 572.318 205.559 569.763C213.225 567.209 218.978 563.701 220.163 554.732C223.487 561.913 226.616 568.33 235.798 569.377C228.156 572.36 222.342 576.042 220.565 584.816Z" fill="#FFF0B4"/>
<path fill-rule="evenodd" clip-rule="evenodd" d="M415.486 531.084C413.865 522.118 408.123 518.586 400.478 516.031C408.144 513.477 413.898 509.969 415.083 501C418.406 508.181 421.536 514.598 430.718 515.645C423.076 518.627 417.262 522.31 415.486 531.084Z" fill="#2BC5F3"/>
<path d="M231.569 542.93C232.643 544.769 233.952 548.29 236.394 548.51C239.462 548.787 238.656 544.851 238.25 543.038C238.054 542.163 237.859 541.287 237.664 540.412C237.121 537.985 236.578 535.559 236.035 533.132C234.966 528.348 233.896 523.564 232.827 518.78C232.594 517.738 232.361 516.694 232.127 515.652C232.127 515.652 252.972 508.256 252.319 503.688C251.667 499.119 255.581 524.788 251.45 535.448C247.319 546.107 252.319 544.149 254.929 542.626C257.538 541.103 262.538 534.36 263.408 521.09C263.732 516.148 263.943 511.135 263.457 506.198C262.885 500.386 260.08 494.076 264.95 489.291C272.665 481.711 294.354 479.732 295.001 494.645C295.379 503.378 293.143 512.168 294.643 520.865C295.177 523.961 298.195 533.51 301.756 527.137C303.369 524.25 303.054 520.775 303.095 517.596C303.169 511.919 302.883 506.242 302.806 500.566C302.774 498.28 303.782 494.982 306.716 496.033C310.401 497.353 308.675 501.845 308.211 504.442C307.26 509.768 306.236 515.111 305.134 520.412C304.796 522.036 304.429 523.657 304.172 525.295C303.976 526.54 303.632 527.871 303.632 529.139C303.632 530.661 304.937 534.795 308.85 531.532C312.764 528.269 315.671 510.484 315.671 510.484C315.623 517.501 315.976 524.538 316.493 531.534C317.376 543.464 316.339 560.176 325.228 569.56C329.389 573.953 336.164 573.584 340.823 569.9C345.537 566.171 351.225 558.673 343.085 554.788C339.46 553.057 336.703 555.118 333.09 555.488C328.943 555.914 328.585 550.306 328.419 547.411C327.246 527.067 329.516 506.237 331.463 486.067C332.44 475.947 333.013 465.777 332.803 455.608C332.529 442.375 330.825 429.574 321.828 419.251C317.377 414.144 311.839 408.838 306.126 405.155C302.062 402.536 297.441 400.265 292.841 398.752C282.034 395.199 269.965 392.863 258.779 395.923C247.073 399.125 237.704 407.462 230.309 416.783C225.971 422.252 221.995 428.142 218.402 434.127C212.911 443.275 208.31 452.897 203.337 462.328C196.789 474.745 184.285 494.219 193.376 508.531C195.429 511.763 199.403 514.6 203.018 515.833C206.661 517.076 210.499 517.626 214.307 518.078C214.936 518.152 222.038 518.698 221.879 518.262C223.43 522.51 224.975 526.76 226.531 531.007C228.031 535.101 229.392 539.199 231.569 542.93Z" fill="black" stroke="#5A5A5A" stroke-width="2" stroke-miterlimit="10"/>
<path d="M187.202 491.563C186.434 494.01 186.067 496.617 187.053 499.068C188.365 502.327 190.804 504.948 192.96 507.637C194.649 509.743 196.4 511.89 198.541 513.542C200.538 515.082 202.922 516.017 205.338 516.631C210.808 518.02 216.58 518.084 222.144 517.414C230.553 516.402 239.358 515.702 246.345 510.328C248.1 508.979 249.825 507.363 251.218 505.627C252.036 504.609 252.795 503.564 253.457 502.459C254.07 501.436 254.6 500.362 255.011 499.211C255.847 496.879 256.345 494.438 257.027 492.056C257.591 490.079 256.872 488.415 255.754 486.778C253.612 483.641 251.547 480.447 249.46 477.272C249.129 476.77 248.85 476.234 248.541 475.717C247.216 473.492 246.906 470.978 246.411 468.49C244.927 461.05 240.957 454.94 236.026 449.41C235.416 448.724 234.53 448.201 233.673 447.849C232.236 447.257 231.136 447.659 230.246 448.928C228.279 451.735 226.681 454.746 226.116 458.175C225.442 462.288 224.92 466.43 224.383 470.567C224.28 471.359 224.087 471.759 223.205 471.859C220.373 472.178 217.543 472.542 214.736 473.021C213.702 473.199 213.284 472.934 213.077 471.939C211.976 466.633 209.537 461.868 206.99 457.181C205.676 454.761 204.114 452.449 201.89 450.714C199.901 449.164 198.235 449.479 196.738 451.522C195.495 453.216 195.061 455.191 194.407 457.117C192.555 462.567 191.811 468.178 191.79 473.923C191.784 475.484 191.974 477.14 191.539 478.586C190.225 482.952 188.568 487.209 187.202 491.563ZM197.681 476.305C197.324 476.238 196.785 475.728 196.778 475.411C196.694 472.254 196.457 469.069 196.773 465.947C196.976 463.938 197.659 460.924 199.086 459.44C200.08 458.406 200.812 458.969 201.339 459.99C202.61 462.458 203.202 465.68 203.662 468.4C204.049 470.699 204.02 473.022 204.138 475.343C204.208 476.722 203.899 477.083 202.607 476.986C200.957 476.861 199.311 476.609 197.681 476.305ZM234.187 470.241C233.013 465.817 231.992 461.259 232.276 456.653C232.328 455.79 232.631 454.928 233.599 454.734C234.572 454.537 235.111 455.235 235.543 456.005C235.6 456.109 235.662 456.216 235.71 456.325C236.605 458.338 237.568 460.325 238.37 462.377C239.054 464.13 239.58 465.947 240.121 467.752C240.625 469.439 240.322 470.105 238.668 470.687C237.747 471.009 236.743 471.097 235.775 471.275C234.939 471.427 234.413 471.095 234.187 470.241Z" fill="black"/>
<path d="M196.777 475.411C196.784 475.728 197.324 476.238 197.681 476.304C199.311 476.609 200.957 476.861 202.607 476.985C203.899 477.083 204.208 476.722 204.138 475.343C204.02 473.021 204.049 470.699 203.661 468.399C203.202 465.68 202.61 462.457 201.339 459.99C200.811 458.968 200.08 458.406 199.086 459.44C197.659 460.924 196.976 463.937 196.773 465.947C196.457 469.069 196.694 472.254 196.777 475.411Z" fill="#767676"/>
<path d="M232.275 456.653C231.992 461.258 233.013 465.817 234.187 470.241C234.413 471.095 234.939 471.428 235.775 471.275C236.743 471.097 237.747 471.01 238.667 470.687C240.321 470.105 240.625 469.439 240.121 467.752C239.579 465.947 239.054 464.13 238.37 462.377C237.568 460.325 236.605 458.338 235.71 456.325C235.661 456.215 235.6 456.109 235.542 456.005C235.11 455.235 234.571 454.537 233.599 454.734C232.631 454.928 232.328 455.79 232.275 456.653Z" fill="#767676"/>
<path d="M253.458 502.459C254.071 501.436 254.601 500.362 255.012 499.211C255.848 496.879 256.346 494.438 257.028 492.056C257.592 490.079 256.873 488.415 255.755 486.778C253.613 483.641 251.548 480.447 249.461 477.272C249.13 476.77 248.851 476.234 248.542 475.717C247.217 473.492 246.907 470.978 246.412 468.49C244.928 461.05 240.958 454.94 236.027 449.41C235.417 448.724 234.531 448.201 233.674 447.849C232.237 447.257 231.137 447.659 230.247 448.928C228.28 451.735 226.682 454.746 226.117 458.175C225.443 462.288 224.921 466.43 224.384 470.567C224.28 471.359 224.088 471.759 223.206 471.859C220.374 472.178 217.544 472.542 214.737 473.021C213.703 473.199 213.285 472.934 213.078 471.939C211.977 466.633 209.538 461.868 206.991 457.181C205.677 454.761 204.115 452.449 201.89 450.714C199.902 449.164 198.236 449.479 196.739 451.522C195.496 453.216 195.062 455.191 194.408 457.117C192.556 462.567 191.812 468.178 191.791 473.923C191.785 475.484 191.975 477.14 191.54 478.586C190.226 482.953 188.569 487.21 187.203 491.564C186.435 494.011 186.068 496.617 187.054 499.068C188.366 502.327 190.805 504.948 192.961 507.638C194.65 509.743 196.401 511.89 198.542 513.542C200.539 515.082 202.923 516.018 205.339 516.631C210.809 518.021 216.581 518.084 222.145 517.414C230.553 516.403 239.359 515.703 246.346 510.328C248.101 508.98 249.826 507.363 251.219 505.627C252.036 504.609 252.796 503.564 253.458 502.459Z" stroke="#575757" stroke-width="2" stroke-miterlimit="10"/>
<path d="M222.447 499.28L218.292 499.86L225.482 505.564" stroke="#767676" stroke-width="3" stroke-miterlimit="10"/>
<path d="M222.603 499.258L217.25 506.714" stroke="#767676" stroke-width="3" stroke-miterlimit="10"/>
<path d="M203.366 500.819C207.763 500.819 211.328 497.253 211.328 492.854C211.328 488.454 207.763 484.888 203.366 484.888C198.969 484.888 195.405 488.454 195.405 492.854C195.405 497.253 198.969 500.819 203.366 500.819Z" fill="#B0FF27"/>
<path d="M202.353 495.896C203.489 495.896 204.409 494.975 204.409 493.839C204.409 492.703 203.489 491.782 202.353 491.782C201.218 491.782 200.297 492.703 200.297 493.839C200.297 494.975 201.218 495.896 202.353 495.896Z" fill="black"/>
<path d="M236.285 494.514C240.682 494.514 244.247 490.947 244.247 486.548C244.247 482.149 240.682 478.582 236.285 478.582C231.888 478.582 228.323 482.149 228.323 486.548C228.323 490.947 231.888 494.514 236.285 494.514Z" fill="#B0FF27"/>
<path d="M235.504 489.59C236.768 489.59 237.792 488.565 237.792 487.301C237.792 486.036 236.768 485.011 235.504 485.011C234.24 485.011 233.216 486.036 233.216 487.301C233.216 488.565 234.24 489.59 235.504 489.59Z" fill="black"/>
</svg>
