<svg width="27" height="27" viewBox="0 0 27 27" fill="none" xmlns="http://www.w3.org/2000/svg">
<circle cx="13.4056" cy="13.46" r="13.2857" fill="#888888"/>
<path d="M16.0592 13.3677C16.0592 13.9305 15.6416 14.3918 15.1127 14.3918C14.5931 14.3918 14.1663 13.9305 14.1663 13.3677C14.1663 12.8049 14.5838 12.3436 15.1127 12.3436C15.6416 12.3436 16.0592 12.8049 16.0592 13.3677ZM11.7259 12.3436C11.197 12.3436 10.7795 12.8049 10.7795 13.3677C10.7795 13.9305 11.2063 14.3918 11.7259 14.3918C12.2548 14.3918 12.6724 13.9305 12.6724 13.3677C12.6817 12.8049 12.2548 12.3436 11.7259 12.3436ZM21.5245 6.50338V23.0552C19.1868 21.0011 19.9344 21.681 17.2191 19.1709L17.7108 20.8778H7.18855C6.14004 20.8778 5.28638 20.029 5.28638 18.9772V6.50338C5.28638 5.45159 6.14004 4.60278 7.18855 4.60278H19.6223C20.6708 4.60278 21.5245 5.45159 21.5245 6.50338ZM18.88 15.2498C18.88 12.279 17.5438 9.87094 17.5438 9.87094C16.2077 8.87451 14.9364 8.90219 14.9364 8.90219L14.8065 9.04981C16.384 9.52957 17.117 10.2215 17.117 10.2215C14.9128 9.02036 12.3237 9.02015 10.1856 9.95397C9.84232 10.1108 9.63819 10.2215 9.63819 10.2215C9.63819 10.2215 10.4083 9.49266 12.0785 9.0129L11.9858 8.90219C11.9858 8.90219 10.7145 8.87451 9.37838 9.87094C9.37838 9.87094 8.04221 12.279 8.04221 15.2498C8.04221 15.2498 8.82164 16.5876 10.8723 16.6522C10.8723 16.6522 11.2156 16.237 11.494 15.8864C10.3155 15.5358 9.87016 14.7977 9.87016 14.7977C10.0067 14.8927 10.2317 15.0159 10.2506 15.0284C11.8168 15.9005 14.0415 16.1862 16.0406 15.3513C16.3654 15.2314 16.7273 15.0561 17.1077 14.8069C17.1077 14.8069 16.6438 15.5635 15.4282 15.9049C15.7066 16.2555 16.0406 16.6522 16.0406 16.6522C18.0913 16.5876 18.88 15.2498 18.88 15.2498Z" fill="white"/>
</svg>
