<svg width="52" height="52" viewBox="0 0 52 52" fill="none" xmlns="http://www.w3.org/2000/svg">
<path fill-rule="evenodd" clip-rule="evenodd" d="M30.0831 31.0452C31.4839 31.0452 32.5897 29.8234 32.5897 28.3329C32.5897 26.8424 31.4839 25.6206 30.0831 25.6206C28.6824 25.6206 27.5765 26.8424 27.5765 28.3329C27.5765 29.8234 28.7069 31.0452 30.0831 31.0452ZM18.6067 28.3329C18.6067 26.8424 19.7126 25.6206 21.1133 25.6206C22.5141 25.6206 23.6445 26.8424 23.62 28.3329C23.62 29.8234 22.5141 31.0452 21.1133 31.0452C19.7372 31.0452 18.6067 29.8234 18.6067 28.3329ZM36.5217 19.072C36.5217 19.072 40.0605 25.4496 40.0605 33.3177C40.0605 33.3177 37.9716 36.8607 32.5406 37.0318C32.5406 37.0318 31.6559 35.9811 30.9187 35.0525C34.138 34.1485 35.3667 32.1448 35.3667 32.1448C34.3591 32.8045 33.4007 33.2688 32.5406 33.5864C27.2459 35.7976 21.3539 35.0409 17.206 32.7312C17.1939 32.7232 17.1497 32.698 17.0847 32.6608C16.8811 32.5445 16.4724 32.311 16.1984 32.1203C16.1984 32.1203 17.378 34.0751 20.499 35.0037C19.7617 35.9322 18.8525 37.0318 18.8525 37.0318C13.4215 36.8607 11.3572 33.3177 11.3572 33.3177C11.3572 25.4496 14.8959 19.072 14.8959 19.072C18.4347 16.433 21.8014 16.5063 21.8014 16.5063L22.0472 16.7995C17.6237 18.0702 15.584 20.0005 15.584 20.0005C15.584 20.0005 16.1247 19.7073 17.0339 19.2919C22.6965 16.8187 29.5537 16.8193 35.3913 20.0005C35.3913 20.0005 33.4499 18.1679 29.2722 16.8973L29.6162 16.5063C29.6162 16.5063 32.9829 16.433 36.5217 19.072Z" fill="white"/>
<circle cx="25.5556" cy="26.4445" r="24.5556" stroke="#888888" stroke-width="2"/>
</svg>
