<svg width="52" height="52" viewBox="0 0 52 52" fill="none" xmlns="http://www.w3.org/2000/svg">
<circle cx="25.5556" cy="26.4445" r="24.5556" stroke="#888888" stroke-width="2"/>
<path d="M39.236 20.0356C39.2568 20.3151 39.2568 20.5947 39.2568 20.8742C39.2568 29.3993 32.5229 39.2223 20.2153 39.2223C16.4235 39.2223 12.9012 38.1641 9.93823 36.3274C10.477 36.3872 10.9949 36.4072 11.5544 36.4072C14.683 36.4072 17.5631 35.389 19.863 33.652C16.9208 33.5921 14.4551 31.7353 13.6056 29.1798C14.02 29.2396 14.4344 29.2796 14.8696 29.2796C15.4704 29.2796 16.0713 29.1997 16.6307 29.06C13.5642 28.461 11.2642 25.8655 11.2642 22.731V22.6511C12.1552 23.1303 13.1912 23.4298 14.2893 23.4697C12.4867 22.3117 11.3057 20.3351 11.3057 18.099C11.3057 16.9011 11.6372 15.803 12.2173 14.8447C15.5118 18.7579 20.4639 21.3134 26.0167 21.5929C25.9131 21.1138 25.851 20.6147 25.851 20.1155C25.851 16.5617 28.8346 13.6667 32.5435 13.6667C34.4704 13.6667 36.2108 14.4454 37.4333 15.7032C38.9458 15.4237 40.3962 14.8846 41.6809 14.1459C41.1836 15.6433 40.1269 16.9012 38.7387 17.6997C40.0855 17.56 41.3908 17.2006 42.5926 16.7015C41.681 17.9792 40.5414 19.1172 39.236 20.0356Z" fill="white"/>
</svg>
