<svg width="52" height="52" viewBox="0 0 52 52" fill="none" xmlns="http://www.w3.org/2000/svg">
<circle cx="25.5556" cy="25.5556" r="24.5556" stroke="#888888" stroke-width="2"/>
<path d="M39.3731 18.2858C39.0281 16.9924 38.0115 15.9738 36.7208 15.6281C34.3813 15 25 15 25 15C25 15 15.6188 15 13.2792 15.6281C11.9885 15.9739 10.9719 16.9924 10.6269 18.2858C10 20.6301 10 25.5212 10 25.5212C10 25.5212 10 30.4124 10.6269 32.7566C10.9719 34.05 11.9885 35.0262 13.2792 35.3719C15.6188 36 25 36 25 36C25 36 34.3812 36 36.7208 35.3719C38.0115 35.0262 39.0281 34.05 39.3731 32.7566C40 30.4124 40 25.5212 40 25.5212C40 25.5212 40 20.6301 39.3731 18.2858ZM21.9318 29.962V21.0804L29.7727 25.5213L21.9318 29.962Z" fill="white"/>
</svg>
