<svg width="52" height="52" viewBox="0 0 52 52" fill="none" xmlns="http://www.w3.org/2000/svg">
<circle cx="25.5556" cy="25.5556" r="24.5556" stroke="#888888" stroke-width="2"/>
<path d="M25.5032 18.0648C21.3886 18.0648 18.0697 21.3844 18.0697 25.5C18.0697 29.6156 21.3886 32.9352 25.5032 32.9352C29.6179 32.9352 32.9368 29.6156 32.9368 25.5C32.9368 21.3844 29.6179 18.0648 25.5032 18.0648ZM25.5032 30.3339C22.8442 30.3339 20.6704 28.1661 20.6704 25.5C20.6704 22.8339 22.8378 20.6661 25.5032 20.6661C28.1687 20.6661 30.336 22.8339 30.336 25.5C30.336 28.1661 28.1622 30.3339 25.5032 30.3339ZM34.9747 17.7606C34.9747 18.7248 34.1984 19.4949 33.2409 19.4949C32.2769 19.4949 31.507 18.7183 31.507 17.7606C31.507 16.8029 32.2834 16.0264 33.2409 16.0264C34.1984 16.0264 34.9747 16.8029 34.9747 17.7606ZM39.8981 19.5208C39.7881 17.1976 39.2576 15.1399 37.5561 13.4444C35.8611 11.749 33.8037 11.2184 31.4812 11.1019C29.0874 10.966 21.9126 10.966 19.5189 11.1019C17.2027 11.2119 15.1454 11.7426 13.4439 13.438C11.7424 15.1334 11.2183 17.1912 11.1019 19.5143C10.966 21.9086 10.966 29.085 11.1019 31.4792C11.2119 33.8024 11.7424 35.8601 13.4439 37.5556C15.1454 39.251 17.1963 39.7816 19.5189 39.8981C21.9126 40.034 29.0874 40.034 31.4812 39.8981C33.8037 39.7881 35.8611 39.2574 37.5561 37.5556C39.2511 35.8601 39.7817 33.8024 39.8981 31.4792C40.034 29.085 40.034 21.915 39.8981 19.5208ZM36.8056 34.0483C36.301 35.3166 35.3241 36.2937 34.0496 36.8049C32.1411 37.562 27.6123 37.3873 25.5032 37.3873C23.3941 37.3873 18.859 37.5556 16.9569 36.8049C15.6888 36.3002 14.7119 35.323 14.2008 34.0483C13.4439 32.1393 13.6186 27.6096 13.6186 25.5C13.6186 23.3904 13.4504 18.8542 14.2008 16.9517C14.7055 15.6834 15.6824 14.7063 16.9569 14.1951C18.8654 13.438 23.3941 13.6127 25.5032 13.6127C27.6123 13.6127 32.1475 13.4444 34.0496 14.1951C35.3176 14.6998 36.2945 15.6769 36.8056 16.9517C37.5626 18.8607 37.3879 23.3904 37.3879 25.5C37.3879 27.6096 37.5626 32.1458 36.8056 34.0483Z" fill="white"/>
</svg>
