<svg width="28" height="27" viewBox="0 0 28 27" fill="none" xmlns="http://www.w3.org/2000/svg">
<circle cx="13.8343" cy="13.46" r="13.2857" fill="#888888"/>
<path d="M21.5327 9.75803C21.5444 9.91948 21.5444 10.081 21.5444 10.2424C21.5444 15.1669 17.7392 20.841 10.7844 20.841C8.64177 20.841 6.65136 20.2297 4.97705 19.1688C5.28148 19.2034 5.57416 19.2149 5.8903 19.2149C7.65824 19.2149 9.28573 18.6267 10.5854 17.6234C8.92278 17.5888 7.52947 16.5162 7.04942 15.04C7.28361 15.0746 7.51776 15.0977 7.76366 15.0977C8.10319 15.0977 8.44276 15.0515 8.75887 14.9708C7.02603 14.6248 5.72636 13.1256 5.72636 11.315V11.2688C6.2298 11.5456 6.81527 11.7186 7.43577 11.7417C6.41714 11.0727 5.74978 9.93102 5.74978 8.63934C5.74978 7.94739 5.93708 7.31309 6.26494 6.75952C8.12658 9.01993 10.9249 10.4961 14.0627 10.6576C14.0042 10.3808 13.9691 10.0925 13.9691 9.80418C13.9691 7.75133 15.6551 6.0791 17.7509 6.0791C18.8397 6.0791 19.8232 6.52888 20.5141 7.25544C21.3687 7.09399 22.1883 6.78259 22.9143 6.35589C22.6332 7.22086 22.0361 7.94743 21.2517 8.4087C22.0127 8.32801 22.7504 8.12038 23.4294 7.83209C22.9143 8.57016 22.2704 9.2275 21.5327 9.75803Z" fill="white"/>
</svg>
