<svg width="427" height="161" viewBox="0 0 427 161" fill="none" xmlns="http://www.w3.org/2000/svg">
<g opacity="0.7">
<path d="M423.713 136.139C423.954 142.097 424.219 148.053 423.706 154.069C423.386 156.119 423.148 157.252 423.148 157.252C411.759 160.59 400.841 151.982 390.603 148.294C386.51 147.064 381.734 145.837 377.811 145.099C375.8 144.744 373.792 144.438 371.781 144.178C357.705 142.348 343.387 142.602 329.324 143.181C326.603 142.807 323.866 142.416 321.124 142.006C293.698 137.923 265.708 132.451 244.94 126.129C242.865 125.498 240.86 124.859 238.941 124.213C223.41 118.169 207.031 112.021 190.146 108.177C187.693 107.672 185.169 107.177 182.574 106.687C164.442 103.275 143.028 100.285 121.499 97.745C119.906 97.5553 118.309 97.3686 116.716 97.188C114.905 96.6525 112.857 96.0374 111.492 96.6525C86.2429 110.791 63.7218 97.2645 39.9269 90.6758C37.7461 90.229 35.5619 89.7822 33.3744 89.3232C25.5073 88.044 17.3175 88.6591 9.12769 89.2742C9.24318 87.9399 9.4334 86.6271 9.66778 85.3265C10.4932 80.6657 11.176 76.363 10.4932 71.4451C10.0448 69.762 9.6474 68.088 9.29073 66.4202L9.35867 66.408C20.7313 67.1394 31.6488 66.5242 42.9093 68.3053C60.1075 71.0228 72.8593 84.4818 91.5182 80.4086C100.058 78.5449 107.001 74.891 116.064 75.448C117.755 75.552 119.464 75.7173 121.193 75.956C122.62 76.1212 124.057 76.2926 125.493 76.464C146.333 78.9826 166.877 81.9173 184.249 85.25C186.739 85.7274 189.164 86.214 191.552 86.7281C196.114 88.044 200.89 88.6591 205.666 90.5044C221.362 97.2645 237.059 104.028 253.779 106.92C256.193 107.55 258.687 108.193 261.238 108.82C281.653 113.857 305.984 118.175 329.328 121.431C332.049 121.814 334.759 122.178 337.467 122.521C339.709 122.763 341.954 122.968 344.199 123.145C353.071 123.424 361.941 123.717 370.898 124.403C373.14 124.571 375.382 124.77 377.644 125.012C379.52 125.079 381.364 125.3 383.185 125.633C385.009 125.967 386.809 126.41 388.623 126.934C400.138 129.844 411.036 137.813 423.713 136.139Z" fill="#6288B1"/>
<path d="M423.474 112.713C423.679 114.644 423.814 116.581 423.838 118.527C423.264 124.439 423.474 130.291 423.712 136.139C411.036 137.813 400.138 129.844 388.623 126.934C386.809 126.41 385.009 125.967 383.184 125.633C381.364 125.299 379.519 125.079 377.644 125.012C375.382 124.77 373.14 124.571 370.898 124.403C361.941 123.717 353.071 123.423 344.199 123.145C341.954 122.967 339.708 122.762 337.466 122.521C334.759 122.178 332.048 121.814 329.328 121.431C305.984 118.175 281.652 113.857 261.238 108.82C258.687 108.193 256.193 107.55 253.778 106.919C237.059 104.028 221.362 97.2644 205.665 90.5042C200.889 88.6589 196.113 88.0438 191.552 86.7279C189.164 86.2138 186.738 85.7272 184.248 85.2498C166.877 81.9172 146.333 78.9824 125.493 76.4638C124.056 76.2924 122.619 76.121 121.193 75.9558C119.464 75.7171 117.755 75.5518 116.063 75.4478C107.001 74.8908 100.058 78.5448 91.5178 80.4085C72.859 84.4817 60.1072 71.0226 42.909 68.3051C31.6485 66.5241 20.731 67.1392 9.35837 66.4078L9.29043 66.42C7.69391 58.9867 6.90924 51.6818 6.21289 44.4106C20.782 47.4525 36.4448 42.5592 49.2781 49.154C51.3875 49.9589 53.5105 50.724 55.6472 51.437C72.7401 57.1444 90.7909 59.461 108.984 53.3405C111.114 53.4047 113.305 53.5547 115.496 53.7261C117.691 53.9005 119.885 54.0872 122.072 54.2983C123.859 54.5095 125.643 54.7237 127.426 54.9441C153.775 58.1604 179.513 62.05 198.804 66.5639C200.947 67.0657 203.012 67.5737 204.996 68.097C222.728 73.2872 238.425 82.5109 257.097 86.0179C259.353 86.6024 261.662 87.1777 264.02 87.7408C280.525 91.6947 299.364 95.1803 318.074 98.0355C319.701 98.2834 321.328 98.5252 322.952 98.7639C325.775 99.7248 329.185 99.7248 332.599 100.34C339.147 100.524 345.761 100.487 352.382 100.527C354.586 100.542 356.794 100.563 359.016 100.6C364.722 100.964 370.395 101.365 376.021 101.95C377.892 102.145 379.76 102.363 381.642 102.635C396.028 103.41 408.974 116.266 423.474 112.713Z" fill="#E7EB8A"/>
<path d="M423.417 112.181C423.437 112.358 423.457 112.536 423.474 112.713C408.974 116.266 396.028 103.41 381.643 102.636C379.761 102.363 377.893 102.146 376.021 101.95C370.395 101.366 364.723 100.965 359.016 100.601C356.794 100.564 354.587 100.542 352.382 100.527C345.762 100.487 339.148 100.524 332.599 100.341C329.185 99.7254 325.775 99.7254 322.952 98.7645C321.328 98.5258 319.701 98.284 318.074 98.0361C299.365 95.1809 280.526 91.6953 264.02 87.7414C261.663 87.1783 259.353 86.603 257.097 86.0185C238.425 82.5114 222.728 73.2878 204.997 68.0976C203.013 67.5743 200.948 67.0663 198.804 66.5644C179.513 62.0506 153.776 58.161 127.426 54.9446C125.643 54.7243 123.86 54.5101 122.073 54.2989C119.885 54.0878 117.691 53.9011 115.497 53.7267C113.306 53.5553 111.115 53.4053 108.985 53.3411C90.7913 59.4616 72.7405 57.145 55.6476 51.4376C53.5109 50.7245 51.3879 49.9595 49.2785 49.1546C36.4452 42.5598 20.7824 47.4531 6.21329 44.4112C5.63582 38.3978 5.1229 32.412 4.2567 26.3955C4.18537 25.9824 4.11404 25.5692 4.03931 25.1591C13.187 26.3894 21.764 24.1462 31.034 25.2907C33.3473 25.4897 35.63 25.814 37.8685 26.319C59.1361 31.1236 78.1754 47.0063 99.5314 32.8006C100.992 32.4426 102.459 32.1427 103.934 31.907C109.837 30.9583 115.853 30.9798 122.073 32.5435C123.86 32.7547 125.643 32.9689 127.426 33.1893C147.919 35.6895 168.046 38.5998 185.054 41.8926C187.482 42.367 189.853 42.8597 192.207 43.4472C212.49 49.9258 232.963 58.5343 254.285 63.5256C256.748 64.1836 259.285 64.8323 261.883 65.4689C277.468 69.2881 295.292 72.688 313.193 75.5218C314.823 75.7789 316.46 76.0298 318.101 76.2746C320.353 76.4583 322.609 76.6572 324.861 76.8714C327.113 77.0887 329.365 77.3182 331.617 77.5569C333.747 77.713 335.877 77.8262 338.02 77.9088C348.615 78.3648 359.373 77.5171 370.039 77.5324C372.172 77.5324 374.305 77.5691 376.435 77.6548C378.341 77.6426 380.253 77.7191 382.166 77.8751C384.075 78.0312 385.987 78.2638 387.896 78.5668C398.793 78.8208 410.118 86.9794 420.784 85.3789C420.798 85.8655 420.808 86.3521 420.815 86.8386C420.238 95.4285 422.473 103.759 423.417 112.181Z" fill="#B9D17D"/>
<path d="M423.227 66.2644C423.312 68.1526 423.003 70.1418 422.483 72.186C421.997 75.133 419.949 77.5935 420.632 80.666C420.696 82.2481 420.751 83.8181 420.784 85.3788C410.119 86.9793 398.794 78.8206 387.897 78.5666C385.987 78.2637 384.075 78.0311 382.166 77.875C380.254 77.719 378.341 77.6425 376.436 77.6547C374.305 77.569 372.173 77.5323 370.039 77.5323C359.373 77.517 348.615 78.3647 338.021 77.9087C335.877 77.8261 333.747 77.7128 331.617 77.5568C329.365 77.3181 327.113 77.0885 324.861 76.8713C322.609 76.657 320.353 76.4581 318.101 76.2745C316.461 76.0297 314.824 75.7788 313.193 75.5217C295.292 72.6879 277.469 69.2879 261.883 65.4687C259.285 64.8322 256.748 64.1834 254.285 63.5255C232.963 58.5342 212.49 49.9257 192.208 43.4471C189.854 42.8596 187.483 42.3669 185.054 41.8925C168.046 38.5997 147.92 35.6894 127.427 33.1891C125.643 32.9688 123.86 32.7546 122.073 32.5434C115.853 30.9796 109.838 30.9582 103.934 31.9069C102.46 32.1425 100.992 32.4424 99.5316 32.8005C78.1757 47.0062 59.1364 31.1235 37.8687 26.3189C35.6302 25.8139 33.3475 25.4895 31.0343 25.2906C21.7643 24.1461 13.1872 26.3892 4.03954 25.159C3.76779 23.6503 3.49265 22.1661 3.33639 20.7063C2.6876 15.1612 3.83912 9.88834 8.44524 5.04395C11.1763 1.97145 22.0972 3.20167 30.3447 3.46486C32.3149 3.49546 34.2749 3.63011 36.2416 3.92083C38.205 4.21156 40.1786 4.65836 42.1555 5.31937C44.2208 5.9406 46.2827 6.58326 48.3446 7.20143C54.5302 9.06207 60.7363 10.733 67.1359 11.192C73.2774 11.8071 79.4189 8.73462 85.5604 7.5044C88.9742 7.5044 91.7019 6.88928 95.4384 7.85021C97.1878 8.0277 98.9474 8.21132 100.71 8.39799C131.598 11.6633 164.391 15.8926 189.419 21.0032C191.919 21.5143 194.344 22.0345 196.685 22.5792C217.27 30.2513 237.059 40.09 258.857 42.9605C260.984 43.4992 263.157 44.0286 265.372 44.5519C278.657 47.6886 293.389 50.5255 308.315 52.9768C309.942 53.2461 311.569 53.5062 313.2 53.7633C317.911 54.663 322.616 55.3056 327.31 55.7708C329.661 56.0034 332.008 56.19 334.386 56.34C344.784 57.711 355.083 56.0646 365.341 54.9353C367.393 54.7089 369.445 54.5038 371.493 54.3478C386.511 54.8435 402.887 49.9257 416.535 56.6889C421.314 59.1493 423.057 62.4942 423.227 66.2644Z" fill="#D86B68"/>
<path d="M3 25.0061C3.34648 25.0643 3.69296 25.1132 4.03943 25.1591C13.1871 26.3894 21.7642 24.1462 31.0342 25.2907C33.3474 25.4897 35.6301 25.814 37.8686 26.319C59.1362 31.1236 78.1756 47.0063 99.5315 32.8006C100.992 32.4426 102.46 32.1427 103.934 31.907C109.838 30.9583 115.853 30.9798 122.073 32.5435C123.86 32.7547 125.643 32.9689 127.426 33.1893C147.92 35.6895 168.046 38.5998 185.054 41.8926C187.483 42.367 189.854 42.8597 192.208 43.4472C212.49 49.9258 232.963 58.5343 254.285 63.5256C256.748 64.1836 259.285 64.8323 261.883 65.4689C277.468 69.2881 295.292 72.688 313.193 75.5218C314.824 75.7789 316.46 76.0298 318.101 76.2746C320.354 76.4583 322.609 76.6572 324.861 76.8714C327.113 77.0887 329.365 77.3182 331.617 77.5569C333.747 77.713 335.877 77.8262 338.021 77.9088C348.615 78.3648 359.373 77.5171 370.039 77.5324C372.172 77.5324 374.306 77.5691 376.435 77.6548C378.341 77.6426 380.253 77.7191 382.166 77.8751C384.075 78.0312 385.987 78.2638 387.896 78.5668C398.793 78.8208 410.119 86.9794 420.784 85.3789" stroke="black" stroke-width="5" stroke-miterlimit="10"/>
<path d="M6.14209 44.3958C6.16587 44.4019 6.18965 44.4049 6.21342 44.411C20.7825 47.4529 36.4453 42.5596 49.2786 49.1544C51.3881 49.9593 53.5111 50.7244 55.6477 51.4374C72.7406 57.1448 90.7915 59.4614 108.985 53.3409C111.115 53.4052 113.306 53.5551 115.497 53.7265C117.691 53.9009 119.885 54.0876 122.073 54.2987C123.86 54.5099 125.643 54.7241 127.426 54.9445C153.776 58.1608 179.514 62.0504 198.804 66.5643C200.948 67.0661 203.013 67.5741 204.997 68.0975C222.728 73.2876 238.425 82.5113 257.098 86.0183C259.353 86.6028 261.663 87.1782 264.02 87.7413C280.526 91.6951 299.365 95.1807 318.074 98.036C319.701 98.2838 321.328 98.5256 322.952 98.7643C325.775 99.7252 329.186 99.7252 332.599 100.34C339.148 100.524 345.762 100.487 352.382 100.527C354.587 100.542 356.795 100.564 359.016 100.6C364.723 100.965 370.396 101.366 376.021 101.95C377.893 102.146 379.761 102.363 381.643 102.636C396.028 103.41 408.974 116.266 423.475 112.713C423.509 112.704 423.539 112.698 423.573 112.688" stroke="black" stroke-width="5" stroke-miterlimit="10"/>
<path d="M9.35889 66.408C20.7315 67.1394 31.649 66.5242 42.9095 68.3053C60.1077 71.0228 72.8595 84.4818 91.5184 80.4086C100.058 78.5449 107.001 74.891 116.064 75.448C117.756 75.552 119.464 75.7173 121.193 75.956C122.62 76.1212 124.057 76.2926 125.494 76.464C146.333 78.9826 166.877 81.9173 184.249 85.25C186.739 85.7274 189.164 86.214 191.552 86.7281C196.114 88.044 200.89 88.6591 205.666 90.5044C221.362 97.2645 237.059 104.028 253.779 106.92C256.194 107.55 258.687 108.193 261.238 108.82C281.653 113.857 305.985 118.175 329.328 121.431C332.049 121.814 334.759 122.178 337.467 122.521C339.709 122.763 341.954 122.968 344.199 123.145C353.072 123.424 361.941 123.717 370.899 124.403C373.141 124.571 375.383 124.77 377.644 125.012C379.52 125.079 381.364 125.3 383.185 125.633C385.009 125.967 386.809 126.41 388.623 126.934C400.139 129.844 411.036 137.813 423.713 136.139C423.737 136.136 423.761 136.133 423.784 136.13" stroke="black" stroke-width="5" stroke-miterlimit="10"/>
<path d="M423.713 136.139C423.954 142.098 424.219 148.053 423.706 154.069C423.387 156.12 423.149 157.252 423.149 157.252C411.759 160.591 400.842 151.982 390.603 148.295C386.51 147.064 381.734 145.837 377.811 145.1C375.8 144.745 373.792 144.439 371.782 144.179C357.705 142.349 343.387 142.603 329.324 143.181C326.604 142.808 323.866 142.416 321.124 142.006C293.698 137.923 265.708 132.452 244.94 126.129C242.865 125.499 240.86 124.859 238.941 124.213C223.411 118.169 207.032 112.021 190.146 108.178C187.693 107.673 185.169 107.177 182.574 106.687C164.442 103.275 143.028 100.285 121.499 97.7453C119.906 97.5556 118.309 97.3689 116.716 97.1883C114.906 96.6528 112.857 96.0377 111.492 96.6528C86.2432 110.791 63.7221 97.2648 39.9272 90.6761C37.7464 90.2293 35.5623 89.7825 33.3747 89.3235C25.5076 88.0443 17.3178 88.6594 9.12801 89.2745C9.2435 87.9402 9.43373 86.6274 9.66811 85.3268C10.4935 80.666 11.1763 76.3633 10.4935 71.4454C10.0452 69.7623 9.64773 68.0883 9.29106 66.4205C7.69454 58.9871 6.90987 51.6823 6.21352 44.4111C5.63606 38.3977 5.12313 32.4118 4.25694 26.3954C4.1856 25.9822 4.11427 25.5691 4.03954 25.159C3.76779 23.6503 3.49265 22.1661 3.33639 20.7064C2.6876 15.1612 3.83913 9.88834 8.44525 5.04395C11.1763 1.97145 22.0972 3.20167 30.3447 3.46486C32.3149 3.49546 34.2749 3.63011 36.2416 3.92083C38.205 4.21156 40.1786 4.65836 42.1555 5.31937C44.2208 5.9406 46.2827 6.58326 48.3446 7.20143C54.5302 9.06207 60.7363 10.733 67.1359 11.192C73.2774 11.8071 79.4189 8.73462 85.5604 7.5044C88.9742 7.5044 91.7019 6.88928 95.4384 7.85021C97.1878 8.0277 98.9474 8.21132 100.71 8.39799C131.598 11.6633 164.391 15.8926 189.419 21.0032C191.919 21.5143 194.344 22.0345 196.685 22.5792C217.27 30.2513 237.059 40.09 258.857 42.9606C260.984 43.4992 263.157 44.0286 265.372 44.5519C278.657 47.6886 293.389 50.5255 308.315 52.9768C309.942 53.2461 311.569 53.5062 313.2 53.7633C317.911 54.663 322.616 55.3056 327.31 55.7708C329.661 56.0034 332.008 56.19 334.386 56.34C344.784 57.711 355.083 56.0646 365.341 54.9353C367.393 54.7089 369.445 54.5038 371.493 54.3478C386.511 54.8435 402.887 49.9257 416.535 56.6889C421.315 59.1493 423.057 62.4942 423.227 66.2644C423.312 68.1526 423.003 70.1418 422.483 72.186C421.997 75.133 419.949 77.5935 420.632 80.666C420.696 82.2481 420.751 83.8181 420.785 85.3788C420.798 85.8654 420.809 86.352 420.816 86.8385C420.238 95.4287 422.473 103.759 423.417 112.181C423.438 112.358 423.458 112.536 423.475 112.713C423.679 114.644 423.815 116.581 423.839 118.528C423.264 124.44 423.475 130.291 423.713 136.139Z" stroke="black" stroke-width="5" stroke-miterlimit="10"/>
</g>
</svg>
