<svg width="1396" height="631" viewBox="0 0 1396 631" fill="none" xmlns="http://www.w3.org/2000/svg">
<g opacity="0.8" filter="url(#filter0_f_148_8139)">
<path fill-rule="evenodd" clip-rule="evenodd" d="M899.111 487.529C903.923 487.062 908.761 486.045 913.546 486.257C920.434 486.566 923.53 483.393 924.277 476.998C924.894 471.736 925.58 466.48 926.235 461.221C927.033 461.148 927.831 461.073 928.629 461C929.339 464.611 930.224 468.2 930.73 471.841C932.651 485.66 932.712 485.75 946.811 486.494C949.945 486.66 953.074 486.935 956.208 487.158C956.291 487.974 956.373 488.788 956.456 489.604C953.092 490.249 949.746 490.994 946.363 491.52C935.169 493.266 933.613 494.718 932.87 505.914C932.224 515.644 932.052 525.406 931.468 535.142C931.28 538.233 930.438 541.283 929.894 544.353C929.106 544.426 928.319 544.5 927.532 544.574C926.843 542.06 925.762 539.58 925.533 537.024C924.547 525.96 923.511 514.886 923.088 503.791C922.832 497.059 919.89 494.029 913.349 493.455C908.534 493.033 903.781 491.922 899 491.118C899.037 489.922 899.074 488.725 899.111 487.529Z" fill="white"/>
<path fill-rule="evenodd" clip-rule="evenodd" d="M579.897 559C578.999 550.117 570.522 546.076 568 543.324C578.103 542.767 577.279 535.99 579.259 532C581.184 535.57 582.219 544.231 590 542.429C587.239 544.736 581.992 548.624 579.897 559Z" fill="white"/>
<path fill-rule="evenodd" clip-rule="evenodd" d="M205.897 28C204.999 19.1173 196.522 15.0764 194 12.3245C204.103 11.7666 203.279 4.99032 205.259 1C207.184 4.57022 208.219 13.231 216 11.4287C213.239 13.7362 207.992 17.6244 205.897 28Z" fill="white"/>
<path fill-rule="evenodd" clip-rule="evenodd" d="M1060.67 627C1059.67 616.905 1057.25 608.166 1047 606.56C1058.08 608.251 1059.5 593.914 1059.5 588C1060.75 592.609 1062.75 608.59 1072 605.98C1065.25 608.082 1063 615.208 1060.67 627Z" fill="white"/>
<path fill-rule="evenodd" clip-rule="evenodd" d="M76.1098 557.316C80.8843 556.958 85.6837 556.179 90.4301 556.342C97.2636 556.578 100.335 554.148 101.076 549.251C101.688 545.221 102.369 541.197 103.019 537.169C103.81 537.113 104.602 537.056 105.393 537C106.099 539.766 106.977 542.514 107.478 545.302C109.384 555.885 109.444 555.954 123.432 556.523C126.541 556.65 129.645 556.861 132.754 557.032C132.836 557.656 132.918 558.28 133 558.904C129.663 559.398 126.343 559.969 122.987 560.372C111.882 561.709 110.338 562.821 109.601 571.395C108.96 578.846 108.79 586.321 108.21 593.778C108.023 596.144 107.188 598.48 106.649 600.831C105.867 600.887 105.086 600.944 104.306 601C103.622 599.075 102.55 597.176 102.323 595.218C101.344 586.746 100.317 578.265 99.8973 569.769C99.6425 564.614 96.7246 562.293 90.2347 561.854C85.4583 561.531 80.7432 560.68 76 560.064C76.037 559.148 76.0734 558.232 76.1098 557.316Z" fill="white"/>
<path fill-rule="evenodd" clip-rule="evenodd" d="M1.05974 431.38C3.65639 431.162 6.2666 430.687 8.84796 430.786C12.5644 430.93 14.2351 429.45 14.638 426.465C14.9707 424.01 15.341 421.557 15.6945 419.103C16.1249 419.069 16.5556 419.034 16.9859 419C17.3694 420.685 17.847 422.36 18.1196 424.059C19.1564 430.508 19.1891 430.55 26.7963 430.897C28.4871 430.974 30.1755 431.103 31.8663 431.207C31.9108 431.587 31.9552 431.968 32 432.348C30.1852 432.649 28.3794 432.997 26.5545 433.242C20.5148 434.057 19.6753 434.735 19.2742 439.959C18.9258 444.5 18.8331 449.055 18.5177 453.599C18.4163 455.041 17.9619 456.464 17.6688 457.897C17.2433 457.931 16.8189 457.966 16.3944 458C16.0224 456.827 15.4393 455.67 15.316 454.477C14.7835 449.314 14.225 444.146 13.9968 438.968C13.8582 435.827 12.2712 434.413 8.74167 434.145C6.14398 433.948 3.57963 433.43 1 433.055C1.02015 432.496 1.03994 431.938 1.05974 431.38Z" fill="white"/>
<path fill-rule="evenodd" clip-rule="evenodd" d="M426.897 621C425.999 612.117 417.522 608.076 415 605.324C425.103 604.767 424.279 597.99 426.259 594C428.184 597.57 429.219 606.231 437 604.429C434.239 606.736 428.992 610.624 426.897 621Z" fill="white"/>
<path fill-rule="evenodd" clip-rule="evenodd" d="M1384.67 557C1383.67 546.905 1381.25 538.166 1371 536.56C1382.08 538.251 1383.5 523.914 1383.5 518C1384.75 522.609 1386.75 538.59 1396 535.98C1389.25 538.082 1387 545.208 1384.67 557Z" fill="white"/>
<path fill-rule="evenodd" clip-rule="evenodd" d="M1175.41 482C1173.77 467.763 1169.81 455.44 1153 453.175C1171.18 455.56 1173.5 435.34 1173.5 427C1175.55 433.5 1178.83 456.038 1194 452.357C1182.93 455.32 1179.24 465.37 1175.41 482Z" fill="white"/>
</g>
<defs>
<filter id="filter0_f_148_8139" x="0" y="0" width="1397" height="736" filterUnits="userSpaceOnUse" color-interpolation-filters="sRGB">
<feFlood flood-opacity="0" result="BackgroundImageFix"/>
<feBlend mode="normal" in="SourceGraphic" in2="BackgroundImageFix" result="shape"/>
<feGaussianBlur stdDeviation="0.5" result="effect1_foregroundBlur_148_8139"/>
</filter>
</defs>
</svg>
