<svg width="1326" height="287" viewBox="0 0 1326 287" fill="none" xmlns="http://www.w3.org/2000/svg">
<path d="M197.666 222.729C258.343 222.729 307.531 173.541 307.531 112.864C307.531 52.188 258.343 3 197.666 3C136.99 3 87.8018 52.188 87.8018 112.864C87.8018 173.541 136.99 222.729 197.666 222.729Z" fill="#0B0B0B" stroke="#4E4E4E" stroke-width="5" stroke-miterlimit="10"/>
<path d="M372.713 82.96C369.207 71.9137 341.675 69.7456 300.92 75.252C285.56 33.1002 245.131 3 197.668 3C136.991 3 87.8021 52.1877 87.8021 112.864C87.8021 121.1 88.7372 129.112 90.4539 136.829C34.4595 161.446 -1.0814 186.167 3.376 200.213C8.2527 215.572 59.5559 213.772 128.287 198.039C147.205 213.468 171.352 222.729 197.667 222.729C249.839 222.729 293.487 186.348 304.704 137.58C349.518 116.001 376.642 95.3358 372.713 82.96Z" stroke="#4E4E4E" stroke-width="5" stroke-miterlimit="10"/>
<path d="M3.37793 200.213C9.83685 220.558 97.7533 210.802 199.74 178.421C301.73 146.041 379.171 103.302 372.713 82.9585" stroke="#4E4E4E" stroke-width="5" stroke-miterlimit="10"/>
<path d="M1249.14 283.759C1281.38 283.759 1307.52 257.622 1307.52 225.38C1307.52 193.137 1281.38 167 1249.14 167C1216.89 167 1190.76 193.137 1190.76 225.38C1190.76 257.622 1216.89 283.759 1249.14 283.759Z" fill="#0B0B0B" stroke="#5E5E5E" stroke-width="5" stroke-miterlimit="10"/>
<path d="M1190.76 225.38C1190.76 218.142 1192.08 211.216 1194.49 204.82C1173.99 206.258 1160.16 211.221 1159.07 218.876C1157.89 227.125 1171.8 236.501 1193.77 243.885C1191.83 238.068 1190.76 231.85 1190.76 225.38Z" stroke="#5E5E5E" stroke-width="5" stroke-miterlimit="10"/>
<path d="M1307.51 225.288C1307.51 225.319 1307.52 225.35 1307.52 225.381C1307.52 236.164 1304.58 246.257 1299.48 254.926C1313.26 252.649 1322.08 248.281 1322.94 242.23C1323.72 236.775 1317.89 230.827 1307.51 225.288Z" stroke="#5E5E5E" stroke-width="5" stroke-miterlimit="10"/>
<path d="M1159.07 218.876C1160.91 205.947 1199.09 200.693 1244.34 207.143C1289.6 213.591 1324.79 229.299 1322.95 242.23" stroke="#5E5E5E" stroke-width="5" stroke-miterlimit="10"/>
<path d="M699.217 248.736C731.453 248.736 757.585 222.604 757.585 190.368C757.585 158.132 731.453 132 699.217 132C666.982 132 640.85 158.132 640.85 190.368C640.85 222.604 666.982 248.736 699.217 248.736Z" fill="#0B0B0B" stroke="#727272" stroke-width="5" stroke-miterlimit="10"/>
<path d="M794 199.62C794 212.954 750.795 223.764 697.5 223.764C644.204 223.764 601 212.955 601 199.62" stroke="#727272" stroke-width="5" stroke-miterlimit="10"/>
<path d="M794 199.62C794 191.873 779.418 184.98 756.749 180.562C752.083 152.998 728.109 132 699.218 132C670.557 132 646.739 152.663 641.805 179.9C617.117 184.274 601 191.476 601 199.62C601 208.555 620.402 216.357 649.241 220.532C659.466 237.435 678.021 248.736 699.218 248.736C720.651 248.736 739.374 237.176 749.524 219.958C776.274 215.666 794 208.161 794 199.62Z" stroke="#727272" stroke-width="5" stroke-miterlimit="10"/>
</svg>
