<svg width="490" height="122" viewBox="0 0 490 122" fill="none" xmlns="http://www.w3.org/2000/svg">
<g opacity="0.7">
<path d="M478.381 17.1779C478.251 17.0488 478.134 16.9193 478.03 16.7923L479.881 16.5786C481.953 19.2714 487.558 21.7796 485.959 24.6456C485.065 26.7346 481.211 27.954 479.799 30.0639C479.516 30.4862 479.333 30.9446 479.287 31.4527C478.467 32.9098 478.788 34.2859 479.515 35.6059L478.235 35.5681C478.061 35.5443 477.887 35.5203 477.712 35.4981C477.118 33.9793 476.964 32.4317 477.854 30.835C477.909 30.4295 478.046 30.0476 478.233 29.6835C479.168 27.8587 481.508 26.4666 483.29 24.8251C486.072 22.1058 480.692 19.5488 478.381 17.1779Z" fill="black"/>
<path d="M440.027 16.4066C452.777 15.8818 465.532 17.7414 478.38 17.1779C480.691 19.5488 486.071 22.106 483.29 24.8249C481.508 26.4664 479.168 27.8586 478.233 29.6832C478.046 30.0472 477.909 30.4292 477.853 30.8347C476.963 32.4315 477.117 33.979 477.712 35.4979C465.24 33.8327 452.139 34.526 439.513 33.1906C427.529 31.9228 415.025 29.4302 402.84 30.7529C395.926 31.5016 389.913 34.1264 383.186 35.2855C375.826 36.553 368.822 35.2111 361.818 33.6348C338.334 28.3476 313.092 29.4859 288.73 28.1375C268.108 26.9969 247.503 25.6423 226.834 24.9699C203.856 24.2229 180.862 23.6452 157.901 22.6397C138.484 21.7879 117.671 21.8937 100.691 14.6599C87.2127 8.91711 73.8908 11.465 59.0559 11.4882C50.9319 11.5017 42.6528 11.1069 34.7899 12.7791C27.8504 14.2557 21.5867 17.2383 14.0505 17.21C13.4307 17.2076 12.81 17.2117 12.1866 17.2298C11.6804 17.22 11.1807 17.2107 10.6806 17.2012C11.6801 14.253 7.94503 12.4631 5.81138 10.137C5.29221 9.61797 5.52619 8.93556 5.49467 8.34199C15.5113 6.06889 26.3717 5.16545 36.7074 3.93065C49.0365 2.45747 61.7429 1.24775 74.2275 2.56314C82.7839 3.46407 91.3806 4.6342 99.5885 6.50376C108.044 8.42992 116.308 10.9794 125.271 11.6663C158.305 14.2 192.022 13.9041 225.228 14.3676C237.134 14.5353 249.037 14.7613 260.945 14.8412C272.261 14.9161 283.076 12.7984 294.406 12.6258C307.014 12.4318 319.468 13.8869 332 14.5301C333.773 14.6198 335.545 14.6759 337.321 14.7071C338.209 14.7241 339.098 14.7332 340 14.7404C343.356 14.7945 346.824 14.6144 350.299 14.9736C353.102 15.2947 355.758 15.892 358.362 16.5347C359.229 16.7495 360.089 16.9687 360.949 17.1877C362.581 17.8392 364.448 17.8386 366.085 18.3804C366.941 18.5481 367.8 18.6969 368.67 18.8178C371.274 19.1818 373.928 19.2896 376.736 18.9133C388.487 17.6592 399.699 16.584 411.197 17.1009C412.196 17.1227 413.189 17.1414 414.183 17.158C416.17 17.1901 418.159 17.2112 420.139 17.2062C421.129 17.2035 422.12 17.1963 423.112 17.1797C426.942 17.1218 430.944 16.9425 434.661 16.6518C435.552 16.6087 436.444 16.5669 437.341 16.5257C438.233 16.4842 439.13 16.4446 440.027 16.4066Z" fill="#D97595"/>
<path d="M439.513 33.1907C452.139 34.5262 465.24 33.8328 477.712 35.498C477.8 35.721 477.894 35.9429 478.001 36.1659C478.273 36.7435 478.592 37.3181 478.931 37.8893C480.08 39.8696 483.556 41.4812 483.553 43.0936C483.352 46.5859 479.099 48.5679 474.726 50.5494C473.997 50.8786 473.268 51.2094 472.558 51.5478C472.124 51.7772 471.684 52.0719 471.351 52.4043C463.722 52.0683 456.114 51.6477 448.512 51.191C447.636 51.1382 446.755 51.085 445.88 51.0275C441.096 51.1543 437.62 48.6455 433.348 47.5717C429.607 46.6753 425.604 47.2129 421.864 48.1092C404.93 51.687 388.215 53.1935 370.708 50.4832C341.661 45.9862 311.071 43.0017 281.438 40.8362C257.574 39.0906 233.49 38.6756 209.565 37.3622C190.19 36.2985 170.76 35.4441 151.522 33.4869C132.305 31.5311 114.103 27.7806 95.5381 24.029C80.7883 21.0484 65.771 18.0916 50.2405 17.9747C35.5599 17.866 23.933 21.1956 10.7375 24.3217C10.5659 23.581 10.4974 22.6583 10.3453 21.9588C10.3462 20.7049 10.0792 19.6306 10.4895 18.4128C10.5583 18.0066 10.6193 17.6064 10.6793 17.2109C10.6799 17.2077 10.6802 17.2047 10.6808 17.2014C11.1806 17.2109 11.6803 17.2203 12.1868 17.2301C12.8102 17.2118 13.4309 17.2079 14.0507 17.2102C21.5869 17.2383 27.8506 14.256 34.7901 12.7794C42.6531 11.1072 50.9321 11.502 59.0561 11.4885C73.891 11.4652 87.2132 8.91739 100.691 14.6602C117.671 21.894 138.484 21.7881 157.901 22.64C180.862 23.6453 203.856 24.2231 226.834 24.9702C247.502 25.6426 268.109 26.997 288.731 28.1378C313.092 29.4861 338.335 28.3481 361.819 33.6351C368.823 35.2114 375.827 36.5533 383.186 35.2858C389.913 34.1267 395.925 31.5019 402.841 30.7532C415.026 29.4303 427.529 31.923 439.513 33.1907Z" fill="#D86B68"/>
<path d="M471.352 52.4043C471.685 52.0719 472.124 51.7773 472.559 51.5478C473.269 51.2093 473.998 50.8787 474.727 50.5495C479.099 48.568 483.353 46.5859 483.554 43.0936C483.556 41.4813 480.081 39.8696 478.931 37.8894C478.592 37.3182 478.274 36.7436 478.002 36.166C477.895 35.943 477.8 35.721 477.712 35.498C477.887 35.5203 478.061 35.5443 478.235 35.5681L479.515 35.6059C479.851 36.2328 480.282 36.8475 480.721 37.4516C481.057 37.9223 481.407 38.3862 481.777 38.8544C490.459 43.9648 484.338 47.3944 477.574 50.7624C476.731 51.1837 475.888 51.6064 475.109 52.037C472.87 52.944 473.41 54.5562 475.277 55.4526C480.083 57.4229 485.157 58.3179 489.428 60.6456C490.228 61.1838 490.232 61.9012 489.165 62.4381C483.403 65.4605 472.956 63.7618 469.581 68.0723L468.04 67.9023C467.644 67.8654 467.241 67.8279 466.845 67.7927C466.946 67.6247 467.065 67.4645 467.204 67.3091C471.804 63.5119 479.55 64.4078 485.691 62.6162C486.493 62.4374 487.293 62.0801 487.291 61.5413C487.291 60.6458 485.689 60.2881 484.625 59.7515C480.085 57.9602 475.275 57.0637 471.536 54.5565C470.475 53.8446 470.701 53.0533 471.352 52.4043Z" fill="black"/>
<path d="M5.49335 8.27661C5.49608 8.29918 5.49911 8.32013 5.49547 8.34216C4.52139 8.56247 3.55852 8.79496 2.60596 9.04392C2.62505 8.69788 3.14876 8.52593 3.6746 8.53721C4.44532 8.42634 5.49335 8.27661 5.49335 8.27661Z" fill="black"/>
<path d="M2.60581 9.0438C3.55838 8.79466 4.52125 8.56235 5.49533 8.34204C5.52685 8.93544 5.29287 9.61803 5.81204 10.1371C7.94569 12.4632 11.6808 14.2531 10.6812 17.2012C10.4903 17.1984 10.2997 17.1941 10.109 17.1912C9.4253 17.1779 8.74095 17.166 8.06358 17.1532C8.07055 17.1122 8.07722 17.073 8.08419 17.032C8.48213 14.7936 6.61064 13.1814 4.60338 11.7854C4.14271 11.3885 3.71082 10.9777 3.35108 10.5292C3.00436 10.0816 2.73614 9.59994 2.60278 9.06261C2.604 9.05634 2.60491 9.05007 2.60581 9.0438Z" fill="black"/>
<path d="M50.2411 17.9745C65.7716 18.0913 80.7892 21.0482 95.5387 24.0288C114.103 27.7803 132.305 31.5309 151.523 33.4868C170.76 35.4439 190.191 36.2981 209.566 37.362C233.491 38.6755 257.574 39.0905 281.439 40.8361C311.072 43.0017 341.661 45.9861 370.709 50.483C388.216 53.1933 404.931 51.6868 421.864 48.1091C425.605 47.2128 429.608 46.6751 433.349 47.5716C437.621 48.6453 441.096 51.1541 445.881 51.0273C446.755 51.0848 447.637 51.138 448.512 51.1908C456.115 51.6478 463.723 52.0681 471.352 52.4042C470.702 53.0531 470.475 53.8444 471.536 54.5562C475.275 57.0634 480.085 57.9598 484.625 59.7511C485.689 60.2877 487.291 60.6454 487.291 61.541C487.293 62.0797 486.493 62.4371 485.691 62.6158C479.55 64.4075 471.804 63.5115 467.204 67.3087C467.065 67.4642 466.946 67.6245 466.845 67.7923C466.39 67.7525 465.928 67.7126 465.473 67.6728C464.621 67.5996 463.775 67.5313 462.948 67.4676C455.711 66.9562 448.516 66.4336 441.33 65.8925C440.431 65.8235 439.532 65.7563 438.634 65.6874C435.789 65.814 433.087 65.0892 430.414 64.4302C429.876 64.2984 429.344 64.1687 428.81 64.0483C428.079 63.8467 427.331 63.6233 426.572 63.3908C425.82 63.159 425.056 62.9153 424.325 62.6737C419.461 60.1083 414.657 61.3617 410.383 64.0482C408.78 64.9444 404.509 65.6618 401.387 66.2924C400.369 66.5444 399.374 66.7681 398.384 66.9652C395.578 67.5249 392.737 67.8639 389.886 68.0205C388.934 68.0737 387.985 68.1063 387.033 68.1195C386.156 68.234 385.185 68.2012 384.206 68.1392C383.22 68.0765 382.226 67.9864 381.316 67.9838C378.607 67.8113 375.933 67.6318 373.206 67.1362C372.337 67.0089 371.469 66.8722 370.603 66.726C362.816 65.4114 355.202 63.3459 348.106 61.2961C347.231 61.0873 346.357 60.8704 345.491 60.6461C343.623 60.1081 341.489 60.8254 339.62 61.1874C339.035 61.2134 338.464 61.1987 337.898 61.1509C335.068 60.9153 332.361 59.8699 329.469 59.5709C308.434 56.8178 286.972 54.5897 265.655 53.1131C240.092 51.3422 214.534 49.5 188.978 47.6898C166.518 46.0994 143.976 43.8276 122.192 39.7657C113.301 38.1089 104.495 36.2623 95.5723 34.6813C70.7581 30.2787 41.6677 23.9271 16.2995 29.7871C15.5721 28.2743 13.9909 26.8171 11.416 25.5405C11.0666 25.3827 10.8696 24.9095 10.738 24.3213C23.9336 21.1955 35.5602 17.8658 50.2411 17.9745Z" fill="#EEDDA1"/>
<path d="M10.6814 17.2013C10.6808 17.2045 10.6805 17.2076 10.6799 17.2108C10.6196 17.6063 10.5587 18.0064 10.4902 18.4126C10.0798 19.6304 10.3468 20.7047 10.3459 21.9587C10.4981 22.6581 10.5666 23.5811 10.7381 24.3215C9.63158 24.585 8.51172 24.8474 7.37307 25.1049L7.33397 25.1021C7.14485 23.9171 7.14788 22.6904 7.36186 21.3852C7.47399 20.6444 7.59674 19.9172 7.71554 19.2136C7.83586 18.5008 7.95225 17.8128 8.06378 17.1533C8.74115 17.166 9.42549 17.178 10.1092 17.1913C10.2999 17.1942 10.4905 17.1984 10.6814 17.2013Z" fill="black"/>
<path d="M7.3729 25.105C8.51155 24.8474 9.63141 24.585 10.7379 24.3215C10.8695 24.9096 11.0665 25.3829 11.4159 25.5407C13.9908 26.8173 15.572 28.2745 16.2994 29.7873C14.2948 30.2494 12.317 30.7885 10.3642 31.4106L9.93721 31.4C8.61035 29.2969 7.66627 27.2711 7.3335 25.1021L7.3729 25.105Z" fill="black"/>
<path d="M16.2995 29.7872C41.6678 23.9272 70.7581 30.2789 95.5727 34.6816C104.496 36.2626 113.301 38.1092 122.192 39.766C143.976 43.8279 166.519 46.0998 188.978 47.6901C214.535 49.5004 240.092 51.3427 265.655 53.1134C286.973 54.59 308.434 56.8181 329.47 59.5712C332.362 59.8702 335.068 60.9156 337.898 61.1512C338.464 61.199 339.036 61.2137 339.621 61.1877C341.49 60.8257 343.623 60.1084 345.491 60.6464C346.357 60.8707 347.231 61.0876 348.106 61.2964C355.202 63.3462 362.816 65.4119 370.603 66.7264C371.469 66.8725 372.337 67.0092 373.206 67.1365C375.933 67.6323 378.607 67.8118 381.316 67.9841C382.226 67.9869 383.22 68.077 384.206 68.1395C385.185 68.2015 386.156 68.2341 387.033 68.1198C387.985 68.1066 388.934 68.074 389.887 68.0208C392.737 67.8643 395.578 67.5252 398.384 66.9655C399.374 66.7685 400.369 66.5447 401.388 66.2927C404.509 65.6621 408.781 64.9447 410.383 64.0485C414.658 61.362 419.461 60.1086 424.325 62.674C425.056 62.9156 425.82 63.1594 426.573 63.3911C427.332 63.6236 428.079 63.847 428.81 64.0486C429.344 64.169 429.876 64.2987 430.415 64.4305C433.088 65.0895 435.789 65.8143 438.634 65.6877C439.533 65.7566 440.432 65.8238 441.331 65.8928C448.516 66.4339 455.711 66.9563 462.948 67.4679C463.775 67.5315 464.621 67.5997 465.473 67.6731C465.928 67.7129 466.39 67.7528 466.845 67.7926C466.648 68.1032 466.505 68.4354 466.412 68.7935C466.316 69.2851 466.232 69.7763 466.149 70.2688C465.444 74.443 464.742 78.5968 464.061 82.6214C464.051 82.6859 464.04 82.752 464.029 82.8166C463.749 82.7914 463.418 82.7624 463.047 82.7307C462.3 82.6633 461.37 82.5809 460.271 82.488C459.567 82.3998 458.868 82.3569 458.177 82.3461C457.154 82.5438 456.13 82.7111 455.11 82.8517C454.09 82.9922 453.075 83.1045 452.057 83.1926C451.033 83.239 450.021 83.2558 449.013 83.2488C447.998 83.2417 446.994 83.2096 445.987 83.1568C444.497 83.0368 443.014 82.8679 441.53 82.6733C440.787 82.5761 440.053 82.4729 439.312 82.3645C438.572 82.2578 437.832 82.1464 437.092 82.0334C436.353 81.922 435.613 81.8073 434.867 81.6954C432.647 81.3596 430.425 81.0411 428.188 80.8106C427.198 80.6571 426.215 80.5009 425.237 80.3513C423.275 80.0535 421.315 79.7843 419.351 79.5754C418.373 79.4705 417.392 79.3813 416.408 79.3109C411.373 78.6512 407.061 79.8038 402.663 81.6621C402.038 81.927 401.404 82.2075 400.773 82.4992C398.904 83.2152 397.031 84.1091 394.894 84.1091C391.826 84.1094 388.953 83.9314 386.085 83.6853C385.364 83.6228 384.649 83.558 383.928 83.491C379.945 82.8557 375.668 83.2139 371.87 82.0728C370.992 81.8763 370.132 81.6621 369.287 81.4314C363.343 79.8242 357.877 77.3073 351.884 75.6423C351.059 75.4084 350.241 75.1765 349.436 74.9472C348.623 74.7174 347.817 74.4926 347.016 74.2748C346.07 74.0543 345.116 73.8428 344.162 73.6359C324.083 69.3181 302.517 68.0607 281.753 66.6644C281.038 66.601 280.323 66.5376 279.608 66.4742C230.877 62.156 179.363 57.5899 134.22 53.5896C133.219 53.5006 132.218 53.4132 131.224 53.3246C129.639 53.177 128.011 53.0867 126.361 53.0138C125.543 52.978 124.71 52.9457 123.891 52.9115C118.24 52.2291 109.156 52.2282 106.931 48.1013C106.828 47.6157 106.724 47.1013 106.506 46.6314C106.289 46.1614 105.952 45.7353 105.417 45.4222C95.005 38.7958 80.0525 41.6612 66.9651 43.0932C62.4275 43.6316 58.1493 42.5557 54.1945 41.4413C53.5459 41.3349 52.8904 41.2727 52.2281 41.2482C47.5462 41.0782 42.1527 42.7762 37.5517 43.6891C36.735 43.8381 35.9561 43.9565 35.1747 44.0523C34.4352 44.1336 33.693 44.1926 32.9493 44.221C32.3316 44.2843 31.6215 44.2705 30.9326 44.1293C30.2437 43.9882 29.5766 43.7197 29.0454 43.2728C28.5077 42.8242 28.2243 42.2761 28.0443 41.7004C27.8649 41.1231 27.7955 40.519 27.6788 39.9591C27.5621 39.3992 27.4203 38.8728 27.172 38.4291C26.7714 37.7163 25.8364 37.3149 24.7714 37.1367C23.7064 36.9585 22.5047 37.0045 21.564 37.1827C20.8542 37.3618 20.1353 37.5164 19.4133 37.65C18.685 37.7833 17.9531 37.8972 17.2179 37.9932C15.6928 38.0777 14.3562 38.2574 12.779 38.4159C12.5054 38.4343 12.2386 38.4513 11.9656 38.4664C12.1695 38.2359 12.3805 38.0029 12.5981 37.7686C16.131 35.4315 17.6191 32.5206 16.2995 29.7872Z" fill="#E7EB8A"/>
<path d="M10.3647 31.4106C12.3171 30.7884 14.2953 30.2495 16.2998 29.7874C17.6194 32.5208 16.131 35.4317 12.5957 37.7689C12.3781 38.0034 12.1671 38.2362 11.9631 38.4667C11.9628 38.4683 11.9628 38.4683 11.9628 38.4683C11.4897 38.4959 11.0169 38.5219 10.5444 38.5464C9.87859 38.5822 9.21334 38.6148 8.5481 38.6474C9.82404 36.9928 12.218 34.8508 11.42 33.6006C10.8866 32.8525 10.3835 32.121 9.938 31.4002L10.3647 31.4106Z" fill="black"/>
<path d="M466.844 67.7927C467.241 67.828 467.644 67.8654 468.04 67.9023L469.581 68.0723C469.354 68.36 469.163 68.6741 469.006 69.0196C468.916 69.5134 468.832 70.0062 468.749 70.5003C468.051 74.6242 467.358 78.7276 466.686 82.705C466.668 82.8121 466.649 82.9206 466.631 83.0277L465.328 82.9324C465.328 82.9324 464.886 82.8921 464.028 82.8167C464.039 82.7523 464.05 82.6862 464.061 82.6215C464.741 78.5969 465.443 74.4431 466.148 70.2689C466.231 69.7764 466.315 69.2853 466.411 68.7936C466.505 68.4356 466.647 68.1033 466.844 67.7927Z" fill="black"/>
<path d="M21.5614 37.1826C22.5022 37.0044 23.7039 36.9583 24.7689 37.1365C25.8342 37.3147 26.7692 37.716 27.1695 38.429C27.4177 38.8727 27.5599 39.3991 27.6763 39.959C27.7927 40.5189 27.8621 41.123 28.0418 41.7003C28.2215 42.2759 28.5049 42.824 29.0428 43.2727C29.5741 43.7196 30.2415 43.9881 30.9301 44.1292C31.6187 44.2703 32.3291 44.284 32.9467 44.2209C33.6905 44.1924 34.4327 44.1335 35.1722 44.0522C35.9538 43.9564 36.7324 43.838 37.5492 43.689C42.1502 42.776 47.5437 41.0781 52.2256 41.248C52.8878 41.2726 53.5437 41.3347 54.192 41.4411C58.1468 42.5555 62.425 43.6315 66.9626 43.093C80.05 41.6611 95.0025 38.7956 105.415 45.422C105.949 45.7351 106.286 46.1612 106.504 46.6312C106.721 47.1012 106.825 47.6156 106.928 48.1012C109.153 52.2281 118.238 52.2291 123.889 52.9114C124.708 52.9456 125.54 52.9778 126.359 53.0136C128.009 53.0865 129.636 53.1768 131.221 53.3244C132.216 53.4131 133.217 53.5005 134.218 53.5895C179.361 57.5898 230.874 62.1557 279.606 66.474C280.321 66.5374 281.036 66.6008 281.751 66.6642C302.515 68.0606 324.08 69.3178 344.159 73.6358C345.114 73.8427 346.067 74.0542 347.013 74.2747C347.814 74.4925 348.621 74.7173 349.433 74.9471C350.239 75.1763 351.057 75.4083 351.882 75.6422C357.875 77.3072 363.341 79.8242 369.284 81.4312C370.129 81.6619 370.99 81.8762 371.867 82.0726C375.666 83.2138 379.942 82.8555 383.925 83.4908C384.646 83.5578 385.361 83.6227 386.083 83.6852C388.951 83.9313 391.823 84.1093 394.891 84.1089C397.029 84.1089 398.902 83.215 400.771 82.4991C401.401 82.2073 402.036 81.927 402.661 81.6619C407.059 79.8037 411.37 78.6511 416.405 79.3107C417.389 79.3811 418.37 79.4703 419.349 79.5753C421.312 79.7841 423.273 80.0533 425.235 80.3512C426.213 80.5008 427.195 80.6569 428.185 80.8104C430.423 81.041 432.645 81.3594 434.864 81.6952C435.611 81.8072 436.35 81.9218 437.09 82.0332C437.829 82.1462 438.569 82.2577 439.31 82.3644C440.05 82.4726 440.785 82.5759 441.527 82.6732C443.011 82.8677 444.494 83.0366 445.985 83.1566C446.991 83.2095 447.995 83.2415 449.01 83.2487C450.018 83.2555 451.031 83.2386 452.055 83.1924C453.072 83.1043 454.088 82.992 455.107 82.8516C456.127 82.711 457.152 82.5435 458.175 82.346C458.866 82.3567 459.564 82.3997 460.269 82.4878C461.368 82.581 462.297 82.6632 463.045 82.7305C463.416 82.7624 463.747 82.7914 464.026 82.8165C463.952 83.254 463.879 83.69 463.805 84.1245C464.728 88.5006 470.566 90.9668 473.984 94.5149C474.466 95.0218 474.904 95.5509 475.272 96.1099C475.175 96.8789 474.599 97.3961 473.806 97.7938C472.935 98.2272 471.797 98.5154 470.728 98.8308C470.047 99.0312 469.398 99.2451 468.871 99.5139C468.333 99.693 468.061 100.051 468.33 100.408C468.555 100.917 468.99 101.344 469.6 101.72C470.154 102.073 470.807 102.342 471.509 102.564C460.261 101.973 451.362 100.872 440.933 97.7432C430.064 94.4807 418.679 96.5756 407.448 97.5222C396.01 98.4869 384.898 97.0931 373.951 94.8782C336.779 87.3591 299.343 83.1143 261.037 79.0978C228.235 75.6569 195.565 71.6314 162.736 68.273C146.893 66.653 131.7 63.1701 115.929 61.5125C108.992 60.7842 101.919 60.9046 94.998 60.1279C80.0155 58.4466 69.613 50.7456 53.5973 51.9764C44.8742 52.647 36.1045 53.2443 27.3156 52.8983C19.89 52.6074 12.7029 51.373 5.37573 50.6528C5.39301 50.5903 5.40392 50.5258 5.42119 50.4619C5.51151 46.4132 8.08764 42.8824 11.0575 39.4807C11.3521 39.1437 11.653 38.8071 11.9609 38.468C11.9609 38.468 11.9609 38.468 11.9612 38.4664C12.2343 38.4514 12.501 38.4342 12.7747 38.4159C14.3519 38.2572 15.6885 38.0776 17.2135 37.9932C17.9488 37.8972 18.6807 37.7833 19.409 37.65C20.1327 37.5162 20.8516 37.3617 21.5614 37.1826Z" fill="#B9D17D"/>
<path d="M10.544 38.5461C11.0165 38.5216 11.4893 38.4958 11.9624 38.468C11.6545 38.8073 11.3535 39.1436 11.0589 39.4807C8.0891 42.8822 5.51327 46.413 5.42265 50.4618C5.40507 50.5258 5.39416 50.5904 5.37719 50.6528C4.42978 50.5596 3.48085 50.4744 2.52344 50.4013C2.58163 50.0964 2.64012 49.7884 2.70649 49.4746C2.97684 46.1576 5.06199 43.3049 7.23413 40.4074C7.66874 39.8273 8.11001 39.2462 8.53917 38.6591C8.53977 38.6545 8.54705 38.6518 8.54765 38.6471C9.2132 38.6144 9.87815 38.5819 10.544 38.5461Z" fill="black"/>
<path d="M53.5992 51.9763C69.6149 50.7455 80.0173 58.4466 94.9998 60.1279C101.921 60.9047 108.994 60.7841 115.93 61.5124C131.702 63.1701 146.895 66.6529 162.738 68.2729C195.567 71.6313 228.237 75.6568 261.039 79.0977C299.345 83.1144 336.78 87.359 373.953 94.8781C384.9 97.093 396.012 98.4866 407.45 97.5221C418.681 96.5757 430.066 94.4808 440.934 97.7432C451.364 100.872 460.263 101.973 471.511 102.564C473.246 103.113 475.28 103.368 476.891 103.871C478.157 104.267 479.166 104.817 479.55 105.782C480.66 108.39 478.765 109.882 475.753 110.994C471.524 112.554 465.087 113.363 461.659 115.455C460.324 116.171 458.716 116.707 458.326 117.923C458.109 118.501 457.976 118.94 457.895 119.224C457.746 119.205 457.578 119.183 457.398 119.159C455.582 118.739 453.708 118.427 451.807 118.162C450.859 118.029 449.903 117.908 448.946 117.792C438.679 117.101 424.499 108.719 414.441 111.391C408.211 113.047 401.919 114.634 394.94 114.356C388.714 114.108 382.728 114.587 376.646 113.881C365.743 112.612 354.01 112.198 343.671 109.317C336.514 107.321 330.012 104.528 322.423 103.095C311.771 101.087 300.786 98.4356 289.961 96.9051C288.84 96.7468 287.763 96.6012 286.685 96.457C271.108 94.3864 255.536 92.3324 239.96 90.2572C212.558 86.6039 185.119 83.053 157.747 79.3015C140.75 76.9711 123.889 75.4745 106.779 73.6919C103.084 73.3056 99.6978 72.6135 97.3304 70.5761C95.3614 68.8755 94.9743 66.7168 92.2664 65.3285C85.3332 61.7721 75.3005 65.8575 68.0125 66.8608C61.0145 67.825 54.2132 67.2355 47.5404 65.6133C41.4062 64.1213 35.7729 61.6557 29.0319 61.646C19.8836 61.6324 11.0975 60.1379 2.27954 58.676C3.89735 58.4723 4.36954 57.3962 4.49926 56.0832C4.55715 55.5441 4.55624 54.9655 4.56139 54.3875C4.68474 53.7368 4.82022 53.0902 4.96236 52.444C5.09601 51.8483 5.23604 51.2545 5.37727 50.6531C12.7041 51.3733 19.8912 52.6077 27.3171 52.8986C36.1063 53.2443 44.8764 52.6469 53.5992 51.9763Z" fill="#6288B1"/>
<path d="M463.807 84.1245C463.88 83.6899 463.954 83.2542 464.028 82.8164C464.886 82.8918 465.328 82.9321 465.328 82.9321L466.631 83.0274C466.553 83.487 466.476 83.9466 466.399 84.4015C466.452 88.6916 472.189 91.2844 475.405 94.6248C475.866 95.1031 476.277 95.5953 476.612 96.1106C476.611 96.469 476.876 97.0063 476.612 97.0061C475.78 97.283 475.07 97.5834 474.468 97.9044L473.807 97.7938C474.6 97.396 475.176 96.8789 475.273 96.11C474.905 95.551 474.467 95.0219 473.985 94.515C470.568 90.9667 464.73 88.5005 463.807 84.1245Z" fill="black"/>
<path d="M2.27988 58.6756C1.91559 58.7239 1.4931 58.7248 1 58.6761C1.40157 57.1981 1.5025 55.8209 1.73526 54.3638C1.81103 53.877 1.90801 53.3807 2.03409 52.8688C2.1338 52.3184 2.24594 51.7705 2.35202 51.2222C2.40475 50.9489 2.46415 50.6758 2.52356 50.4014C3.48097 50.4744 4.4299 50.5599 5.37731 50.6528C5.23607 51.2543 5.09605 51.848 4.9624 52.4438C4.82026 53.0898 4.68448 53.7366 4.56143 54.3873C4.55598 54.9653 4.55719 55.5438 4.4993 56.083C4.36989 57.396 3.8977 58.4721 2.27988 58.6756Z" fill="black"/>
<path d="M471.51 102.564C470.809 102.342 470.155 102.073 469.601 101.72C468.991 101.344 468.556 100.917 468.332 100.408C468.062 100.051 468.334 99.6932 468.872 99.5141C469.399 99.2451 470.049 99.0314 470.729 98.831C471.798 98.5156 472.936 98.2274 473.807 97.7939L474.468 97.9045C473.773 98.2711 473.218 98.6671 472.803 99.0893C472.413 99.4846 472.145 99.9016 472.103 100.343C472.797 102.091 474.781 102.961 477.045 103.662L476.89 103.872C475.28 103.369 473.245 103.113 471.51 102.564Z" fill="black"/>
<path d="M476.891 103.872L477.045 103.662C479.045 104.279 481.266 104.764 483.017 105.604C484.621 106.499 482.756 107.932 481.949 108.649C480.43 109.711 478.639 110.51 476.729 111.193L475.753 110.994C478.765 109.882 480.659 108.391 479.55 105.782C479.166 104.817 478.157 104.267 476.891 103.872Z" fill="black"/>
<path d="M457.895 119.224C457.976 118.94 458.109 118.502 458.326 117.923C458.716 116.707 460.324 116.172 461.659 115.455C465.087 113.363 471.524 112.554 475.753 110.994L476.729 111.193C470.921 113.275 464.049 114.272 460.755 118.307C460.483 119.405 460.383 120 460.383 120L457.809 119.613C457.809 119.613 457.832 119.481 457.895 119.224Z" fill="black"/>
<path d="M1.07959 58.4778C1.47753 58.5435 1.88183 58.6096 2.27977 58.6755C11.0977 60.1374 19.8836 61.6319 29.0322 61.6455C35.7732 61.6554 41.4064 64.1209 47.5406 65.6129C54.2137 67.2351 61.0147 67.8245 68.0127 66.8604C75.3011 65.857 85.3335 61.7716 92.2666 65.3281C94.9746 66.7164 95.3616 68.875 97.3307 70.5757C99.698 72.6129 103.084 73.305 106.78 73.6915C123.889 75.474 140.75 76.9708 157.747 79.3011C185.119 83.0525 212.558 86.6034 239.961 90.2568C255.536 92.3319 271.109 94.3862 286.685 96.4565C287.763 96.6007 288.84 96.7463 289.961 96.9046C300.786 98.4351 311.772 101.086 322.423 103.095C330.012 104.527 336.514 107.321 343.671 109.316C354.011 112.198 365.744 112.612 376.646 113.88C382.728 114.586 388.714 114.107 394.94 114.355C401.919 114.634 408.211 113.046 414.442 111.39C424.499 108.719 438.679 117.101 448.946 117.792C449.903 117.908 450.859 118.029 451.807 118.162C453.708 118.427 455.582 118.739 457.398 119.158C457.579 119.183 457.746 119.205 457.895 119.223C458.734 119.336 459.166 119.393 459.166 119.393" stroke="black" stroke-width="4" stroke-miterlimit="10"/>
<path d="M2.48877 9.07396C2.52999 9.06429 2.56484 9.05409 2.60606 9.04423C3.55862 8.79509 4.52149 8.56278 5.49557 8.34247C15.5122 6.06937 26.3726 5.16594 36.7083 3.93115C49.0374 2.45796 61.7438 1.24824 74.2284 2.56363C82.7848 3.46456 91.3815 4.63469 99.5894 6.50426C108.045 8.43042 116.309 10.9799 125.272 11.6668C158.306 14.2005 192.023 13.9046 225.229 14.3681C237.135 14.5358 249.038 14.7618 260.946 14.8417C272.262 14.9166 283.077 12.7989 294.407 12.6263C307.015 12.4323 319.469 13.8874 332.001 14.5306C333.774 14.6203 335.545 14.6764 337.322 14.7075C338.21 14.7246 339.099 14.7337 340.001 14.7409C343.357 14.795 346.825 14.6149 350.3 14.9741C353.103 15.2952 355.759 15.8925 358.362 16.5352C359.23 16.75 360.09 16.9692 360.95 17.1882C362.582 17.8397 364.449 17.8391 366.086 18.3809C366.942 18.5486 367.801 18.6974 368.671 18.8183C371.275 19.1823 373.929 19.2901 376.737 18.9138C388.487 17.6597 399.7 16.5844 411.198 17.1014C412.197 17.1232 413.19 17.1418 414.184 17.1585C416.171 17.1906 418.16 17.2117 420.14 17.2067C421.13 17.204 422.121 17.1968 423.113 17.1802C426.943 17.1223 430.945 16.943 434.662 16.6523C435.553 16.6092 436.444 16.5674 437.342 16.5262C438.233 16.4847 439.13 16.4451 440.027 16.4071C452.777 15.8823 465.532 17.7419 478.38 17.1784C478.713 17.1644 479.052 17.1494 479.384 17.1306" stroke="black" stroke-width="4" stroke-miterlimit="10"/>
<path d="M10.3647 31.4106C12.3172 30.7884 14.2953 30.2494 16.2999 29.7873C41.6678 23.9272 70.7581 30.2788 95.5727 34.6815C104.496 36.2625 113.301 38.1092 122.192 39.7659C143.976 43.8278 166.519 46.0997 188.978 47.69C214.535 49.5003 240.092 51.3426 265.655 53.1133C286.973 54.5899 308.434 56.818 329.47 59.5712C332.362 59.8701 335.068 60.9156 337.898 61.1511C338.464 61.1989 339.036 61.2136 339.621 61.1876C341.49 60.8257 343.623 60.1083 345.491 60.6464C346.357 60.8706 347.231 61.0875 348.106 61.2964C355.202 63.3461 362.816 65.4118 370.603 66.7263C371.469 66.8724 372.337 67.0091 373.206 67.1364C375.933 67.6322 378.607 67.8117 381.316 67.984C382.226 67.9869 383.22 68.077 384.206 68.1395C385.185 68.2014 386.156 68.234 387.033 68.1198C387.986 68.1065 388.934 68.0739 389.887 68.0207C392.737 67.8642 395.578 67.5251 398.384 66.9654C399.374 66.7684 400.369 66.5447 401.388 66.2927C404.509 65.662 408.781 64.9447 410.383 64.0484C414.658 61.3619 419.461 60.1085 424.325 62.6739C425.056 62.9155 425.82 63.1593 426.573 63.3911C427.332 63.6236 428.079 63.8469 428.81 64.0486C429.344 64.1689 429.877 64.2986 430.415 64.4304C433.088 65.0894 435.789 65.8143 438.634 65.6876C439.533 65.7566 440.432 65.8237 441.331 65.8927C448.516 66.4338 455.711 66.9563 462.948 67.4678C463.775 67.5314 464.621 67.5996 465.473 67.6731C465.928 67.7128 466.39 67.7528 466.845 67.7925C467.242 67.8278 467.644 67.8653 468.04 67.9022" stroke="black" stroke-width="4" stroke-miterlimit="10"/>
<path d="M8.32861 38.6581C8.40196 38.654 8.475 38.6513 8.54834 38.647C9.21359 38.6142 9.87884 38.5818 10.5447 38.546C11.0172 38.5214 11.49 38.4956 11.9631 38.4679C11.9631 38.4679 11.9631 38.4679 11.9634 38.4663C12.2365 38.4512 12.5032 38.434 12.7768 38.4157C14.354 38.2571 15.6906 38.0774 17.2157 37.993C17.9509 37.897 18.6829 37.7831 19.4111 37.6499C20.1331 37.5163 20.852 37.3617 21.5618 37.1826C22.5025 37.0044 23.7042 36.9583 24.7692 37.1365C25.8345 37.3147 26.7695 37.716 27.1699 38.429C27.4181 38.8727 27.5602 39.3991 27.6766 39.959C27.793 40.5189 27.8624 41.123 28.0421 41.7003C28.2218 42.2759 28.5052 42.824 29.0432 43.2727C29.5745 43.7196 30.2418 43.9881 30.9304 44.1292C31.619 44.2703 32.3294 44.284 32.9471 44.2209C33.6908 44.1924 34.433 44.1335 35.1725 44.0522C35.9542 43.9564 36.7328 43.838 37.5496 43.689C42.1505 42.776 47.5441 41.0781 52.226 41.248C52.8882 41.2726 53.544 41.3347 54.1923 41.4411C58.1471 42.5555 62.4253 43.6315 66.963 43.093C80.0503 41.6611 95.0028 38.7956 105.415 45.422C105.95 45.7351 106.287 46.1612 106.504 46.6312C106.722 47.1012 106.826 47.6156 106.929 48.1012C109.154 52.2281 118.238 52.2291 123.889 52.9114C124.708 52.9456 125.541 52.9778 126.359 53.0136C128.009 53.0865 129.637 53.1768 131.221 53.3244C132.216 53.4131 133.217 53.5005 134.218 53.5895C179.362 57.5898 230.875 62.1557 279.606 66.474C280.321 66.5374 281.036 66.6008 281.751 66.6642C302.515 68.0606 324.081 69.3178 344.159 73.6358C345.114 73.8427 346.068 74.0542 347.014 74.2747C347.815 74.4925 348.621 74.7173 349.433 74.9471C350.239 75.1763 351.057 75.4083 351.882 75.6422C357.875 77.3072 363.341 79.8242 369.285 81.4312C370.13 81.6619 370.991 81.8762 371.868 82.0726C375.666 83.2138 379.943 82.8555 383.926 83.4908C384.647 83.5578 385.361 83.6227 386.083 83.6852C388.951 83.9313 391.824 84.1093 394.892 84.1089C397.029 84.1089 398.902 83.215 400.771 82.4991C401.401 82.2073 402.036 81.927 402.661 81.6619C407.059 79.8037 411.37 78.6511 416.405 79.3107C417.389 79.3811 418.371 79.4703 419.349 79.5753C421.313 79.7841 423.273 80.0533 425.235 80.3512C426.213 80.5008 427.196 80.6569 428.186 80.8104C430.423 81.041 432.645 81.3594 434.864 81.6952C435.611 81.8072 436.35 81.9218 437.09 82.0332C437.829 82.1462 438.57 82.2577 439.31 82.3644C440.05 82.4726 440.785 82.5759 441.528 82.6732C443.012 82.8677 444.494 83.0366 445.985 83.1566C446.992 83.2095 447.996 83.2415 449.01 83.2487C450.019 83.2555 451.031 83.2386 452.055 83.1924C453.073 83.1043 454.088 82.992 455.108 82.8516C456.128 82.711 457.152 82.5435 458.175 82.346C458.866 82.3567 459.565 82.3997 460.269 82.4878C461.368 82.581 462.298 82.6632 463.045 82.7305C463.416 82.7624 463.747 82.7914 464.027 82.8165C464.885 82.8919 465.327 82.9322 465.327 82.9322" stroke="black" stroke-width="4" stroke-miterlimit="10"/>
<path d="M2.51709 50.4009L2.52345 50.4014C3.48087 50.4745 4.42979 50.5599 5.3772 50.6529C12.704 51.3731 19.8912 52.6075 27.3171 52.8984C36.106 53.2444 44.876 52.6471 53.5988 51.9765C69.6145 50.7457 80.0169 58.4467 94.9994 60.128C101.921 60.9048 108.994 60.7843 115.93 61.5126C131.702 63.1702 146.894 66.6531 162.738 68.2731C195.567 71.6314 228.237 75.657 261.038 79.0979C299.344 83.1146 336.78 87.3592 373.953 94.8783C384.9 97.0932 396.012 98.4868 407.45 97.5223C418.68 96.5759 430.065 94.481 440.934 97.7433C451.364 100.872 460.262 101.973 471.51 102.564C471.903 102.586 472.295 102.605 472.694 102.625" stroke="black" stroke-width="4" stroke-miterlimit="10"/>
<path d="M7.37305 25.1049C8.5117 24.8474 9.63156 24.585 10.7381 24.3215C23.9337 21.1957 35.5602 17.8658 50.2411 17.9745C65.7716 18.0913 80.7893 21.0482 95.5387 24.0288C114.103 27.7803 132.305 31.5309 151.523 33.4868C170.76 35.4439 190.191 36.2981 209.566 37.362C233.491 38.6755 257.574 39.0905 281.439 40.8361C311.072 43.0017 341.661 45.9861 370.709 50.483C388.216 53.1933 404.931 51.6868 421.864 48.1091C425.605 47.2128 429.608 46.6751 433.349 47.5716C437.621 48.6453 441.096 51.1541 445.881 51.0273C446.755 51.0848 447.637 51.138 448.512 51.1908C456.115 51.6478 463.723 52.0681 471.352 52.4042" stroke="black" stroke-width="4" stroke-miterlimit="10"/>
<path d="M8.06372 17.1535C8.74109 17.1662 9.42543 17.1782 10.1092 17.1914C10.2998 17.1943 10.4904 17.1986 10.6814 17.2014C11.1811 17.2109 11.6809 17.2203 12.1874 17.2301C12.8108 17.2118 13.4315 17.2079 14.0513 17.2102C21.5875 17.2383 27.8512 14.256 34.7907 12.7794C42.6536 11.1072 50.9327 11.502 59.0566 11.4885C73.8915 11.4652 87.2138 8.91739 100.692 14.6602C117.671 21.894 138.485 21.7881 157.902 22.64C180.863 23.6453 203.856 24.2231 226.835 24.9702C247.503 25.6426 268.109 26.997 288.731 28.1378C313.092 29.4861 338.335 28.3481 361.819 33.6351C368.823 35.2114 375.827 36.5533 383.187 35.2858C389.914 34.1267 395.926 31.5019 402.841 30.7532C415.026 29.4304 427.529 31.9231 439.514 33.1909C452.14 34.5263 465.241 33.833 477.713 35.4982C477.887 35.5204 478.061 35.5444 478.235 35.5682" stroke="black" stroke-width="4" stroke-miterlimit="10"/>
</g>
</svg>
