<svg width="436" height="468" viewBox="0 0 436 468" fill="none" xmlns="http://www.w3.org/2000/svg">
<path d="M333.962 233.849C333.962 233.849 361.857 183.702 380.296 182.296C398.734 180.89 424.141 176.161 431.296 214.935C438.45 253.708 414.439 294.968 403.75 305.546C393.061 316.124 359.02 349.697 340.108 360.572C321.197 371.448 302.758 377.595 302.758 377.595L298.976 263.737" fill="black"/>
<path d="M333.962 233.849C333.962 233.849 361.857 183.702 380.296 182.296C398.734 180.89 424.141 176.161 431.296 214.935C438.45 253.708 414.439 294.968 403.75 305.546C393.061 316.124 359.02 349.697 340.108 360.572C321.197 371.448 302.758 377.595 302.758 377.595L298.976 263.737" stroke="#575757" stroke-width="6" stroke-miterlimit="10"/>
<path d="M100.404 235.267C100.404 235.267 69.6721 181.362 52.6517 182.308C35.6312 183.254 3.95421 181.362 3.00863 238.104C2.06305 294.846 79.128 344.496 93.3117 344.968C107.495 345.441 125.934 344.968 125.934 344.968" fill="black"/>
<path d="M100.404 235.267C100.404 235.267 69.6721 181.362 52.6517 182.308C35.6312 183.254 3.95421 181.362 3.00863 238.104C2.06305 294.846 79.128 344.496 93.3117 344.968C107.495 345.441 125.934 344.968 125.934 344.968" stroke="#575757" stroke-width="6" stroke-miterlimit="10"/>
<path d="M359.913 15.6986C354.934 1.5869 341.588 1.83561 328.965 4.27646C308.907 8.15667 288.991 12.5684 269.192 17.5976C249.827 9.41823 228.645 6.01465 207.697 7.71218C200.255 8.31554 192.796 9.50712 185.575 11.4155C180.37 12.7915 173.124 16.736 167.494 17.1143C166.979 17.1493 166.478 17.154 165.993 17.1238C146.98 15.9644 129.389 7.79257 110.772 4.52896C96.469 2.02191 83.3378 4.92427 78.4415 20.0564C72.6366 38.001 72.3425 57.2621 74.1874 75.8744C75.0261 84.3355 76.1892 92.8629 78.0586 101.163C80.0831 110.153 83.7614 118.773 84.776 127.983C87.3934 151.748 93.4914 174.634 110.472 192.351C123.429 205.87 140.79 214.906 157.875 222.048C175.242 229.308 193.399 236.569 212.232 238.747C225.959 240.334 242.272 237.928 255.793 235.466C268.975 233.065 281.774 228.817 293.697 222.689C313.158 212.689 330.517 198.098 339.188 177.589C343.435 167.543 346.544 156.9 348.178 146.109C349.717 135.946 349.157 125.507 351.463 115.459C358.794 83.5175 371.386 48.2184 359.913 15.6986Z" fill="black" stroke="#575757" stroke-width="6" stroke-miterlimit="10"/>
<path d="M141.094 152.999C150.059 152.999 157.326 141.994 157.326 128.419C157.326 114.843 150.059 103.838 141.094 103.838C132.129 103.838 124.862 114.843 124.862 128.419C124.862 141.994 132.129 152.999 141.094 152.999Z" fill="#B0FF27"/>
<path d="M294.857 152.999C303.821 152.999 311.089 141.994 311.089 128.419C311.089 114.843 303.821 103.838 294.857 103.838C285.892 103.838 278.625 114.843 278.625 128.419C278.625 141.994 285.892 152.999 294.857 152.999Z" fill="#B0FF27"/>
<path d="M141.092 45.2327C141.312 56.2785 125.304 62.0945 118.716 68.6161C114.118 73.1687 110.332 77.8943 106.946 83.3614C103.154 89.482 94.1494 102.573 90.3255 89.1964C88.2547 81.9504 89.9539 72.8509 90.2565 65.4177C90.7661 52.8541 91.3997 22.3714 109.766 23.2585C119.843 23.7493 139.058 32.3873 140.926 43.4917C141.026 44.0866 141.081 44.6662 141.092 45.2327Z" fill="#575757"/>
<path d="M141.092 45.2327C141.312 56.2785 125.304 62.0945 118.716 68.6161C114.118 73.1687 110.332 77.8943 106.946 83.3614C103.154 89.482 94.1494 102.573 90.3255 89.1964C88.2547 81.9504 89.9539 72.8509 90.2565 65.4177C90.7661 52.8541 91.3997 22.3714 109.766 23.2585C119.843 23.7493 139.058 32.3873 140.926 43.4917C141.026 44.0866 141.081 44.6662 141.092 45.2327Z" fill="#575757"/>
<path d="M292.504 36.346C304.125 30.8619 330.126 12.6723 343.073 24.4028C350.342 30.9886 348.136 45.8626 347.191 54.3379C346.277 62.5542 345.358 79.816 338.134 85.581C331.336 90.998 324.647 81.8767 320.795 77.2834C310.702 65.2475 301.692 52.2111 292.128 39.7515" fill="#575757"/>
<path d="M222.793 135.407L210.651 136.153L230.156 154.246" stroke="#767676" stroke-width="3" stroke-miterlimit="10"/>
<path d="M223.25 135.379L206.104 155.723" stroke="#767676" stroke-width="3" stroke-miterlimit="10"/>
<path d="M57.4931 218.6C53.0449 215.246 44.6178 218.923 38.6706 226.812C32.7235 234.702 31.5083 243.816 35.9564 247.17C40.4046 250.524 48.8316 246.847 54.7788 238.958C60.726 231.069 61.9412 221.954 57.4931 218.6Z" fill="#575757"/>
<path d="M51.3544 209.395C56.2284 209.395 60.1795 205.302 60.1795 200.253C60.1795 195.204 56.2284 191.111 51.3544 191.111C46.4804 191.111 42.5293 195.204 42.5293 200.253C42.5293 205.302 46.4804 209.395 51.3544 209.395Z" fill="#575757"/>
<path d="M33.3029 204.65C29.1013 203.516 24.3534 207.571 22.6981 213.706C21.0429 219.842 23.1072 225.735 27.3088 226.869C31.5104 228.002 36.2583 223.948 37.9135 217.812C39.5687 211.677 37.5045 205.784 33.3029 204.65Z" fill="#575757"/>
<path d="M13.683 237.278C11.787 242.284 12.9391 247.361 16.2562 248.618C19.5734 249.874 23.7995 246.834 25.6954 241.828C27.5914 236.821 26.4393 231.744 23.1222 230.487C19.8051 229.231 15.579 232.271 13.683 237.278Z" fill="#575757"/>
<path d="M399.546 249.82C403.994 246.466 402.778 237.352 396.831 229.462C390.884 221.573 382.457 217.896 378.009 221.25C373.561 224.604 374.776 233.719 380.723 241.608C386.67 249.497 395.097 253.174 399.546 249.82Z" fill="#575757"/>
<path d="M384.155 212.029C389.029 212.029 392.98 207.936 392.98 202.886C392.98 197.837 389.029 193.744 384.155 193.744C379.281 193.744 375.33 197.837 375.33 202.886C375.33 207.936 379.281 212.029 384.155 212.029Z" fill="#575757"/>
<path d="M408.2 229.533C412.402 228.399 414.466 222.506 412.811 216.371C411.156 210.235 406.408 206.181 402.206 207.314C398.004 208.448 395.94 214.341 397.595 220.477C399.251 226.612 403.999 230.667 408.2 229.533Z" fill="#575757"/>
<path d="M409.766 244.452C411.662 249.459 415.888 252.499 419.205 251.242C422.522 249.986 423.674 244.909 421.778 239.902C419.882 234.895 415.656 231.855 412.339 233.112C409.022 234.368 407.87 239.446 409.766 244.452Z" fill="#575757"/>
<path fill-rule="evenodd" clip-rule="evenodd" d="M139.101 117.975C135.83 118.566 134.541 120.661 133.609 123.45C132.676 120.653 131.397 118.554 128.123 118.122C130.743 116.91 133.085 115.769 133.467 112.419C134.555 115.206 135.9 117.326 139.101 117.975Z" fill="black"/>
<path fill-rule="evenodd" clip-rule="evenodd" d="M146.583 111.513C143.311 112.104 142.022 114.199 141.09 116.988C140.158 114.191 138.878 112.092 135.606 111.66C138.226 110.448 140.567 109.307 140.949 105.957C142.037 108.744 143.382 110.865 146.583 111.513Z" fill="black"/>
<path fill-rule="evenodd" clip-rule="evenodd" d="M149.42 122.945C146.148 123.536 144.859 125.63 143.927 128.419C142.994 125.623 141.715 123.523 138.441 123.091C141.062 121.879 143.403 120.737 143.785 117.389C144.874 120.176 146.219 122.296 149.42 122.945Z" fill="black"/>
<path fill-rule="evenodd" clip-rule="evenodd" d="M298.646 117.975C301.917 118.566 303.206 120.661 304.139 123.45C305.071 120.653 306.35 118.554 309.624 118.122C307.004 116.91 304.662 115.769 304.28 112.419C303.192 115.206 301.847 117.326 298.646 117.975Z" fill="black"/>
<path fill-rule="evenodd" clip-rule="evenodd" d="M291.164 111.513C294.436 112.104 295.725 114.199 296.657 116.988C297.59 114.191 298.869 112.092 302.142 111.66C299.521 110.448 297.18 109.307 296.798 105.957C295.711 108.744 294.366 110.865 291.164 111.513Z" fill="black"/>
<path fill-rule="evenodd" clip-rule="evenodd" d="M288.328 122.945C291.599 123.536 292.888 125.63 293.821 128.419C294.753 125.623 296.032 123.523 299.306 123.091C296.686 121.879 294.344 120.737 293.962 117.389C292.873 120.176 291.529 122.296 288.328 122.945Z" fill="black"/>
<g clip-path="url(#clip0_105_1840)">
<path d="M214.309 463.199C295.059 463.199 360.52 397.739 360.52 316.988C360.52 236.238 295.059 170.777 214.309 170.777C133.559 170.777 68.0979 236.238 68.0979 316.988C68.0979 397.739 133.559 463.199 214.309 463.199Z" fill="#82B3C5"/>
<path d="M356.373 316.989C356.191 358.878 337.699 398.417 305.886 425.62C273.89 452.978 230.006 464.202 188.719 456.769C148.177 449.471 112.545 424.038 91.6411 388.691C70.0716 352.218 66.6547 307.11 81.1019 267.457C95.1003 229.035 126.602 198.057 164.779 183.78C204.438 168.948 249.485 173.125 286.013 194.319C329.414 219.502 356.156 267.008 356.373 316.989C356.396 322.336 364.69 322.338 364.667 316.989C364.486 275.529 347.313 235.783 317.158 207.311C286.927 178.769 245.365 164.281 203.979 166.989C162.995 169.671 124.388 189.814 98.2657 221.402C71.7137 253.508 59.7545 296.05 65.3498 337.302C70.8751 378.028 93.2159 414.593 126.256 438.855C160.036 463.659 203.657 472.386 244.572 464.29C278.051 457.664 308.665 438.798 330.353 412.574C352.531 385.755 364.515 351.733 364.667 316.989C364.69 311.639 356.396 311.641 356.373 316.989Z" fill="black"/>
</g>
<path fill-rule="evenodd" clip-rule="evenodd" d="M111.306 296.144C113.215 294.471 114.292 292.413 114.117 290.27C113.856 287.067 110.879 284.504 106.687 283.353C105.197 280.105 99.3827 259.891 97.4706 256.169C94.0831 249.576 85.8938 253.634 84.4544 255.017C84.1439 255.166 80.9675 263.708 80.6532 263.886C58.4221 296.484 67.9274 362.062 90.7519 393.74C92.0475 398.38 95.1336 401.65 98.7376 401.65C103.508 401.65 107.377 395.926 107.377 388.866C107.377 383.189 104.875 378.383 101.416 376.713C101.572 376.416 101.745 376.123 101.92 375.832C104.69 374.128 106.455 371.552 106.455 368.671C106.455 364.927 103.47 361.71 99.179 360.238C96.5352 355.937 93.145 351.561 90.6515 347.615C88.8407 344.749 87.5866 342.043 86.866 339.472C88.9329 337.725 90.1575 335.091 89.9244 332.246C89.7723 330.385 89.0177 328.718 87.8686 327.394C89.1882 324.804 91.2505 322.351 94.0647 320C97.9636 316.741 101.942 313.489 105.245 309.85C110.143 308.684 113.652 305.128 113.463 301.082C113.38 299.307 112.596 297.69 111.322 296.375C111.318 296.298 111.31 296.221 111.306 296.144Z" fill="#6C8D6C"/>
<path d="M113.26 298.099C116.125 295.219 118.281 290.783 115.944 286.843C114.867 285.028 113.527 283.77 111.814 282.56C110.943 281.945 109.787 281.449 108.773 281.122C109.117 282.058 109.153 282.161 108.88 281.43C108.741 281.049 108.606 280.668 108.474 280.284C105.889 272.888 103.848 265.308 101.171 257.941C98.614 250.904 92.6704 247.874 85.574 251.144C80.2597 253.592 79.4543 260.436 76.5764 265.132C66.4704 281.619 64.5776 302.569 65.4586 321.45C66.4142 341.918 71.2825 362.506 80.0892 381.023C82.6252 386.354 86.4917 391.114 88.8056 396.485C91.0541 401.703 95.5519 405.504 101.453 403.979C107.236 402.483 109.476 395.505 110.083 390.358C110.795 384.326 108.164 377.426 102.811 374.327C103.142 375.587 103.472 376.848 103.803 378.11C104.585 376.742 106.362 375.981 107.255 374.6C108.185 373.162 108.962 371.622 109.114 369.886C109.429 366.266 108.069 363.348 105.548 360.808C104.358 359.609 102.714 358.678 101.16 358.063C99.8701 357.553 98.0676 353.573 97.2456 352.397C94.2203 348.069 91.1232 343.835 89.5308 338.736C89.294 339.632 89.0572 340.529 88.8204 341.425C93.1753 337.144 93.9632 330.981 90.2551 325.997C90.2551 326.927 90.2551 327.858 90.2551 328.787C92.6068 324.547 96.2771 321.76 99.9161 318.681C103.428 315.71 106.226 312.897 110.29 310.787C113.031 309.364 114.841 306.779 115.878 303.963C116.458 302.387 116.171 300.646 115.937 299.047C115.846 298.421 113.952 294.368 114.07 296.144C113.835 292.606 108.304 292.583 108.541 296.144C108.741 299.153 111.749 300.467 109.925 303.814C108.88 305.733 106.455 306.62 104.51 307.183C103.043 307.607 102.014 309.243 100.996 310.267C95.7546 315.53 89.165 319.356 85.4818 325.998C85.0404 326.794 84.9003 328.007 85.4818 328.788C87.7136 331.79 87.615 334.858 84.9114 337.516C84.2276 338.188 83.9106 339.279 84.2009 340.205C86.4097 347.28 91.0338 352.991 95.1299 359.047C95.8975 360.181 96.5435 361.897 97.7838 362.624C99.484 363.619 101.039 364.113 102.471 365.557C106.403 369.517 100.715 372.371 99.0296 375.317C98.2842 376.621 98.709 378.341 100.021 379.1C105.856 382.477 105.547 391.411 102.459 396.51C97.8363 404.14 92.9321 392.175 90.7869 388.888C85.4127 380.653 81.5608 371.485 78.5014 362.172C71.8602 341.955 69.2745 320.034 71.6437 298.865C72.732 289.141 75.291 279.405 79.7916 270.694C81.2807 267.812 83.1402 265.282 84.376 262.277C85.948 258.454 85.7739 256.78 89.2525 255.641C93.6029 254.216 95.1391 257.414 96.3554 260.85C97.7994 264.93 99.0656 269.073 100.371 273.198C101.398 276.442 102.395 279.7 103.55 282.901C103.927 283.951 104.267 285.141 105.293 285.742C108.775 287.781 114.202 289.315 109.352 294.191C106.835 296.718 110.743 300.629 113.26 298.099Z" fill="black"/>
<mask id="mask0_105_1840" style="mask-type:alpha" maskUnits="userSpaceOnUse" x="73" y="175" width="284" height="284">
<path d="M215 459C293.424 459 357 395.424 357 317C357 238.576 293.424 175 215 175C136.576 175 73 238.576 73 317C73 395.424 136.576 459 215 459Z" fill="#82B3C5"/>
</mask>
<g mask="url(#mask0_105_1840)">
<g clip-path="url(#clip1_105_1840)">
<path d="M221.838 324.038C222.307 324.596 223.227 325.348 223.825 325.846C222.126 326.756 220.55 327.884 219.131 329.195C219.138 329.154 219.145 329.113 219.152 329.071C219.157 329.052 219.167 329.034 219.171 329.013C218.996 329.209 218.809 329.392 218.599 329.545C218.592 329.554 218.586 329.563 218.58 329.571C218.164 330.011 217.734 330.435 217.296 330.851C217.27 330.962 217.237 331.072 217.211 331.183C213.584 335.42 211.378 341.019 211.378 347.158C211.378 357.27 217.362 365.909 225.817 369.414C228.426 371.55 231.347 373.189 234.875 373.531L234.935 373.535C237.732 382.185 246.469 388.496 256.817 388.496C260.303 388.496 263.607 387.778 266.562 386.497C267.258 388.765 268.223 391.058 269.47 393.306C272.013 397.892 275.335 401.592 278.89 404.129C280.092 406.298 280.245 408.586 278.775 411.061C278.46 411.589 278.363 412.246 278.303 412.924C277.569 414.874 277.069 416.946 276.847 419.108C276.4 420.465 275.966 421.828 276.413 422.756C276.532 423.001 276.659 423.245 276.781 423.491C277.652 435.872 287.504 445.636 299.535 445.636C300.193 445.636 300.841 445.6 301.484 445.543C302.138 445.598 302.79 445.636 303.443 445.636C305.349 445.636 307.271 445.103 309.154 444.667C310.027 444.461 310.799 443.849 311.659 443.542C314.438 442.544 316.956 441.237 319.226 439.642C322.923 438.029 325.764 434.907 327.545 430.89C327.999 430.183 328.438 429.457 328.85 428.707C329.852 426.883 331.013 425.394 332.489 424.196C333.643 424.092 334.791 423.865 335.921 423.492C345.917 420.2 350.666 407.352 346.531 394.799C346.18 393.732 345.771 392.704 345.32 391.714C345.326 391.657 345.335 391.603 345.34 391.549C345.583 389.062 346.64 387.441 348.5 385.883C349.979 384.648 351.313 383.182 352.495 381.63C354.443 379.779 355.893 377.447 356.815 374.813C357.314 373.957 357.818 373.104 358.343 372.268C359.942 369.722 361.858 367.352 363.247 364.702C364.315 362.662 365.088 360.352 365.442 358.078C365.971 354.67 363.454 352.677 360.149 353.588C359.022 353.899 357.937 354.354 356.826 354.723C356.22 354.923 355.623 355.094 355.04 355.216C354.77 354.671 354.488 354.13 354.181 353.595C350.226 346.695 344.042 342.121 337.753 340.708C337.065 337.364 335.491 334.468 333.145 331.871C331.876 330.471 330.861 328.757 330.056 327.034C329.286 325.387 328.604 323.698 327.925 322.007C326.341 310.797 318.548 302.282 309.169 302.282C302.403 302.282 296.467 306.714 293.086 313.389C290.571 310.87 287.119 309.312 283.309 309.312C282.414 309.312 281.543 309.407 280.696 309.57C280.29 309.379 279.889 309.181 279.482 308.994C279.232 308.88 278.999 308.763 278.778 308.642C278.484 301.099 272.383 295.072 264.881 295.072C261.723 295.072 258.82 296.152 256.484 297.951C254.55 292.599 250.783 288.968 246.453 288.968C240.15 288.968 235.041 296.664 235.041 306.155C235.041 306.577 235.062 306.991 235.082 307.406C226.694 308.105 220.193 312.81 220.064 318.549C220.439 320.597 220.683 322.098 221.838 324.038Z" fill="#6C8D6C"/>
<path d="M219.884 325.993C220.501 326.644 221.164 327.247 221.87 327.801C222.057 326.354 222.243 324.906 222.43 323.459C220.532 324.556 218.829 325.807 217.176 327.24C218.716 328.137 220.257 329.033 221.797 329.929C221.801 329.867 221.816 329.806 221.838 329.748C222.77 326.996 219.135 325.276 217.218 327.059C209.463 334.264 206.925 345.69 209.978 355.763C211.505 360.802 214.876 365.516 219.083 368.659C223.514 371.97 229.278 375.878 234.936 376.3C234.048 375.623 233.159 374.946 232.27 374.271C237.378 388.504 253.516 394.666 267.299 389.163C266.166 388.52 265.032 387.877 263.899 387.232C265.459 391.962 267.687 396.484 270.908 400.32C272.578 402.309 274.356 404.156 276.438 405.719C277.792 406.737 275.1 413.799 274.719 415.202C272.53 423.281 274.587 432.434 280.042 438.964C282.758 442.216 286.021 444.716 289.907 446.417C294.102 448.253 298.048 448.073 302.467 448.375C307.207 448.699 311.528 446.665 315.75 444.83C320.124 442.929 325.08 440.006 327.808 435.981C329.084 434.1 330.108 432.072 331.241 430.101C333.184 426.719 335.196 426.953 338.408 425.475C342.458 423.612 345.446 420.6 347.67 416.771C349.827 413.06 350.603 408.678 350.787 404.451C350.897 401.908 350.474 399.335 349.974 396.855C349.505 394.529 347.604 392.044 348.704 389.764C349.623 387.857 352.141 386.314 353.538 384.731C355.224 382.823 356.83 380.95 358.108 378.735C359.572 376.197 360.734 373.603 362.406 371.16C363.938 368.922 365.497 366.712 366.52 364.183C368.152 360.147 369.379 355.788 366.192 352.26C363.047 348.779 357.799 351.696 354.307 352.552C355.348 352.975 356.389 353.399 357.43 353.823C353.529 346.181 346.883 340.194 338.491 338.044C339.135 338.687 339.778 339.33 340.422 339.974C338.553 332.441 331.645 327.611 330.364 319.887C329.318 313.582 325.768 307.554 320.765 303.614C310.066 295.185 296.631 301.047 290.701 311.995C292.148 311.808 293.596 311.622 295.043 311.436C292.967 309.543 290.785 308.244 288.151 307.272C285.573 306.322 282.48 307.409 280.174 306.256C280.632 307.051 281.088 307.847 281.544 308.643C280.461 295.46 266.382 287.768 255.09 295.566C256.444 296.117 257.798 296.667 259.15 297.218C256.445 290.461 250.743 284.29 242.839 286.856C234.779 289.472 232.073 299.986 232.319 307.408C233.241 306.486 234.162 305.565 235.084 304.643C223.995 305.892 213.318 313.471 219.452 325.431C221.08 328.605 225.849 325.807 224.227 322.641C220.231 314.851 228.475 310.917 235.084 310.172C236.54 310.008 237.903 309.039 237.848 307.408C237.685 302.482 238.699 297.48 242.126 293.762C246.739 288.755 251.981 294.096 253.82 298.688C254.432 300.216 256.273 301.45 257.88 300.34C264.964 295.448 273.649 298.595 275.806 306.926C276.569 309.873 276.531 311.293 279.963 312.236C281.631 312.695 283.594 311.989 285.357 312.261C287.597 312.606 289.497 313.855 291.133 315.345C292.407 316.507 294.592 316.414 295.475 314.785C301.324 303.987 313.91 301.671 321.383 312.236C324.321 316.39 324.627 321.393 326.572 325.934C328.936 331.454 333.639 335.594 335.09 341.444C335.317 342.36 336.11 343.142 337.021 343.375C344.105 345.191 349.374 350.186 352.655 356.612C353.225 357.73 354.622 358.167 355.778 357.883C357.518 357.456 359.185 356.812 360.888 356.254C362.483 357.331 362.907 358.603 362.162 360.07C361.738 361.691 360.945 363.162 360.129 364.611C357.941 368.497 355.272 371.903 353.335 375.945C350.988 380.845 340.875 385.966 342.658 392.45C343.945 397.127 345.418 400.794 345.202 405.779C345.021 409.95 343.347 414.084 340.625 417.222C339.511 418.506 338.133 419.408 336.664 420.221C334.771 421.269 332.125 420.803 330.54 422.242C326.944 425.504 325.567 430.001 322.61 433.706C319.986 436.996 314.784 439.397 310.929 440.876C306.995 442.386 303.709 442.764 299.541 442.871C291.358 443.081 284.156 437.353 281.086 430.04C279.899 427.212 278.615 422.793 279.517 419.842C280.134 417.828 280.28 415.693 280.973 413.658C281.524 412.043 282.57 409.956 282.566 408.175C282.551 403.816 280.752 402.339 277.728 399.583C273.685 395.9 270.929 390.901 269.233 385.761C268.801 384.455 267.284 383.251 265.832 383.83C255.056 388.132 241.764 384.388 237.605 372.798C237.161 371.559 236.254 370.867 234.939 370.769C231.035 370.478 227.205 367.259 223.904 365.315C219.789 362.889 216.908 358.704 215.312 354.291C212.319 346.02 215.49 336.206 221.13 330.965C219.59 330.068 218.049 329.172 216.509 328.276C216.486 328.334 216.472 328.395 216.468 328.458C215.988 331.202 218.919 333.028 221.088 331.146C222.418 329.994 223.711 329.104 225.222 328.23C226.671 327.392 227.157 325.051 225.781 323.889C225.075 323.334 224.413 322.732 223.795 322.081C221.246 319.586 217.334 323.494 219.884 325.993Z" fill="black"/>
</g>
<path fill-rule="evenodd" clip-rule="evenodd" d="M310.786 240.832C308.811 237.714 306.929 234.533 305.196 231.28C304.879 230.687 304.548 230.126 304.206 229.581C304.265 229.395 304.329 229.209 304.371 229.017C305.332 224.581 300.977 219.874 294.646 218.503C291.803 217.888 289.049 218.056 286.786 218.822C286.806 215.191 284.765 212.053 281.66 211.381C278.339 210.663 274.96 213.013 273.63 216.747C271.725 216.855 269.61 216.421 268.013 215.592C267.018 215.075 266.026 214.587 265.028 214.144C264.602 211.176 262.671 208.746 259.938 208.153C257.006 207.519 254.044 209.193 252.497 212.068C250.281 212.199 248.062 212.243 245.842 212.26C244.329 211.56 242.635 210.983 240.81 210.589C233.304 208.964 226.496 210.981 225.606 215.093C224.716 219.206 230.08 223.855 237.588 225.48C238.358 225.648 239.118 225.767 239.87 225.858C239.788 226.102 239.717 226.351 239.662 226.608C238.876 230.233 240.941 233.756 244.271 234.478C245.982 234.847 247.691 234.403 249.058 233.396C250.678 235.874 253.878 238.587 257.986 240.695C261.779 242.641 265.541 243.66 268.424 243.706C268.422 243.714 268.418 243.72 268.416 243.728C267.563 247.67 273.38 252.275 281.407 254.013C284.627 254.71 287.705 254.832 290.302 254.482C290.946 258.097 293.942 261.225 298.068 262.118C302.759 263.133 307.321 260.919 309.041 257.061C314.199 257.479 318.715 255.039 319.568 251.102C320.514 246.734 316.591 242.174 310.786 240.832Z" fill="#6C8D6C"/>
<path d="M313.173 239.437C311.033 236.023 309.064 232.531 307.097 229.017C307.003 229.996 307.016 229.996 307.135 229.017C307.28 228.337 307.307 227.652 307.213 226.963C307.135 225.384 306.446 223.942 305.696 222.587C302.065 216.022 292.644 214.352 286.049 216.156C287.217 217.045 288.382 217.933 289.549 218.822C288.828 207.758 275.806 204.819 271.243 215.352C272.039 214.896 272.835 214.439 273.63 213.983C271.427 213.955 269.854 213.431 267.917 212.453C267.042 212.011 267.149 211.14 266.698 210.366C265.569 208.432 264.01 206.566 261.794 205.849C256.905 204.268 252.772 206.547 250.109 210.672C250.905 210.215 251.701 209.758 252.496 209.302C249.536 209.45 246.968 209.662 244.178 208.643C241.62 207.71 238.832 207.408 236.133 207.265C232.125 207.054 226.153 208.233 223.948 212.067C218.6 221.363 232.02 227.514 239.134 228.522C238.491 227.388 237.848 226.255 237.203 225.122C234.939 233.331 242.867 240.301 250.454 235.781C249.192 235.451 247.931 235.121 246.671 234.79C251.555 241.603 260.125 245.959 268.425 246.469C267.536 245.302 266.647 244.136 265.759 242.97C264.407 247.025 268.262 250.671 271.119 252.767C276.365 256.617 283.976 257.884 290.302 257.246C289.413 256.569 288.524 255.893 287.636 255.216C290.444 266.294 305.887 268.699 311.427 258.455C310.631 258.911 309.835 259.368 309.04 259.824C314.691 260.004 321.489 257.49 322.331 251.101C323.218 244.379 317.368 239.802 311.52 238.166C308.08 237.204 306.622 242.539 310.05 243.497C312.985 244.318 315.758 245.764 316.815 248.823C318.351 253.272 311.87 254.386 309.04 254.295C308.1 254.265 307.101 254.836 306.652 255.665C303.352 261.768 294.614 260.253 292.966 253.747C292.688 252.647 291.489 251.597 290.3 251.717C285.998 252.151 281.957 251.525 277.887 250.09C276.488 249.597 270.316 246.752 271.087 244.44C271.686 242.641 270.122 241.045 268.421 240.941C262.222 240.559 255.119 237.131 251.441 232C250.571 230.785 249.044 230.182 247.659 231.008C244.152 233.097 241.596 229.983 242.531 226.591C242.894 225.281 242.095 223.403 240.601 223.191C238.148 222.844 225.005 219.252 228.893 214.706C230.796 212.481 235.079 212.738 237.648 212.873C240.443 213.02 243.193 215.053 245.839 215.023C248.1 214.997 251.863 215.639 253.888 214.453C254.831 213.901 255.413 212.622 256.088 211.876C258.291 209.438 261.184 211.315 262.087 213.642C263.157 216.402 263.781 216.548 266.615 217.978C268.831 219.096 271.171 219.479 273.627 219.511C274.507 219.522 275.644 218.995 276.015 218.141C278.056 213.429 283.61 212.557 284.018 218.821C284.134 220.598 285.696 221.985 287.518 221.487C291.573 220.379 303.575 221.904 301.538 228.846C301.017 230.62 302.783 232.63 303.558 234.066C305.063 236.849 306.717 239.549 308.396 242.228C310.287 245.241 315.073 242.468 313.173 239.437Z" fill="black"/>
<path fill-rule="evenodd" clip-rule="evenodd" d="M262.869 410.776C259.175 410.776 255.471 410.904 251.79 410.746C246.321 410.512 242.491 407.607 242.567 403.996C242.641 400.526 246.336 397.565 251.49 397.445C259.396 397.262 267.324 397.261 275.228 397.478C280.34 397.619 284.001 400.703 283.933 404.168C283.863 407.63 280.156 410.489 275.003 410.725C270.971 410.909 266.915 410.762 262.87 410.762C262.869 410.767 262.869 410.771 262.869 410.776Z" fill="white"/>
<path d="M262.869 408.011C258.127 408.03 248.971 409.779 245.718 405.357C241.366 399.441 260.467 400.08 262.446 400.075C266.43 400.064 280.697 398.059 281.168 404.167C281.608 409.867 265.911 408.01 262.869 407.996C261.361 407.99 260.104 409.259 260.104 410.761C260.104 410.765 260.104 410.771 260.104 410.775C260.104 414.341 265.633 414.341 265.633 410.775C265.633 410.771 265.633 410.765 265.633 410.761C264.712 411.682 263.79 412.604 262.869 413.525C269.902 413.556 285.369 415.608 286.589 405.095C287.957 393.317 271.396 394.584 264.272 394.548C256.03 394.507 241.139 392.484 239.802 403.996C239.377 407.651 242.804 410.933 245.848 412.192C251.125 414.373 257.288 413.564 262.869 413.541C266.433 413.525 266.435 407.996 262.869 408.011Z" fill="black"/>
<path fill-rule="evenodd" clip-rule="evenodd" d="M315.539 321.412C321.577 321.412 327.615 321.37 333.654 321.421C342.954 321.498 348.978 325.746 349.766 332.7C350.485 339.035 344.533 345.477 335.805 345.85C322.06 346.439 308.201 346.456 294.47 345.748C285.084 345.265 280.183 339.515 280.893 332.219C281.532 325.665 287.631 321.517 296.911 321.424C303.119 321.362 309.331 321.412 315.539 321.412Z" fill="white"/>
<path d="M315.539 324.176C322.599 324.172 330.066 323.471 337.072 324.429C342.234 325.135 346.754 328.238 347.061 333.755C347.437 340.523 339.17 342.947 334.012 343.158C326.823 343.453 319.628 343.548 312.433 343.507C303.928 343.459 281.641 346.288 283.704 331.938C284.5 326.401 290.756 324.624 295.472 324.235C302.082 323.691 308.907 324.172 315.539 324.176C319.104 324.178 319.104 318.649 315.539 318.647C304.379 318.64 279.157 314.967 278.128 332.219C277.014 350.895 299.952 348.916 312.433 349.037C317.831 349.091 323.23 349.01 328.625 348.869C333.098 348.752 337.618 348.863 341.905 347.436C347.927 345.43 352.225 340.063 352.59 333.756C352.93 327.878 348.414 322.558 343.236 320.466C334.819 317.066 324.407 318.643 315.539 318.648C311.973 318.649 311.973 324.178 315.539 324.176Z" fill="black"/>
<path fill-rule="evenodd" clip-rule="evenodd" d="M294.697 418.295C291.395 422.352 288.871 425.573 286.139 428.7C285.668 429.24 284.323 429.641 283.368 429.655C279.086 429.723 274.762 429.869 270.526 429.522C266.432 429.186 263.831 427.184 263.634 424.162C263.438 421.159 265.651 418.629 269.742 418.413C277.445 418.005 285.217 418.295 294.697 418.295Z" fill="white"/>
<path d="M292.742 416.339C291.397 417.997 290.057 419.66 288.714 421.318C287.587 422.711 285.295 426.64 283.368 426.89C280.773 427.225 277.937 426.985 275.322 426.969C272.77 426.953 269.339 427.236 267.197 425.575C263.734 422.888 269.431 421.191 271.189 421.107C273.631 420.991 276.08 420.973 278.524 420.959C283.915 420.928 289.307 421.048 294.697 421.057C298.263 421.064 298.263 415.535 294.697 415.528C286.033 415.513 277.071 414.767 268.451 415.801C263.041 416.451 259.552 421.557 261.447 426.752C263.84 433.306 273.071 432.531 278.542 432.497C281.319 432.479 285.976 433.103 288.094 430.652C291.032 427.254 293.823 423.735 296.652 420.247C298.876 417.507 294.989 413.57 292.742 416.339Z" fill="black"/>
<path fill-rule="evenodd" clip-rule="evenodd" d="M111.52 198.807C118.372 198.807 125.224 198.763 132.076 198.824C136.366 198.862 138.486 200.648 138.585 204.072C138.686 207.633 136.576 209.479 132.132 209.716C131.58 209.746 131.021 209.725 130.479 209.808C128.054 210.178 126.671 211.545 126.773 213.964C126.871 216.287 128.385 217.437 130.672 217.543C135.962 217.79 141.255 218.082 146.549 218.143C155.168 218.244 163.791 218.13 172.409 218.194C177.739 218.233 180.814 220.939 181.35 225.841C181.835 230.273 178.812 234.224 174.018 235.149C172.195 235.5 170.285 235.432 168.415 235.546C165.91 235.7 163.993 236.701 164.048 239.376C164.099 241.882 165.694 243.274 168.332 243.351C170.209 243.406 172.096 243.312 173.964 243.458C180.214 243.947 185.177 248.826 185.588 254.788C185.98 260.461 181.989 265.689 176.042 267.133C174.449 267.52 172.774 267.759 171.137 267.77C162.075 267.829 153.013 267.818 143.951 267.789C139.014 267.773 134.802 266.206 132.088 261.956C127.009 254.004 132.189 244.253 141.886 243.441C143.314 243.321 145.036 243.735 146.112 243.093C147.524 242.249 149.326 240.586 149.3 239.306C149.276 238.063 147.32 236.606 145.893 235.733C145.004 235.189 143.526 235.525 142.312 235.523C130.707 235.506 119.101 235.579 107.5 235.427C105.269 235.398 102.867 234.871 100.87 233.925C97.6005 232.375 96.1418 229.441 96.5224 225.9C96.9334 222.079 99.5366 219.219 103.219 218.331C104.714 217.971 106.257 217.749 107.792 217.608C110.34 217.373 112.076 216.256 112.058 213.628C112.039 210.911 110.018 209.947 107.609 209.82C104.743 209.67 101.865 209.749 98.9911 209.734C96.0082 209.719 93.0197 209.801 90.0396 209.681C86.373 209.537 84.3761 207.563 84.3605 204.299C84.343 201.018 86.3159 198.981 89.9714 198.857C94.0564 198.718 98.1479 198.8 102.237 198.794C105.331 198.788 108.427 198.792 111.521 198.792C111.52 198.798 111.52 198.803 111.52 198.807Z" fill="white"/>
<path d="M111.52 201.571C118.372 201.568 125.224 201.536 132.076 201.589C135.44 201.614 137.696 205.466 133.784 206.715C131.235 207.529 128.708 206.72 126.463 208.558C123.819 210.721 123.032 215.117 125.363 217.855C128.806 221.899 136.547 220.603 141.255 220.78C148.186 221.04 155.131 220.956 162.066 220.943C167.889 220.932 178.306 218.686 178.633 227.036C178.929 234.581 168.694 231.393 164.763 233.625C161.35 235.562 160.011 240.21 162.641 243.458C165.859 247.432 171.265 245.564 175.654 246.547C182.496 248.077 184.825 256.381 180.466 261.501C175.996 266.75 166.347 265.037 160.263 265.047C156.638 265.053 153.014 265.047 149.388 265.041C145.585 265.034 141.592 265.446 138.041 263.81C132.728 261.362 131.422 254.224 134.877 249.814C138.759 244.858 145.045 248.108 149.165 244.282C152.713 240.987 152.767 237.622 148.978 234.532C144.601 230.961 136.57 232.758 131.318 232.763C125.821 232.767 120.324 232.765 114.828 232.734C110.065 232.708 99.8756 234.085 99.2296 227.201C98.6555 221.078 105.506 220.764 109.728 220.083C113.056 219.546 114.49 216.603 114.821 213.631C115.826 204.598 100.099 206.958 95.4091 206.982C92.8363 206.996 87.4418 208.062 87.1248 204.302C86.8088 200.563 92.9966 201.555 95.2266 201.543C100.657 201.516 106.09 201.558 111.521 201.559C110.599 200.638 109.678 199.716 108.756 198.795C108.756 198.799 108.756 198.804 108.756 198.809C108.756 202.375 114.285 202.375 114.285 198.809C114.285 198.805 114.285 198.8 114.285 198.795C114.285 197.287 113.027 196.03 111.521 196.03C104.923 196.029 98.3201 195.954 91.7231 196.049C87.0345 196.117 83.05 197.466 81.7811 202.397C78.3853 215.595 99.1549 212.421 105.887 212.522C108.365 212.56 109.601 214.645 106.256 215.017C104.983 215.158 103.735 215.406 102.483 215.669C100.41 216.103 98.6712 217.302 97.0908 218.643C93.7909 221.441 92.8307 227.128 94.4802 230.985C96.4126 235.503 100.778 237.368 105.409 238.019C112.606 239.03 120.391 238.294 127.652 238.294C131.317 238.294 134.982 238.288 138.647 238.288C140.294 238.288 141.935 238.31 143.581 238.225C149.448 237.922 143.867 240.679 141.885 240.68C137.419 240.682 132.997 243.313 130.315 246.735C124.658 253.955 127.709 264.142 135.249 268.585C139.901 271.327 146.077 270.564 151.2 270.575C158.836 270.589 166.852 271.24 174.426 270.235C183.999 268.964 190.647 260.108 187.487 250.634C185.749 245.422 180.564 241.528 175.196 240.851C173.375 240.62 171.574 240.608 169.741 240.608C166.259 240.608 166.461 238.396 169.823 238.25C173.1 238.108 175.998 237.773 178.905 236.157C183.957 233.348 185.138 226.858 183.141 221.85C180.486 215.192 173.257 215.422 167.237 215.411C157.987 215.394 148.735 215.534 139.49 215.186C137.137 215.098 134.786 214.976 132.434 214.864C130.036 215.262 129.936 214.468 132.13 212.483C132.799 212.436 133.465 212.364 134.128 212.265C136.338 211.838 138.771 210.958 140.022 208.926C142.561 204.803 141.376 199.336 137.041 197.056C134.097 195.507 130.111 196.045 126.935 196.034C121.796 196.015 116.657 196.042 111.518 196.045C107.954 196.044 107.954 201.573 111.52 201.571Z" fill="black"/>
<path fill-rule="evenodd" clip-rule="evenodd" d="M91.0818 366.543C95.4755 360.343 99.7558 354.06 104.364 348.026C105.181 346.958 107.357 346.51 108.913 346.493C120.56 346.37 132.207 346.347 143.852 346.458C150.159 346.517 153.939 349.999 154.759 356.044C155.49 361.432 152.294 365.916 146.409 367.456C144.355 367.994 142.187 368.34 140.069 368.352C125.357 368.429 110.645 368.407 95.9334 368.379C94.6212 368.376 93.3109 368.1 92.0005 367.951C91.6946 367.482 91.3877 367.012 91.0818 366.543Z" fill="white"/>
<path d="M93.4693 367.938C96.5047 363.643 99.507 359.323 102.578 355.053C104.284 352.682 105.732 349.504 108.914 349.258C111.944 349.025 115.068 349.201 118.108 349.182C124.238 349.143 130.368 349.143 136.499 349.17C141.065 349.189 147.493 348.014 150.583 352.282C153.788 356.708 151.798 362.374 146.986 364.385C141.646 366.616 134.692 365.615 129.037 365.629C122.907 365.644 116.778 365.643 110.648 365.638C107.583 365.635 104.518 365.631 101.453 365.625C100.135 365.623 94.329 366.462 93.4711 365.149C91.5305 362.176 86.7415 364.943 88.6969 367.938C90.421 370.578 91.5738 370.665 94.6249 371.065C98.6232 371.59 102.94 371.157 106.97 371.161C116.165 371.175 125.36 371.173 134.554 371.141C140.655 371.121 148.03 371.488 152.999 367.213C157.31 363.505 158.312 358.405 156.942 353.03C155.808 348.578 152.306 345.569 148.067 344.232C145.024 343.272 141.465 343.671 138.338 343.651C133.435 343.619 128.53 343.618 123.627 343.629C119.336 343.639 115.045 343.67 110.754 343.71C108.261 343.733 105.288 343.705 103.248 345.383C100.625 347.54 98.756 350.939 96.783 353.683C94.0536 357.48 91.3959 361.328 88.6978 365.147C86.6318 368.067 91.4291 370.825 93.4693 367.938Z" fill="black"/>
</g>
<defs>
<clipPath id="clip0_105_1840">
<rect width="300.667" height="300.555" fill="white" transform="translate(64 166.668)"/>
</clipPath>
<clipPath id="clip1_105_1840">
<rect width="292.422" height="292.422" fill="white" transform="translate(68.0977 170.777)"/>
</clipPath>
</defs>
</svg>
