<svg width="1141" height="715" viewBox="0 0 1141 715" fill="none" xmlns="http://www.w3.org/2000/svg">
<g filter="url(#filter0_f_193_4966)">
<path fill-rule="evenodd" clip-rule="evenodd" d="M787.111 225.529C791.923 225.062 796.761 224.045 801.546 224.257C808.434 224.566 811.53 221.393 812.277 214.998C812.894 209.736 813.58 204.48 814.235 199.221C815.033 199.148 815.831 199.073 816.629 199C817.339 202.611 818.224 206.2 818.73 209.841C820.651 223.66 820.712 223.75 834.811 224.494C837.945 224.66 841.074 224.935 844.208 225.158C844.291 225.974 844.373 226.788 844.456 227.604C841.092 228.249 837.746 228.994 834.363 229.52C823.169 231.266 821.613 232.718 820.87 243.914C820.224 253.644 820.052 263.406 819.468 273.142C819.28 276.233 818.438 279.283 817.894 282.353C817.106 282.426 816.319 282.5 815.532 282.574C814.843 280.06 813.762 277.58 813.533 275.024C812.547 263.96 811.511 252.886 811.088 241.791C810.832 235.059 807.89 232.029 801.349 231.455C796.534 231.033 791.781 229.922 787 229.118C787.037 227.922 787.074 226.725 787.111 225.529Z" fill="white"/>
<path fill-rule="evenodd" clip-rule="evenodd" d="M393.897 57C392.999 48.1173 384.522 44.0764 382 41.3245C392.103 40.7666 391.279 33.9903 393.259 30C395.184 33.5702 396.219 42.231 404 40.4287C401.239 42.7362 395.992 46.6244 393.897 57Z" fill="white"/>
<path fill-rule="evenodd" clip-rule="evenodd" d="M183.897 28C182.999 19.1173 174.522 15.0764 172 12.3245C182.103 11.7666 181.279 4.99032 183.259 1C185.184 4.57022 186.219 13.231 194 11.4287C191.239 13.7362 185.992 17.6244 183.897 28Z" fill="white"/>
<path fill-rule="evenodd" clip-rule="evenodd" d="M207.667 454C206.667 443.905 204.25 435.166 194 433.56C205.083 435.251 206.5 420.914 206.5 415C207.75 419.609 209.75 435.59 219 432.98C212.25 435.082 210 442.208 207.667 454Z" fill="white"/>
<path fill-rule="evenodd" clip-rule="evenodd" d="M54.1098 536.316C58.8843 535.958 63.6837 535.179 68.4301 535.342C75.2636 535.578 78.3354 533.148 79.0763 528.251C79.6881 524.221 80.3689 520.197 81.019 516.169C81.8103 516.113 82.6022 516.056 83.3935 516C84.0985 518.766 84.9767 521.514 85.478 524.302C87.3844 534.885 87.4444 534.954 101.432 535.523C104.541 535.65 107.645 535.861 110.754 536.032C110.836 536.656 110.918 537.28 111 537.904C107.663 538.398 104.343 538.969 100.987 539.372C89.8821 540.709 88.3385 541.821 87.6009 550.395C86.9603 557.846 86.7898 565.321 86.2099 572.778C86.0234 575.144 85.1881 577.48 84.6491 579.831C83.8667 579.887 83.0863 579.944 82.3059 580C81.6219 578.075 80.5496 576.176 80.3229 574.218C79.3439 565.746 78.3169 557.265 77.8973 548.769C77.6425 543.614 74.7246 541.293 68.2347 540.854C63.4583 540.531 58.7432 539.68 54 539.064C54.037 538.148 54.0734 537.232 54.1098 536.316Z" fill="white"/>
<path fill-rule="evenodd" clip-rule="evenodd" d="M237.06 194.38C239.656 194.162 242.267 193.687 244.848 193.786C248.564 193.93 250.235 192.45 250.638 189.465C250.971 187.01 251.341 184.557 251.695 182.103C252.125 182.069 252.556 182.034 252.986 182C253.369 183.685 253.847 185.36 254.12 187.059C255.156 193.508 255.189 193.55 262.796 193.897C264.487 193.974 266.176 194.103 267.866 194.207C267.911 194.587 267.955 194.968 268 195.348C266.185 195.649 264.379 195.997 262.555 196.242C256.515 197.057 255.675 197.735 255.274 202.959C254.926 207.5 254.833 212.055 254.518 216.599C254.416 218.041 253.962 219.464 253.669 220.897C253.243 220.931 252.819 220.966 252.394 221C252.022 219.827 251.439 218.67 251.316 217.477C250.784 212.314 250.225 207.146 249.997 201.968C249.858 198.827 248.271 197.413 244.742 197.145C242.144 196.948 239.58 196.43 237 196.055C237.02 195.496 237.04 194.938 237.06 194.38Z" fill="white"/>
<path fill-rule="evenodd" clip-rule="evenodd" d="M1061.9 714C1061 705.117 1052.52 701.076 1050 698.324C1060.1 697.767 1059.28 690.99 1061.26 687C1063.18 690.57 1064.22 699.231 1072 697.429C1069.24 699.736 1063.99 703.624 1061.9 714Z" fill="white"/>
<path fill-rule="evenodd" clip-rule="evenodd" d="M404.897 600C403.999 591.117 395.522 587.076 393 584.324C403.103 583.767 402.279 576.99 404.259 573C406.184 576.57 407.219 585.231 415 583.429C412.239 585.736 406.992 589.624 404.897 600Z" fill="white"/>
<path fill-rule="evenodd" clip-rule="evenodd" d="M901.667 154C900.667 143.905 898.25 135.166 888 133.56C899.083 135.251 900.5 120.914 900.5 115C901.75 119.609 903.75 135.59 913 132.98C906.25 135.082 904 142.208 901.667 154Z" fill="white"/>
<path fill-rule="evenodd" clip-rule="evenodd" d="M1121.41 430C1119.77 415.763 1115.81 403.44 1099 401.175C1117.18 403.56 1119.5 383.34 1119.5 375C1121.55 381.5 1124.83 404.038 1140 400.357C1128.93 403.32 1125.24 413.37 1121.41 430Z" fill="white"/>
</g>
<g filter="url(#filter1_f_193_4966)">
<circle cx="861" cy="43" r="7" fill="white"/>
</g>
<g filter="url(#filter2_f_193_4966)">
<circle cx="726" cy="158" r="7" fill="#BEBFBA"/>
</g>
<g filter="url(#filter3_f_193_4966)">
<circle cx="222" cy="700" r="7" fill="#D7C6AA"/>
</g>
<g filter="url(#filter4_f_193_4966)">
<circle cx="144" cy="674" r="7" fill="#A02446"/>
</g>
<g filter="url(#filter5_f_193_4966)">
<circle cx="156.5" cy="482.501" r="5.5" fill="#F3BE57"/>
</g>
<g filter="url(#filter6_f_193_4966)">
<circle cx="261" cy="399.001" r="7" fill="#B42850"/>
</g>
<g filter="url(#filter7_f_193_4966)">
<circle cx="797" cy="354.001" r="7" fill="#AEBB90"/>
</g>
<g filter="url(#filter8_f_193_4966)">
<circle cx="1099" cy="515" r="6" fill="#F4B75D"/>
</g>
<g filter="url(#filter9_f_193_4966)">
<circle cx="1009" cy="170" r="6" fill="#7DD4FF"/>
</g>
<g filter="url(#filter10_f_193_4966)">
<circle cx="713" cy="583.001" r="6" fill="#D4315E"/>
</g>
<g filter="url(#filter11_f_193_4966)">
<circle cx="833.5" cy="639.501" r="5.5" fill="#C3C2B9"/>
</g>
<g filter="url(#filter12_f_193_4966)">
<circle cx="501.361" cy="56.3612" r="6" transform="rotate(86.4377 501.361 56.3612)" fill="#E5C27F"/>
</g>
<g filter="url(#filter13_f_193_4966)">
<circle cx="38.0924" cy="26.3344" r="6" transform="rotate(86.4377 38.0924 26.3344)" fill="#C25220"/>
</g>
<g filter="url(#filter14_f_193_4966)">
<circle cx="631" cy="618.001" r="7" fill="#AEBB90"/>
</g>
<g filter="url(#filter15_f_193_4966)">
<circle cx="14.5" cy="415.5" r="5.5" fill="#F4B75D"/>
</g>
<g filter="url(#filter16_f_193_4966)">
<circle cx="1002.5" cy="548.5" r="5.5" fill="#7DD4FF"/>
</g>
<g filter="url(#filter17_f_193_4966)">
<circle cx="751" cy="438.001" r="6" fill="#D4315E"/>
</g>
<g filter="url(#filter18_f_193_4966)">
<circle cx="996.5" cy="680.501" r="5.5" fill="#C3C2B9"/>
</g>
<g filter="url(#filter19_f_193_4966)">
<circle cx="67.411" cy="151.254" r="5.5" transform="rotate(86.4377 67.411 151.254)" fill="#E5C27F"/>
</g>
<g filter="url(#filter20_f_193_4966)">
<circle cx="8.63195" cy="100.308" r="6" transform="rotate(86.4377 8.63195 100.308)" fill="#C25220"/>
</g>
<g filter="url(#filter21_f_193_4966)">
<circle cx="983" cy="76.001" r="4" fill="#AEBB90"/>
</g>
<g filter="url(#filter22_f_193_4966)">
<circle cx="1077" cy="152.001" r="4" fill="#F4B75D"/>
</g>
<g filter="url(#filter23_f_193_4966)">
<circle cx="987" cy="245.001" r="4" fill="#7DD4FF"/>
</g>
<g filter="url(#filter24_f_193_4966)">
<circle cx="900" cy="306.001" r="4" fill="#D4315E"/>
</g>
<g filter="url(#filter25_f_193_4966)">
<circle cx="1021" cy="363.001" r="4" fill="#C3C2B9"/>
</g>
<g filter="url(#filter26_f_193_4966)">
<circle cx="1071" cy="221.001" r="4" fill="#E5C27F"/>
</g>
<g filter="url(#filter27_f_193_4966)">
<circle cx="987" cy="294.001" r="4" fill="#C25220"/>
</g>
<g filter="url(#filter28_f_193_4966)">
<circle cx="983" cy="76.001" r="4" fill="#AEBB90"/>
</g>
<g filter="url(#filter29_f_193_4966)">
<circle cx="1077" cy="152.001" r="4" fill="#F4B75D"/>
</g>
<g filter="url(#filter30_f_193_4966)">
<circle cx="320" cy="501" r="4" fill="#7DD4FF"/>
</g>
<g filter="url(#filter31_f_193_4966)">
<circle cx="233" cy="562" r="4" fill="#D4315E"/>
</g>
<g filter="url(#filter32_f_193_4966)">
<circle cx="1021" cy="363.001" r="4" fill="#C3C2B9"/>
</g>
<g filter="url(#filter33_f_193_4966)">
<circle cx="404" cy="477" r="4" fill="#E5C27F"/>
</g>
<g filter="url(#filter34_f_193_4966)">
<circle cx="320" cy="550" r="4" fill="#C25220"/>
</g>
<g filter="url(#filter35_f_193_4966)">
<circle cx="584" cy="118" r="3" fill="#7DD4FF"/>
</g>
<g filter="url(#filter36_f_193_4966)">
<circle cx="497" cy="179" r="3" fill="#D4315E"/>
</g>
<g filter="url(#filter37_f_193_4966)">
<circle cx="668" cy="94" r="3" fill="#E5C27F"/>
</g>
<g filter="url(#filter38_f_193_4966)">
<circle cx="584" cy="167" r="3" fill="#C25220"/>
</g>
<g filter="url(#filter39_f_193_4966)">
<circle cx="5" cy="661" r="3" fill="#7DD4FF"/>
</g>
<g filter="url(#filter40_f_193_4966)">
<circle cx="88.9995" cy="637" r="3" fill="#E5C27F"/>
</g>
<g filter="url(#filter41_f_193_4966)">
<circle cx="5" cy="710" r="3" fill="#C25220"/>
</g>
<g filter="url(#filter42_f_193_4966)">
<circle cx="878" cy="492" r="4" fill="#7DD4FF"/>
</g>
<g filter="url(#filter43_f_193_4966)">
<circle cx="791" cy="553" r="4" fill="#D4315E"/>
</g>
<g filter="url(#filter44_f_193_4966)">
<circle cx="878" cy="541" r="4" fill="#C25220"/>
</g>
<g filter="url(#filter45_f_193_4966)">
<circle cx="144" cy="63" r="7" fill="#4699C0"/>
</g>
<g filter="url(#filter46_f_193_4966)">
<circle cx="345" cy="165.001" r="5" fill="white"/>
</g>
<g filter="url(#filter47_f_193_4966)">
<circle cx="49" cy="297" r="5" fill="#BEBFBA"/>
</g>
<g filter="url(#filter48_f_193_4966)">
<circle cx="160" cy="323" r="5" fill="#D7C6AA"/>
</g>
<g filter="url(#filter49_f_193_4966)">
<circle cx="110" cy="331" r="5" fill="#A02446"/>
</g>
<g filter="url(#filter50_f_193_4966)">
<circle cx="194" cy="184.001" r="5" fill="#F3BE57"/>
</g>
<g filter="url(#filter51_f_193_4966)">
<circle cx="297" cy="99.001" r="5" fill="#B42850"/>
</g>
<g filter="url(#filter52_f_193_4966)">
<circle cx="383" cy="276.001" r="5" fill="#4699C0"/>
</g>
<defs>
<filter id="filter0_f_193_4966" x="53" y="0" width="1088" height="715" filterUnits="userSpaceOnUse" color-interpolation-filters="sRGB">
<feFlood flood-opacity="0" result="BackgroundImageFix"/>
<feBlend mode="normal" in="SourceGraphic" in2="BackgroundImageFix" result="shape"/>
<feGaussianBlur stdDeviation="0.5" result="effect1_foregroundBlur_193_4966"/>
</filter>
<filter id="filter1_f_193_4966" x="852" y="34" width="18" height="18" filterUnits="userSpaceOnUse" color-interpolation-filters="sRGB">
<feFlood flood-opacity="0" result="BackgroundImageFix"/>
<feBlend mode="normal" in="SourceGraphic" in2="BackgroundImageFix" result="shape"/>
<feGaussianBlur stdDeviation="1" result="effect1_foregroundBlur_193_4966"/>
</filter>
<filter id="filter2_f_193_4966" x="717" y="149" width="18" height="18" filterUnits="userSpaceOnUse" color-interpolation-filters="sRGB">
<feFlood flood-opacity="0" result="BackgroundImageFix"/>
<feBlend mode="normal" in="SourceGraphic" in2="BackgroundImageFix" result="shape"/>
<feGaussianBlur stdDeviation="1" result="effect1_foregroundBlur_193_4966"/>
</filter>
<filter id="filter3_f_193_4966" x="213" y="691" width="18" height="18" filterUnits="userSpaceOnUse" color-interpolation-filters="sRGB">
<feFlood flood-opacity="0" result="BackgroundImageFix"/>
<feBlend mode="normal" in="SourceGraphic" in2="BackgroundImageFix" result="shape"/>
<feGaussianBlur stdDeviation="1" result="effect1_foregroundBlur_193_4966"/>
</filter>
<filter id="filter4_f_193_4966" x="135" y="665" width="18" height="18" filterUnits="userSpaceOnUse" color-interpolation-filters="sRGB">
<feFlood flood-opacity="0" result="BackgroundImageFix"/>
<feBlend mode="normal" in="SourceGraphic" in2="BackgroundImageFix" result="shape"/>
<feGaussianBlur stdDeviation="1" result="effect1_foregroundBlur_193_4966"/>
</filter>
<filter id="filter5_f_193_4966" x="149" y="475.001" width="15" height="15" filterUnits="userSpaceOnUse" color-interpolation-filters="sRGB">
<feFlood flood-opacity="0" result="BackgroundImageFix"/>
<feBlend mode="normal" in="SourceGraphic" in2="BackgroundImageFix" result="shape"/>
<feGaussianBlur stdDeviation="1" result="effect1_foregroundBlur_193_4966"/>
</filter>
<filter id="filter6_f_193_4966" x="252" y="390.001" width="18" height="18" filterUnits="userSpaceOnUse" color-interpolation-filters="sRGB">
<feFlood flood-opacity="0" result="BackgroundImageFix"/>
<feBlend mode="normal" in="SourceGraphic" in2="BackgroundImageFix" result="shape"/>
<feGaussianBlur stdDeviation="1" result="effect1_foregroundBlur_193_4966"/>
</filter>
<filter id="filter7_f_193_4966" x="788" y="345.001" width="18" height="18" filterUnits="userSpaceOnUse" color-interpolation-filters="sRGB">
<feFlood flood-opacity="0" result="BackgroundImageFix"/>
<feBlend mode="normal" in="SourceGraphic" in2="BackgroundImageFix" result="shape"/>
<feGaussianBlur stdDeviation="1" result="effect1_foregroundBlur_193_4966"/>
</filter>
<filter id="filter8_f_193_4966" x="1091" y="507" width="16" height="16" filterUnits="userSpaceOnUse" color-interpolation-filters="sRGB">
<feFlood flood-opacity="0" result="BackgroundImageFix"/>
<feBlend mode="normal" in="SourceGraphic" in2="BackgroundImageFix" result="shape"/>
<feGaussianBlur stdDeviation="1" result="effect1_foregroundBlur_193_4966"/>
</filter>
<filter id="filter9_f_193_4966" x="1001" y="162" width="16" height="16" filterUnits="userSpaceOnUse" color-interpolation-filters="sRGB">
<feFlood flood-opacity="0" result="BackgroundImageFix"/>
<feBlend mode="normal" in="SourceGraphic" in2="BackgroundImageFix" result="shape"/>
<feGaussianBlur stdDeviation="1" result="effect1_foregroundBlur_193_4966"/>
</filter>
<filter id="filter10_f_193_4966" x="705" y="575.001" width="16" height="16" filterUnits="userSpaceOnUse" color-interpolation-filters="sRGB">
<feFlood flood-opacity="0" result="BackgroundImageFix"/>
<feBlend mode="normal" in="SourceGraphic" in2="BackgroundImageFix" result="shape"/>
<feGaussianBlur stdDeviation="1" result="effect1_foregroundBlur_193_4966"/>
</filter>
<filter id="filter11_f_193_4966" x="826" y="632.001" width="15" height="15" filterUnits="userSpaceOnUse" color-interpolation-filters="sRGB">
<feFlood flood-opacity="0" result="BackgroundImageFix"/>
<feBlend mode="normal" in="SourceGraphic" in2="BackgroundImageFix" result="shape"/>
<feGaussianBlur stdDeviation="1" result="effect1_foregroundBlur_193_4966"/>
</filter>
<filter id="filter12_f_193_4966" x="493.361" y="48.3611" width="16.0002" height="16.0002" filterUnits="userSpaceOnUse" color-interpolation-filters="sRGB">
<feFlood flood-opacity="0" result="BackgroundImageFix"/>
<feBlend mode="normal" in="SourceGraphic" in2="BackgroundImageFix" result="shape"/>
<feGaussianBlur stdDeviation="1" result="effect1_foregroundBlur_193_4966"/>
</filter>
<filter id="filter13_f_193_4966" x="30.0923" y="18.3342" width="16.0005" height="16.0002" filterUnits="userSpaceOnUse" color-interpolation-filters="sRGB">
<feFlood flood-opacity="0" result="BackgroundImageFix"/>
<feBlend mode="normal" in="SourceGraphic" in2="BackgroundImageFix" result="shape"/>
<feGaussianBlur stdDeviation="1" result="effect1_foregroundBlur_193_4966"/>
</filter>
<filter id="filter14_f_193_4966" x="622" y="609.001" width="18" height="18" filterUnits="userSpaceOnUse" color-interpolation-filters="sRGB">
<feFlood flood-opacity="0" result="BackgroundImageFix"/>
<feBlend mode="normal" in="SourceGraphic" in2="BackgroundImageFix" result="shape"/>
<feGaussianBlur stdDeviation="1" result="effect1_foregroundBlur_193_4966"/>
</filter>
<filter id="filter15_f_193_4966" x="7" y="408" width="15" height="15" filterUnits="userSpaceOnUse" color-interpolation-filters="sRGB">
<feFlood flood-opacity="0" result="BackgroundImageFix"/>
<feBlend mode="normal" in="SourceGraphic" in2="BackgroundImageFix" result="shape"/>
<feGaussianBlur stdDeviation="1" result="effect1_foregroundBlur_193_4966"/>
</filter>
<filter id="filter16_f_193_4966" x="995" y="541" width="15" height="15" filterUnits="userSpaceOnUse" color-interpolation-filters="sRGB">
<feFlood flood-opacity="0" result="BackgroundImageFix"/>
<feBlend mode="normal" in="SourceGraphic" in2="BackgroundImageFix" result="shape"/>
<feGaussianBlur stdDeviation="1" result="effect1_foregroundBlur_193_4966"/>
</filter>
<filter id="filter17_f_193_4966" x="743" y="430.001" width="16" height="16" filterUnits="userSpaceOnUse" color-interpolation-filters="sRGB">
<feFlood flood-opacity="0" result="BackgroundImageFix"/>
<feBlend mode="normal" in="SourceGraphic" in2="BackgroundImageFix" result="shape"/>
<feGaussianBlur stdDeviation="1" result="effect1_foregroundBlur_193_4966"/>
</filter>
<filter id="filter18_f_193_4966" x="989" y="673.001" width="15" height="15" filterUnits="userSpaceOnUse" color-interpolation-filters="sRGB">
<feFlood flood-opacity="0" result="BackgroundImageFix"/>
<feBlend mode="normal" in="SourceGraphic" in2="BackgroundImageFix" result="shape"/>
<feGaussianBlur stdDeviation="1" result="effect1_foregroundBlur_193_4966"/>
</filter>
<filter id="filter19_f_193_4966" x="59.9106" y="143.754" width="15.0005" height="15.0005" filterUnits="userSpaceOnUse" color-interpolation-filters="sRGB">
<feFlood flood-opacity="0" result="BackgroundImageFix"/>
<feBlend mode="normal" in="SourceGraphic" in2="BackgroundImageFix" result="shape"/>
<feGaussianBlur stdDeviation="1" result="effect1_foregroundBlur_193_4966"/>
</filter>
<filter id="filter20_f_193_4966" x="0.631836" y="92.3076" width="16.0005" height="16.0002" filterUnits="userSpaceOnUse" color-interpolation-filters="sRGB">
<feFlood flood-opacity="0" result="BackgroundImageFix"/>
<feBlend mode="normal" in="SourceGraphic" in2="BackgroundImageFix" result="shape"/>
<feGaussianBlur stdDeviation="1" result="effect1_foregroundBlur_193_4966"/>
</filter>
<filter id="filter21_f_193_4966" x="977" y="70.001" width="12" height="12" filterUnits="userSpaceOnUse" color-interpolation-filters="sRGB">
<feFlood flood-opacity="0" result="BackgroundImageFix"/>
<feBlend mode="normal" in="SourceGraphic" in2="BackgroundImageFix" result="shape"/>
<feGaussianBlur stdDeviation="1" result="effect1_foregroundBlur_193_4966"/>
</filter>
<filter id="filter22_f_193_4966" x="1071" y="146.001" width="12" height="12" filterUnits="userSpaceOnUse" color-interpolation-filters="sRGB">
<feFlood flood-opacity="0" result="BackgroundImageFix"/>
<feBlend mode="normal" in="SourceGraphic" in2="BackgroundImageFix" result="shape"/>
<feGaussianBlur stdDeviation="1" result="effect1_foregroundBlur_193_4966"/>
</filter>
<filter id="filter23_f_193_4966" x="981" y="239.001" width="12" height="12" filterUnits="userSpaceOnUse" color-interpolation-filters="sRGB">
<feFlood flood-opacity="0" result="BackgroundImageFix"/>
<feBlend mode="normal" in="SourceGraphic" in2="BackgroundImageFix" result="shape"/>
<feGaussianBlur stdDeviation="1" result="effect1_foregroundBlur_193_4966"/>
</filter>
<filter id="filter24_f_193_4966" x="894" y="300.001" width="12" height="12" filterUnits="userSpaceOnUse" color-interpolation-filters="sRGB">
<feFlood flood-opacity="0" result="BackgroundImageFix"/>
<feBlend mode="normal" in="SourceGraphic" in2="BackgroundImageFix" result="shape"/>
<feGaussianBlur stdDeviation="1" result="effect1_foregroundBlur_193_4966"/>
</filter>
<filter id="filter25_f_193_4966" x="1015" y="357.001" width="12" height="12" filterUnits="userSpaceOnUse" color-interpolation-filters="sRGB">
<feFlood flood-opacity="0" result="BackgroundImageFix"/>
<feBlend mode="normal" in="SourceGraphic" in2="BackgroundImageFix" result="shape"/>
<feGaussianBlur stdDeviation="1" result="effect1_foregroundBlur_193_4966"/>
</filter>
<filter id="filter26_f_193_4966" x="1065" y="215.001" width="12" height="12" filterUnits="userSpaceOnUse" color-interpolation-filters="sRGB">
<feFlood flood-opacity="0" result="BackgroundImageFix"/>
<feBlend mode="normal" in="SourceGraphic" in2="BackgroundImageFix" result="shape"/>
<feGaussianBlur stdDeviation="1" result="effect1_foregroundBlur_193_4966"/>
</filter>
<filter id="filter27_f_193_4966" x="981" y="288.001" width="12" height="12" filterUnits="userSpaceOnUse" color-interpolation-filters="sRGB">
<feFlood flood-opacity="0" result="BackgroundImageFix"/>
<feBlend mode="normal" in="SourceGraphic" in2="BackgroundImageFix" result="shape"/>
<feGaussianBlur stdDeviation="1" result="effect1_foregroundBlur_193_4966"/>
</filter>
<filter id="filter28_f_193_4966" x="977" y="70.001" width="12" height="12" filterUnits="userSpaceOnUse" color-interpolation-filters="sRGB">
<feFlood flood-opacity="0" result="BackgroundImageFix"/>
<feBlend mode="normal" in="SourceGraphic" in2="BackgroundImageFix" result="shape"/>
<feGaussianBlur stdDeviation="1" result="effect1_foregroundBlur_193_4966"/>
</filter>
<filter id="filter29_f_193_4966" x="1071" y="146.001" width="12" height="12" filterUnits="userSpaceOnUse" color-interpolation-filters="sRGB">
<feFlood flood-opacity="0" result="BackgroundImageFix"/>
<feBlend mode="normal" in="SourceGraphic" in2="BackgroundImageFix" result="shape"/>
<feGaussianBlur stdDeviation="1" result="effect1_foregroundBlur_193_4966"/>
</filter>
<filter id="filter30_f_193_4966" x="314" y="495" width="12" height="12" filterUnits="userSpaceOnUse" color-interpolation-filters="sRGB">
<feFlood flood-opacity="0" result="BackgroundImageFix"/>
<feBlend mode="normal" in="SourceGraphic" in2="BackgroundImageFix" result="shape"/>
<feGaussianBlur stdDeviation="1" result="effect1_foregroundBlur_193_4966"/>
</filter>
<filter id="filter31_f_193_4966" x="227" y="556" width="12" height="12" filterUnits="userSpaceOnUse" color-interpolation-filters="sRGB">
<feFlood flood-opacity="0" result="BackgroundImageFix"/>
<feBlend mode="normal" in="SourceGraphic" in2="BackgroundImageFix" result="shape"/>
<feGaussianBlur stdDeviation="1" result="effect1_foregroundBlur_193_4966"/>
</filter>
<filter id="filter32_f_193_4966" x="1015" y="357.001" width="12" height="12" filterUnits="userSpaceOnUse" color-interpolation-filters="sRGB">
<feFlood flood-opacity="0" result="BackgroundImageFix"/>
<feBlend mode="normal" in="SourceGraphic" in2="BackgroundImageFix" result="shape"/>
<feGaussianBlur stdDeviation="1" result="effect1_foregroundBlur_193_4966"/>
</filter>
<filter id="filter33_f_193_4966" x="398" y="471" width="12" height="12" filterUnits="userSpaceOnUse" color-interpolation-filters="sRGB">
<feFlood flood-opacity="0" result="BackgroundImageFix"/>
<feBlend mode="normal" in="SourceGraphic" in2="BackgroundImageFix" result="shape"/>
<feGaussianBlur stdDeviation="1" result="effect1_foregroundBlur_193_4966"/>
</filter>
<filter id="filter34_f_193_4966" x="314" y="544" width="12" height="12" filterUnits="userSpaceOnUse" color-interpolation-filters="sRGB">
<feFlood flood-opacity="0" result="BackgroundImageFix"/>
<feBlend mode="normal" in="SourceGraphic" in2="BackgroundImageFix" result="shape"/>
<feGaussianBlur stdDeviation="1" result="effect1_foregroundBlur_193_4966"/>
</filter>
<filter id="filter35_f_193_4966" x="579" y="113" width="10" height="10" filterUnits="userSpaceOnUse" color-interpolation-filters="sRGB">
<feFlood flood-opacity="0" result="BackgroundImageFix"/>
<feBlend mode="normal" in="SourceGraphic" in2="BackgroundImageFix" result="shape"/>
<feGaussianBlur stdDeviation="1" result="effect1_foregroundBlur_193_4966"/>
</filter>
<filter id="filter36_f_193_4966" x="492" y="174" width="10" height="10" filterUnits="userSpaceOnUse" color-interpolation-filters="sRGB">
<feFlood flood-opacity="0" result="BackgroundImageFix"/>
<feBlend mode="normal" in="SourceGraphic" in2="BackgroundImageFix" result="shape"/>
<feGaussianBlur stdDeviation="1" result="effect1_foregroundBlur_193_4966"/>
</filter>
<filter id="filter37_f_193_4966" x="663" y="89" width="10" height="10" filterUnits="userSpaceOnUse" color-interpolation-filters="sRGB">
<feFlood flood-opacity="0" result="BackgroundImageFix"/>
<feBlend mode="normal" in="SourceGraphic" in2="BackgroundImageFix" result="shape"/>
<feGaussianBlur stdDeviation="1" result="effect1_foregroundBlur_193_4966"/>
</filter>
<filter id="filter38_f_193_4966" x="579" y="162" width="10" height="10" filterUnits="userSpaceOnUse" color-interpolation-filters="sRGB">
<feFlood flood-opacity="0" result="BackgroundImageFix"/>
<feBlend mode="normal" in="SourceGraphic" in2="BackgroundImageFix" result="shape"/>
<feGaussianBlur stdDeviation="1" result="effect1_foregroundBlur_193_4966"/>
</filter>
<filter id="filter39_f_193_4966" x="0" y="656" width="10" height="10" filterUnits="userSpaceOnUse" color-interpolation-filters="sRGB">
<feFlood flood-opacity="0" result="BackgroundImageFix"/>
<feBlend mode="normal" in="SourceGraphic" in2="BackgroundImageFix" result="shape"/>
<feGaussianBlur stdDeviation="1" result="effect1_foregroundBlur_193_4966"/>
</filter>
<filter id="filter40_f_193_4966" x="83.9995" y="632" width="10" height="10" filterUnits="userSpaceOnUse" color-interpolation-filters="sRGB">
<feFlood flood-opacity="0" result="BackgroundImageFix"/>
<feBlend mode="normal" in="SourceGraphic" in2="BackgroundImageFix" result="shape"/>
<feGaussianBlur stdDeviation="1" result="effect1_foregroundBlur_193_4966"/>
</filter>
<filter id="filter41_f_193_4966" x="0" y="705" width="10" height="10" filterUnits="userSpaceOnUse" color-interpolation-filters="sRGB">
<feFlood flood-opacity="0" result="BackgroundImageFix"/>
<feBlend mode="normal" in="SourceGraphic" in2="BackgroundImageFix" result="shape"/>
<feGaussianBlur stdDeviation="1" result="effect1_foregroundBlur_193_4966"/>
</filter>
<filter id="filter42_f_193_4966" x="872" y="486" width="12" height="12" filterUnits="userSpaceOnUse" color-interpolation-filters="sRGB">
<feFlood flood-opacity="0" result="BackgroundImageFix"/>
<feBlend mode="normal" in="SourceGraphic" in2="BackgroundImageFix" result="shape"/>
<feGaussianBlur stdDeviation="1" result="effect1_foregroundBlur_193_4966"/>
</filter>
<filter id="filter43_f_193_4966" x="785" y="547" width="12" height="12" filterUnits="userSpaceOnUse" color-interpolation-filters="sRGB">
<feFlood flood-opacity="0" result="BackgroundImageFix"/>
<feBlend mode="normal" in="SourceGraphic" in2="BackgroundImageFix" result="shape"/>
<feGaussianBlur stdDeviation="1" result="effect1_foregroundBlur_193_4966"/>
</filter>
<filter id="filter44_f_193_4966" x="872" y="535" width="12" height="12" filterUnits="userSpaceOnUse" color-interpolation-filters="sRGB">
<feFlood flood-opacity="0" result="BackgroundImageFix"/>
<feBlend mode="normal" in="SourceGraphic" in2="BackgroundImageFix" result="shape"/>
<feGaussianBlur stdDeviation="1" result="effect1_foregroundBlur_193_4966"/>
</filter>
<filter id="filter45_f_193_4966" x="135" y="54" width="18" height="18" filterUnits="userSpaceOnUse" color-interpolation-filters="sRGB">
<feFlood flood-opacity="0" result="BackgroundImageFix"/>
<feBlend mode="normal" in="SourceGraphic" in2="BackgroundImageFix" result="shape"/>
<feGaussianBlur stdDeviation="1" result="effect1_foregroundBlur_193_4966"/>
</filter>
<filter id="filter46_f_193_4966" x="338" y="158.001" width="14" height="14" filterUnits="userSpaceOnUse" color-interpolation-filters="sRGB">
<feFlood flood-opacity="0" result="BackgroundImageFix"/>
<feBlend mode="normal" in="SourceGraphic" in2="BackgroundImageFix" result="shape"/>
<feGaussianBlur stdDeviation="1" result="effect1_foregroundBlur_193_4966"/>
</filter>
<filter id="filter47_f_193_4966" x="42" y="290" width="14" height="14" filterUnits="userSpaceOnUse" color-interpolation-filters="sRGB">
<feFlood flood-opacity="0" result="BackgroundImageFix"/>
<feBlend mode="normal" in="SourceGraphic" in2="BackgroundImageFix" result="shape"/>
<feGaussianBlur stdDeviation="1" result="effect1_foregroundBlur_193_4966"/>
</filter>
<filter id="filter48_f_193_4966" x="153" y="316" width="14" height="14" filterUnits="userSpaceOnUse" color-interpolation-filters="sRGB">
<feFlood flood-opacity="0" result="BackgroundImageFix"/>
<feBlend mode="normal" in="SourceGraphic" in2="BackgroundImageFix" result="shape"/>
<feGaussianBlur stdDeviation="1" result="effect1_foregroundBlur_193_4966"/>
</filter>
<filter id="filter49_f_193_4966" x="103" y="324" width="14" height="14" filterUnits="userSpaceOnUse" color-interpolation-filters="sRGB">
<feFlood flood-opacity="0" result="BackgroundImageFix"/>
<feBlend mode="normal" in="SourceGraphic" in2="BackgroundImageFix" result="shape"/>
<feGaussianBlur stdDeviation="1" result="effect1_foregroundBlur_193_4966"/>
</filter>
<filter id="filter50_f_193_4966" x="187" y="177.001" width="14" height="14" filterUnits="userSpaceOnUse" color-interpolation-filters="sRGB">
<feFlood flood-opacity="0" result="BackgroundImageFix"/>
<feBlend mode="normal" in="SourceGraphic" in2="BackgroundImageFix" result="shape"/>
<feGaussianBlur stdDeviation="1" result="effect1_foregroundBlur_193_4966"/>
</filter>
<filter id="filter51_f_193_4966" x="290" y="92.001" width="14" height="14" filterUnits="userSpaceOnUse" color-interpolation-filters="sRGB">
<feFlood flood-opacity="0" result="BackgroundImageFix"/>
<feBlend mode="normal" in="SourceGraphic" in2="BackgroundImageFix" result="shape"/>
<feGaussianBlur stdDeviation="1" result="effect1_foregroundBlur_193_4966"/>
</filter>
<filter id="filter52_f_193_4966" x="376" y="269.001" width="14" height="14" filterUnits="userSpaceOnUse" color-interpolation-filters="sRGB">
<feFlood flood-opacity="0" result="BackgroundImageFix"/>
<feBlend mode="normal" in="SourceGraphic" in2="BackgroundImageFix" result="shape"/>
<feGaussianBlur stdDeviation="1" result="effect1_foregroundBlur_193_4966"/>
</filter>
</defs>
</svg>
