<svg width="1088" height="736" viewBox="0 0 1088 736" fill="none" xmlns="http://www.w3.org/2000/svg">
<g filter="url(#filter0_f_106_2932)">
<path fill-rule="evenodd" clip-rule="evenodd" d="M734.111 246.529C738.923 246.062 743.761 245.045 748.546 245.257C755.434 245.566 758.53 242.393 759.277 235.998C759.894 230.736 760.58 225.48 761.235 220.221C762.033 220.148 762.831 220.073 763.629 220C764.339 223.611 765.224 227.2 765.73 230.841C767.651 244.66 767.712 244.75 781.811 245.494C784.945 245.66 788.074 245.935 791.208 246.158C791.291 246.974 791.373 247.788 791.456 248.604C788.092 249.249 784.746 249.994 781.363 250.52C770.169 252.266 768.613 253.718 767.87 264.914C767.224 274.644 767.052 284.406 766.468 294.142C766.28 297.233 765.438 300.283 764.894 303.353C764.106 303.426 763.319 303.5 762.532 303.574C761.843 301.06 760.762 298.58 760.533 296.024C759.547 284.96 758.511 273.886 758.088 262.791C757.832 256.059 754.89 253.029 748.349 252.455C743.534 252.033 738.781 250.922 734 250.118C734.037 248.922 734.074 247.725 734.111 246.529Z" fill="white"/>
<path fill-rule="evenodd" clip-rule="evenodd" d="M340.897 78C339.999 69.1173 331.522 65.0764 329 62.3245C339.103 61.7666 338.279 54.9903 340.259 51C342.184 54.5702 343.219 63.231 351 61.4287C348.239 63.7362 342.992 67.6244 340.897 78Z" fill="white"/>
<path fill-rule="evenodd" clip-rule="evenodd" d="M130.897 28C129.999 19.1173 121.522 15.0764 119 12.3245C129.103 11.7666 128.279 4.99032 130.259 1C132.184 4.57022 133.219 13.231 141 11.4287C138.239 13.7362 132.992 17.6244 130.897 28Z" fill="white"/>
<path fill-rule="evenodd" clip-rule="evenodd" d="M154.667 475C153.667 464.905 151.25 456.166 141 454.56C152.083 456.251 153.5 441.914 153.5 436C154.75 440.609 156.75 456.59 166 453.98C159.25 456.082 157 463.208 154.667 475Z" fill="white"/>
<path fill-rule="evenodd" clip-rule="evenodd" d="M1.10984 557.316C5.88433 556.958 10.6837 556.179 15.4301 556.342C22.2636 556.578 25.3354 554.148 26.0763 549.251C26.6881 545.221 27.3689 541.197 28.019 537.169C28.8103 537.113 29.6022 537.056 30.3935 537C31.0985 539.766 31.9767 542.514 32.478 545.302C34.3844 555.885 34.4444 555.954 48.4319 556.523C51.5408 556.65 54.6453 556.861 57.7542 557.032C57.8359 557.656 57.9176 558.28 58 558.904C54.6631 559.398 51.3428 559.969 47.9874 560.372C36.8821 561.709 35.3385 562.821 34.6009 571.395C33.9603 578.846 33.7898 586.321 33.2099 593.778C33.0234 596.144 32.1881 598.48 31.6491 600.831C30.8667 600.887 30.0863 600.944 29.3059 601C28.6219 599.075 27.5496 597.176 27.3229 595.218C26.3439 586.746 25.3169 578.265 24.8973 569.769C24.6425 564.614 21.7246 562.293 15.2347 561.854C10.4583 561.531 5.74319 560.68 1 560.064C1.03704 559.148 1.07344 558.232 1.10984 557.316Z" fill="white"/>
<path fill-rule="evenodd" clip-rule="evenodd" d="M184.06 215.38C186.656 215.162 189.267 214.687 191.848 214.786C195.564 214.93 197.235 213.45 197.638 210.465C197.971 208.01 198.341 205.557 198.695 203.103C199.125 203.069 199.556 203.034 199.986 203C200.369 204.685 200.847 206.36 201.12 208.059C202.156 214.508 202.189 214.55 209.796 214.897C211.487 214.974 213.176 215.103 214.866 215.207C214.911 215.587 214.955 215.968 215 216.348C213.185 216.649 211.379 216.997 209.555 217.242C203.515 218.057 202.675 218.735 202.274 223.959C201.926 228.5 201.833 233.055 201.518 237.599C201.416 239.041 200.962 240.464 200.669 241.897C200.243 241.931 199.819 241.966 199.394 242C199.022 240.827 198.439 239.67 198.316 238.477C197.784 233.314 197.225 228.146 196.997 222.968C196.858 219.827 195.271 218.413 191.742 218.145C189.144 217.948 186.58 217.43 184 217.055C184.02 216.496 184.04 215.938 184.06 215.38Z" fill="white"/>
<path fill-rule="evenodd" clip-rule="evenodd" d="M1008.9 735C1008 726.117 999.522 722.076 997 719.324C1007.1 718.767 1006.28 711.99 1008.26 708C1010.18 711.57 1011.22 720.231 1019 718.429C1016.24 720.736 1010.99 724.624 1008.9 735Z" fill="white"/>
<path fill-rule="evenodd" clip-rule="evenodd" d="M351.897 621C350.999 612.117 342.522 608.076 340 605.324C350.103 604.767 349.279 597.99 351.259 594C353.184 597.57 354.219 606.231 362 604.429C359.239 606.736 353.992 610.624 351.897 621Z" fill="white"/>
<path fill-rule="evenodd" clip-rule="evenodd" d="M848.667 175C847.667 164.905 845.25 156.166 835 154.56C846.083 156.251 847.5 141.914 847.5 136C848.75 140.609 850.75 156.59 860 153.98C853.25 156.082 851 163.208 848.667 175Z" fill="white"/>
<path fill-rule="evenodd" clip-rule="evenodd" d="M1068.41 451C1066.77 436.763 1062.81 424.44 1046 422.175C1064.18 424.56 1066.5 404.34 1066.5 396C1068.55 402.5 1071.83 425.038 1087 421.357C1075.93 424.32 1072.24 434.37 1068.41 451Z" fill="white"/>
</g>
<defs>
<filter id="filter0_f_106_2932" x="0" y="0" width="1088" height="736" filterUnits="userSpaceOnUse" color-interpolation-filters="sRGB">
<feFlood flood-opacity="0" result="BackgroundImageFix"/>
<feBlend mode="normal" in="SourceGraphic" in2="BackgroundImageFix" result="shape"/>
<feGaussianBlur stdDeviation="0.5" result="effect1_foregroundBlur_106_2932"/>
</filter>
</defs>
</svg>
