<svg width="1407" height="388" viewBox="0 0 1407 388" fill="none" xmlns="http://www.w3.org/2000/svg">
<path d="M114.999 0C114.999 0 117.373 28.9273 124.475 34.3207C128.954 37.7245 147 34.3207 147 34.3207C147 34.3207 134.251 46.9433 133.826 52.5396C133.367 58.5908 144.927 74.1493 144.927 74.1493C144.927 74.1493 124.571 61.7483 117.251 63.1321C110.105 64.4826 96.0488 83 96.0488 83C96.0488 83 100.804 59.8181 98.104 52.728C96.2232 47.7925 83 37.9231 83 37.9231C83 37.9231 103.062 38.3708 107.589 34.1164C113.956 28.1304 114.999 0 114.999 0Z" fill="#BCDC33"/>
<path d="M1340.31 339L1354.75 354.698L1366.37 356.583L1359.92 366.751L1366.37 384.84L1350.99 376.049L1340.62 387.98L1340 370.711L1327.12 361.292L1339.22 358.574L1340.31 339Z" fill="#BCDC33"/>
<path d="M472.119 339.001C472.119 339.001 482.227 338.184 484.111 335.743C485.3 334.203 484.111 328 484.111 328C484.111 328 488.521 332.383 490.477 332.528C492.591 332.686 498.027 328.712 498.027 328.712C498.027 328.712 493.694 335.71 494.178 338.226C494.649 340.683 501.119 345.514 501.119 345.514C501.119 345.514 493.02 343.88 490.542 344.808C488.818 345.455 485.37 350 485.37 350C485.37 350 485.526 343.104 484.04 341.548C481.948 339.359 472.119 339.001 472.119 339.001Z" fill="#BCDC33"/>
<path d="M910.119 61.9884L926.615 55.9542L930.15 42L937.058 51.4202L954.326 50.1638L946.79 60.2122L954.326 68.0624L934.825 68.8968L926.697 78.7391L924.499 66.1799L910.119 61.9884Z" fill="#BCDC33"/>
<path d="M21.0649 232.611L30.4092 249.003L40.0531 252.928L32.48 260.417L34.4597 277.287L22.9352 266.663L11.6398 274.897L14.5173 259.886L5.28259 249.218L16.2479 249.268L21.0649 232.611Z" fill="#BCDC33"/>
<path d="M1362.12 87.0008L1380.31 81.9665L1380.31 70L1389.97 76.9986L1401.43 71.1011C1401.43 71.1011 1394.85 81.9155 1395.59 85.804C1396.3 89.6006 1406.12 97.0678 1406.12 97.0678L1390.07 95.976L1382.22 104L1380.21 90.9371L1362.12 87.0008Z" fill="#BCDC33"/>
</svg>
