<svg width="416" height="281" viewBox="0 0 416 281" fill="none" xmlns="http://www.w3.org/2000/svg">
<path d="M348.497 117.993C348.457 133.848 348.417 149.082 348.369 164.475C363.611 163.206 378.988 160.702 393.44 153.906C396.659 152.393 399.79 150.409 402.531 148.073C408.434 143.033 408.354 137.882 401.795 133.748C396.068 130.144 389.877 127.111 383.558 124.842C372.023 120.708 360.008 118.8 348.497 117.993Z" fill="#EB621A" stroke="black" stroke-width="7" stroke-miterlimit="10"/>
<path d="M259.965 41.8698C280.77 18.4017 305.613 7.48921 335.303 11.2035C365.694 15.0188 387.638 32.3292 402.062 60.304C397.277 60.507 392.826 60.6454 388.374 60.9036C371.654 61.8718 356.187 66.9781 342.112 76.5918C340.114 77.9558 338.537 79.3938 335.645 77.3656C313.124 61.5857 288.736 50.0728 262.524 42.9018C261.972 42.7541 261.455 42.4773 259.965 41.8698Z" fill="#154F99"/>
<path d="M90.6413 70.9964C91.1493 70.7389 91.7452 70.6737 91.9204 70.6184C91.885 117.573 91.8591 164.526 91.8325 211.737C75.1737 203.396 59.3032 193.155 45.5532 179.937C34.4501 169.264 24.5654 157.189 14.1189 145.768C11.4904 142.892 10.8768 140.569 13.6103 136.846C34.4071 108.52 60.1889 86.7577 90.6413 70.9964Z" fill="#D9DEF4"/>
<path d="M298.865 67.5032C301.67 68.7941 302.984 70.3145 302.967 73.8911C302.721 118.945 302.642 164.01 302.625 209.064C302.625 211.893 301.889 213.442 299.356 214.594C235.673 243.555 171.473 245.906 106.616 219.083C103.838 217.931 102.664 216.566 102.672 213.193C102.795 165.078 102.76 116.963 102.786 68.8486C102.786 67.41 103.058 65.972 103.172 64.7837C104.757 64.0371 105.8 63.4928 106.879 63.0603C171.447 37.242 235.445 38.3673 298.865 67.5032ZM265.258 140.496C265.258 99.8105 233.903 66.8298 195.221 66.8298C156.532 66.8298 125.177 99.8098 125.177 140.496C125.177 181.191 156.532 214.17 195.221 214.17C233.903 214.171 265.258 181.191 265.258 140.496Z" fill="#4B7BB9"/>
<path d="M325.857 82.4627C333.113 85.9468 335.277 91.1922 335.102 99.69C334.507 129.158 334.822 158.654 334.971 188.14C334.988 191.615 334.086 193.874 331.247 195.597C325.235 199.247 319.32 203.082 313.019 207.064C313.037 162.599 313.063 118.955 313.09 74.6735C317.286 77.274 321.379 80.3155 325.857 82.4627Z" fill="#23D0F0"/>
<path d="M195.222 66.8298C233.902 66.8298 265.258 99.8098 265.258 140.496C265.258 181.191 233.903 214.17 195.222 214.17C156.532 214.17 125.177 181.19 125.177 140.496C125.177 99.8105 156.532 66.8298 195.222 66.8298Z" fill="#CEF2EE"/>
<path d="M282.697 233.195C275.888 235.629 268.983 237.777 262.016 240.09C275.213 258.479 303.334 273.89 334.023 270.065C364.888 266.23 387.497 249.297 402.964 219.848C380.784 221.738 361.163 216.945 343.268 205.091C340.508 203.275 338.755 203.643 336.363 205.321C319.609 217.019 301.749 226.393 282.697 233.195ZM335.101 99.6906C335.277 91.192 333.113 85.9474 325.856 82.4633C321.379 80.3161 317.286 77.2746 313.088 74.6748C313.062 118.955 313.036 162.6 313.018 207.065C319.319 203.083 325.234 199.249 331.246 195.598C334.085 193.875 334.987 191.616 334.97 188.142C334.821 158.654 334.506 129.159 335.101 99.6906ZM335.303 11.2035C305.613 7.48854 280.77 18.4018 259.965 41.8699C261.455 42.478 261.972 42.7541 262.524 42.9019C288.736 50.0729 313.124 61.5857 335.645 77.3657C338.537 79.3938 340.114 77.9559 342.112 76.5918C356.187 66.9781 371.653 61.8718 388.374 60.9036C392.825 60.6455 397.278 60.507 402.062 60.3041C387.638 32.3293 365.694 15.0189 335.303 11.2035ZM302.967 73.8909C302.985 70.3144 301.67 68.794 298.866 67.5031C235.446 38.3672 171.447 37.2426 106.88 63.0609C105.802 63.4941 104.759 64.0377 103.172 64.7843C103.059 65.9727 102.787 67.4106 102.787 68.8493C102.761 116.964 102.796 165.079 102.673 213.194C102.664 216.568 103.839 217.932 106.617 219.084C171.475 245.907 235.674 243.556 299.357 214.595C301.89 213.442 302.626 211.894 302.626 209.065C302.642 164.01 302.721 118.945 302.967 73.8909ZM344.321 91.4589C344.488 96.0215 344.137 100.603 344.032 104.243C347.152 104.945 350.236 105.607 353.285 106.253C353.697 130.31 355.669 155.086 348.369 178.158C347.073 178.352 345.758 178.555 344.435 178.766C344.548 183.154 344.496 187.854 344.89 192.519C344.987 193.689 346.284 195.063 347.362 195.791C365.501 208.013 385.262 212.115 406.54 208.769C408.819 208.419 411.71 208.493 413.515 209.7C416.258 211.543 415.373 214.788 414.225 217.59C399.476 253.732 373.572 275.226 336.565 280.102C303.483 284.462 275.336 272.912 253.331 246.155C250.921 243.224 248.695 242.486 245.12 243.15C188.544 253.658 134.29 246.265 82.8236 219.01C50.3557 201.828 23.3473 177.753 2.02539 146.681C-0.699926 142.698 -0.673336 139.583 2.09562 135.592C24.88 102.888 53.7117 77.8261 88.4051 60.3593C138.242 35.2704 190.48 28.818 244.699 39.0858C247.573 39.6301 249.247 39.1876 251.253 36.5972C284.3 -6.00578 344.443 -12.2739 385.192 22.3283C398.293 33.4624 407.635 47.3534 413.848 63.6684C416.433 70.4801 413.848 73.716 407.013 72.5355C385.972 68.913 366.29 72.6732 348.027 84.4162C345.381 86.1224 344.198 88.1133 344.321 91.4589ZM13.6112 136.845C10.8771 140.569 11.4907 142.892 14.1199 145.768C24.5657 157.188 34.451 169.263 45.5541 179.937C59.3042 193.154 75.174 203.395 91.8334 211.737C91.86 164.525 91.8859 117.572 91.9214 70.6178C91.7462 70.673 91.1502 70.7383 90.6423 70.9957C60.1885 86.7578 34.4067 108.52 13.6112 136.845Z" fill="black"/>
<path d="M343.269 205.091C361.164 216.945 380.785 221.738 402.965 219.849C387.498 249.298 364.889 266.23 334.025 270.065C303.336 273.89 275.214 258.479 262.017 240.09C268.983 237.777 275.889 235.629 282.699 233.196C301.75 226.394 319.61 217.019 336.365 205.322C338.757 203.644 340.509 203.275 343.269 205.091Z" fill="#154F99"/>
<path d="M195.222 66.8298C233.902 66.8298 265.258 99.8098 265.258 140.496C265.258 181.191 233.903 214.17 195.222 214.17C156.532 214.17 125.177 181.19 125.177 140.496C125.177 99.8105 156.532 66.8298 195.222 66.8298Z" stroke="black" stroke-width="15" stroke-miterlimit="10"/>
<path d="M371.189 85.329L371.189 193.48L340.506 172.484L340.506 107.712L371.189 85.329Z" fill="#B9534F"/>
<path d="M367.622 85.3292C367.622 119.971 367.622 154.613 367.622 189.254C367.622 190.663 367.622 192.071 367.622 193.48C369.332 192.448 371.042 191.416 372.751 190.384C362.528 183.386 352.304 176.387 342.08 169.388C342.643 170.42 343.206 171.452 343.769 172.484C343.769 150.894 343.769 129.303 343.769 107.713C343.207 108.745 342.643 109.777 342.08 110.809C352.304 103.348 362.528 95.8867 372.751 88.426C376.337 85.8097 372.934 79.5897 369.31 82.2332C362.649 87.0934 355.989 91.9544 349.328 96.8147C346.031 99.2201 342.735 101.626 339.438 104.032C337.495 105.45 336.95 107.016 336.95 109.375C336.95 128.767 336.95 148.16 336.95 167.553C336.95 170.108 336.277 173.964 338.639 175.58C341.29 177.395 343.94 179.209 346.591 181.024C354.164 186.208 361.737 191.393 369.31 196.576C371.511 198.083 374.44 196.099 374.44 193.48C374.44 158.839 374.44 124.198 374.44 89.5555C374.44 88.1469 374.44 86.7377 374.44 85.3292C374.44 80.7049 367.622 80.7049 367.622 85.3292Z" fill="black"/>
</svg>
