<svg width="364" height="387" viewBox="0 0 364 387" fill="none" xmlns="http://www.w3.org/2000/svg">
<path d="M289.958 248.952C297.58 251.764 307.141 260.977 299.927 269.093C296.35 273.114 289.606 275.018 284.562 276.288C276.052 278.434 267.433 280.074 258.755 281.384C244.544 283.53 228.745 284.408 217.642 294.722C213.081 298.958 216.017 303.446 221.09 305.879C224.896 307.702 228.916 308.446 232.015 311.525C234.832 314.323 236.549 318.191 237.028 322.105C237.561 326.45 235.356 332.839 232.823 336.302C228.323 342.45 222.046 342.886 215.398 340.223C209.013 337.664 203.148 333.993 196.758 331.447C178.468 324.162 159.056 319.978 140.722 312.724C131.57 309.1 122.114 305.473 114.096 299.649C101.878 290.777 89.66 276.136 79.8495 264.563C70.8575 253.954 64.9341 241.061 59.3024 228.454C43.9314 194.049 31.0953 155.177 37.8963 117.133C38.9887 111.018 40.0593 99.5803 46.0794 96.0682C46.5458 95.7989 47.0386 95.5875 47.5685 95.4472C61.9732 91.6033 74.0146 107.489 77.5273 119.501C78.6598 123.376 79.5347 127.588 78.8811 131.571C83.1028 129.96 89.5031 127.757 92.6557 124.397C94.5948 122.325 94.8309 107.584 94.8309 107.584C94.8763 104.618 92.503 100.821 91.0115 98.4708C88.2677 94.143 82.3303 90.6724 81.9739 85.1766C81.5903 79.2957 87.4758 76.7843 92.3258 75.9312C99.0731 74.7417 104.499 75.3482 110.221 79.2246C115.03 82.4807 118.783 87.0966 123.101 90.9395C128.873 96.0749 134.785 101.051 140.809 105.889C145.602 109.738 150.244 113.593 154.594 117.939C166.971 130.293 173.75 144.944 179.134 161.373C181.685 169.166 185.102 176.631 188.407 184.121C191.557 191.255 194.368 198.686 199.191 204.907C202.038 208.579 205.354 211.87 208.942 214.816C213.012 218.16 217.409 221.076 221.931 223.773C229.91 228.539 238.277 232.616 246.263 237.371C252.816 241.279 259.648 245.179 267.354 246.053C271.969 246.58 276.687 246.298 281.321 246.804C284.209 247.116 287.243 247.951 289.958 248.952Z" fill="black"/>
<path d="M46.0804 96.0683C40.0603 99.5804 38.9896 111.018 37.8973 117.133C31.0963 155.178 43.9324 194.049 59.3034 228.454C64.9351 241.062 70.8585 253.955 79.8505 264.564C89.6609 276.136 101.879 290.777 114.097 299.65C122.115 305.473 131.571 309.1 140.723 312.724C159.058 319.978 178.469 324.162 196.759 331.447C203.149 333.993 209.013 337.663 215.399 340.223C222.047 342.886 228.324 342.45 232.824 336.302C235.357 332.839 237.562 326.45 237.029 322.105C236.551 318.191 234.834 314.323 232.016 311.526C228.916 308.446 224.897 307.702 221.091 305.879C216.018 303.446 213.082 298.959 217.643 294.722C228.746 284.408 244.544 283.53 258.756 281.384C267.434 280.074 276.053 278.434 284.563 276.288C289.607 275.018 296.351 273.114 299.928 269.093C307.142 260.977 297.581 251.764 289.959 248.952C287.244 247.951 284.21 247.117 281.323 246.804C276.688 246.298 271.97 246.581 267.355 246.054C259.65 245.18 252.818 241.279 246.265 237.372C238.279 232.617 229.912 228.539 221.932 223.774C217.411 221.076 213.013 218.16 208.943 214.817C205.356 211.871 202.04 208.579 199.193 204.908C194.37 198.687 191.559 191.256 188.409 184.122C185.103 176.632 181.686 169.166 179.135 161.374C173.752 144.945 166.973 130.293 154.596 117.94C150.245 113.594 145.604 109.738 140.811 105.89C134.786 101.052 128.875 96.0755 123.103 90.9401C118.784 87.0972 115.031 82.4813 110.223 79.2252C104.5 75.3488 99.0744 74.7424 92.3273 75.9318C87.4774 76.7849 81.5918 79.2963 81.9755 85.1772C82.3318 90.6729 88.2693 94.1436 91.0131 98.4713C92.5046 100.822 94.8779 104.619 94.8325 107.585C94.8325 107.585 94.5964 122.326 92.6573 124.398C89.5047 127.758 83.1044 129.961 78.8827 131.572C79.5363 127.588 78.6614 123.376 77.5289 119.501C74.0161 107.489 61.9748 91.6039 47.57 95.4477C47.0396 95.5876 46.5468 95.7991 46.0804 96.0683Z" stroke="#575757" stroke-width="7" stroke-miterlimit="10"/>
<path d="M109.134 138.828C103.387 136.137 97.4138 139.96 91.979 142.698C90.0137 143.687 88.7945 145.109 88.0343 146.825C86.5741 147.474 85.165 148.229 83.8625 149.038C83.7861 148.363 83.8231 147.56 83.9851 146.611C85.0355 140.528 88.6583 134.615 91.286 129.123C95.2003 120.947 98.9075 112.69 101.982 104.157C107.376 89.1727 109.393 70.9281 119.278 58.0092C129.57 44.5642 148.052 40.628 163.887 38.3347C172.76 37.0494 181.716 36.3516 190.673 35.967C194.599 35.7998 198.529 35.6939 202.457 35.629C209.569 35.5116 215.146 36.0938 221.387 32.0181C226.456 28.7096 228.163 21.5657 225.969 15.4591C229.844 16.6027 231.611 20.3327 234.034 23.2674C242.706 33.7732 245.426 46.4264 237.329 58.215C227.836 72.0401 210.561 77.6044 194.601 79.0588C178.99 80.4823 161.802 76.9423 146.655 81.7195C133.91 85.741 130.403 97.7218 126.572 109.187C123.054 119.715 118.342 129.653 111.102 137.769C110.452 138.13 109.792 138.481 109.134 138.828Z" fill="black"/>
<path d="M111.103 137.769C118.343 129.654 123.054 119.715 126.573 109.187C130.404 97.7221 133.911 85.7413 146.656 81.7197C161.804 76.9429 178.991 80.4826 194.602 79.0591C210.562 77.6047 227.837 72.0403 237.33 58.2153C245.427 46.4265 242.707 33.7734 234.035 23.2677C231.612 20.333 229.845 16.6029 225.97 15.4594" stroke="#575757" stroke-width="7" stroke-miterlimit="10"/>
<path d="M225.969 15.4596C228.163 21.5662 226.456 28.7098 221.387 32.0186C215.147 36.0941 209.57 35.5117 202.457 35.6295C198.529 35.6946 194.6 35.8003 190.673 35.9675C181.717 36.3526 172.76 37.0499 163.888 38.3352C148.052 40.6287 129.57 44.5645 119.278 58.0096C109.393 70.9285 107.376 89.1728 101.982 104.158C98.9079 112.69 95.2004 120.948 91.2859 129.123C88.6582 134.615 85.0355 140.529 83.985 146.611C83.8233 147.56 83.7863 148.363 83.8624 149.039" stroke="#575757" stroke-width="4" stroke-miterlimit="10"/>
<path d="M228.014 231.069C230.565 232.437 231.785 234.606 231.411 237.49C230.523 244.316 227.173 249.606 221.188 253.031C218.9 254.34 216.425 255.52 213.885 256.135C209.679 257.153 206.959 255.152 206.654 250.869C206.417 247.549 206.564 244.169 206.905 240.853C207.385 236.26 210.03 233.054 216.021 230.21C218.776 229.046 223.39 228.587 228.014 231.069Z" fill="#B0FF27"/>
<path d="M139.31 216.207C144.296 222.328 147.387 229.696 150.128 237.028C150.658 238.444 150.244 239.436 148.909 240.063C147.36 240.787 145.851 241.674 144.227 242.151C141.305 243.002 140.213 242.38 139.246 239.527C138.217 236.472 137.154 233.417 136.377 230.291C135.47 226.631 134.857 222.9 134.12 219.2C134.08 218.999 134.061 218.79 134.038 218.587C133.884 217.082 133.951 215.569 135.526 214.866C137.09 214.165 138.377 215.058 139.31 216.207Z" fill="#767676"/>
<path d="M179.09 264.284C182.687 267.059 182.778 270.576 179.358 273.619C178.397 274.473 177.218 275.08 176.14 275.796C169.94 278.637 163.477 279.302 156.797 278.625C154.029 278.345 152.265 276.773 151.197 274.376C150.891 273.695 150.841 272.7 151.094 272C153.176 266.274 156.093 261.341 162.599 259.614C166.464 258.584 170.12 259.073 173.609 260.677C175.576 261.581 177.359 262.951 179.09 264.284Z" fill="#B0FF27"/>
<path d="M237.888 219.495C241.411 222.129 244.524 225.386 245.568 229.786C246.954 235.638 246.108 241.733 245.733 247.64C245.437 252.267 245.094 257.012 243.706 261.46C242.411 265.609 239.965 269.305 237.155 272.584C230.793 280.012 222.681 285.898 214.135 290.556C201.221 297.595 188.054 305.466 172.81 305.007C168.983 304.894 164.931 304.378 161.23 303.363C159.058 302.769 156.942 302.077 154.906 301.205C153.02 300.398 151.2 299.436 149.473 298.248C145.967 295.843 142.831 292.948 139.495 290.319C136.73 288.134 136.091 285.099 136.046 281.698C135.957 275.182 135.701 268.665 135.497 262.152C135.465 261.121 135.328 260.097 135.251 259.067C134.912 254.639 132.849 250.831 131.074 246.872C125.77 235.032 125.311 222.545 126.79 209.9C126.972 208.332 127.704 206.714 128.569 205.364C130.014 203.096 131.972 202.551 134.495 203.423C140.074 205.351 145.334 207.934 149.547 212.138C154.597 217.182 159.457 222.419 164.337 227.635C165.271 228.633 165.942 228.996 167.29 228.248C171.617 225.848 175.988 223.511 180.44 221.359C182.082 220.568 182.409 219.779 181.712 218.187C177.99 209.701 176.702 200.622 175.644 191.543C175.094 186.856 175.007 182.072 176.43 177.424C177.702 173.269 180.376 172.035 184.528 173.372C187.976 174.481 190.556 176.792 193.399 178.815C201.447 184.536 208.085 191.594 213.833 199.563C215.395 201.73 216.773 204.226 218.83 205.8C225.036 210.554 231.62 214.811 237.888 219.495ZM231.411 237.49C231.785 234.606 230.565 232.438 228.014 231.07C223.39 228.587 218.775 229.046 216.02 230.21C210.03 233.055 207.384 236.26 206.905 240.854C206.564 244.17 206.417 247.55 206.654 250.87C206.96 255.153 209.678 257.154 213.884 256.135C216.424 255.521 218.9 254.341 221.188 253.032C227.174 249.606 230.523 244.316 231.411 237.49ZM207.86 208.796C208.3 208.345 208.555 207.093 208.251 206.645C205.226 202.169 202.392 197.501 198.837 193.475C196.549 190.884 192.583 187.377 189.085 186.746C186.648 186.305 186.172 187.823 186.441 189.773C187.097 194.484 189.466 199.561 191.523 203.806C193.263 207.394 195.616 210.595 197.76 213.943C199.033 215.932 199.829 216.124 201.563 214.69C203.774 212.86 205.855 210.857 207.86 208.796ZM179.358 273.619C182.778 270.576 182.687 267.059 179.09 264.283C177.36 262.951 175.576 261.582 173.609 260.677C170.121 259.073 166.464 258.585 162.599 259.615C156.094 261.341 153.176 266.274 151.094 272C150.841 272.701 150.892 273.695 151.197 274.376C152.265 276.774 154.03 278.345 156.798 278.625C163.477 279.302 169.94 278.637 176.14 275.796C177.218 275.08 178.398 274.474 179.358 273.619ZM150.128 237.028C147.387 229.696 144.296 222.328 139.31 216.207C138.377 215.058 137.09 214.165 135.526 214.866C133.952 215.569 133.884 217.082 134.038 218.587C134.061 218.79 134.08 218.999 134.12 219.2C134.857 222.9 135.47 226.631 136.377 230.291C137.154 233.417 138.217 236.473 139.246 239.527C140.213 242.38 141.305 243.002 144.227 242.151C145.851 241.674 147.36 240.787 148.909 240.063C150.244 239.436 150.658 238.444 150.128 237.028Z" fill="black"/>
<path d="M208.251 206.645C208.555 207.093 208.299 208.345 207.86 208.796C205.855 210.857 203.774 212.86 201.562 214.69C199.829 216.124 199.032 215.932 197.759 213.943C195.616 210.595 193.262 207.394 191.522 203.806C189.466 199.561 187.097 194.484 186.441 189.774C186.171 187.823 186.647 186.305 189.085 186.746C192.582 187.377 196.549 190.884 198.837 193.475C202.392 197.501 205.226 202.169 208.251 206.645Z" fill="#767676"/>
<path d="M161.229 303.363C164.931 304.378 168.983 304.894 172.81 305.007C188.053 305.465 201.22 297.595 214.135 290.556C222.681 285.898 230.793 280.012 237.155 272.584C239.965 269.305 242.411 265.609 243.706 261.46C245.093 257.012 245.437 252.266 245.733 247.64C246.108 241.733 246.954 235.638 245.568 229.786C244.524 225.386 241.411 222.129 237.888 219.495C231.619 214.811 225.035 210.554 218.829 205.799C216.773 204.225 215.394 201.73 213.832 199.563C208.084 191.594 201.446 184.536 193.398 178.815C190.555 176.792 187.976 174.48 184.527 173.372C180.375 172.034 177.702 173.269 176.429 177.424C175.006 182.071 175.094 186.856 175.643 191.543C176.701 200.622 177.989 209.701 181.712 218.187C182.409 219.779 182.081 220.568 180.439 221.359C175.987 223.511 171.616 225.848 167.289 228.248C165.941 228.995 165.27 228.633 164.336 227.635C159.457 222.419 154.596 217.182 149.546 212.138C145.334 207.934 140.073 205.351 134.494 203.423C131.972 202.551 130.013 203.096 128.568 205.364C127.704 206.714 126.971 208.332 126.789 209.899C125.31 222.544 125.77 235.032 131.073 246.872C132.849 250.83 134.911 254.639 135.25 259.067C135.327 260.097 135.465 261.121 135.496 262.152C135.701 268.665 135.956 275.182 136.045 281.698C136.09 285.099 136.729 288.134 139.494 290.318C142.831 292.947 145.966 295.843 149.472 298.248C151.199 299.436 153.019 300.398 154.905 301.205C156.942 302.077 159.058 302.769 161.229 303.363Z" stroke="#575757" stroke-width="6" stroke-miterlimit="10"/>
<path d="M175.061 263.571C176.902 267.382 175.592 271.73 172.085 273.461C168.615 275.172 164.139 273.37 162.298 269.518C160.497 265.755 161.91 261.335 165.441 259.683C168.927 258.048 173.232 259.79 175.061 263.571Z" fill="black"/>
<path d="M221.576 236.72C223.416 240.53 222.106 244.879 218.599 246.61C215.129 248.321 210.653 246.519 208.813 242.666C207.012 238.904 208.425 234.483 211.956 232.832C215.441 231.196 219.746 232.939 221.576 236.72Z" fill="black"/>
<path d="M195.656 265.632L202.119 262.266L197.612 277.423" stroke="#767676" stroke-width="3" stroke-miterlimit="10"/>
<path d="M195.413 265.759L210.415 270.755" stroke="#767676" stroke-width="3" stroke-miterlimit="10"/>
</svg>
