<svg width="645" height="579" viewBox="0 0 645 579" fill="none" xmlns="http://www.w3.org/2000/svg">
<g opacity="0.5">
<path d="M588.804 504.166C603.601 506.267 618.302 503.885 633 504.882C623.418 508.59 613.529 511.643 603.734 514.653L603.718 514.579C588.739 515.17 573.876 516.122 558.946 513.999C532.339 510.222 508.056 499.61 483.631 487.62C471.062 481.45 457.706 475.605 444.034 473.785C434.885 472.562 426.936 474.397 418.153 475.974C413.626 476.79 409.064 477.366 404.478 477.503C388.687 477.965 372.929 474.062 360.272 462.777C345.597 449.695 334.45 432.891 331.931 411.286C329.386 389.467 334.754 367.734 332.516 345.822C328.765 309.112 311.697 269.299 280.126 254.769C270.366 250.279 260.432 245.815 252.063 238.356C232.172 220.625 226.186 190.313 224.01 163.081C223.03 150.819 222.357 138.261 223.014 125.954C224.11 105.46 226.603 86.817 218.338 67.6494C211.511 51.8235 199.242 37.4339 185.693 29.015C178.882 24.7871 171.17 21.4528 163.648 19.3038C152.886 16.2243 141.907 14.0753 130.831 13.2186C110.31 11.6383 94.1214 11.8635 85.9043 12.8088L85.8914 12.7608C88.4655 11.9816 91.0266 11.1472 93.5943 10.3348C102.591 7.48053 111.729 5.03241 121.081 4.41946C124.076 4.22375 127.074 4.01328 130.068 3.81758C140.248 3.14924 150.541 2.60276 160.689 3.38557C171.765 4.23853 182.743 6.39124 193.505 9.46707C201.027 11.6198 208.743 14.9504 215.55 19.182C229.1 27.6008 241.369 41.9904 248.195 57.8163C256.461 76.9803 253.968 95.6273 252.872 116.117C252.215 128.428 252.888 140.982 253.867 153.248C256.044 180.48 262.033 210.788 281.921 228.519C290.29 235.982 300.224 240.446 309.983 244.936C341.558 259.466 358.623 299.275 362.374 335.989C364.612 357.9 359.244 379.634 361.789 401.449C364.308 423.057 375.455 439.858 390.13 452.944C402.787 464.229 418.545 468.132 434.336 467.666C438.921 467.533 443.484 466.954 448.011 466.141C456.794 464.564 464.743 462.729 473.895 463.948C487.564 465.772 500.923 471.614 513.489 477.784C537.913 489.776 562.196 500.389 588.804 504.166Z" fill="#D97595"/>
<path d="M603.718 514.579L603.734 514.653C602.415 515.055 601.099 515.458 599.783 515.864C592.61 518.072 585.263 519.855 578.456 523.349C577.689 523.744 576.942 524.165 576.212 524.611L575.892 523.932C560.913 524.519 546.05 525.472 531.12 523.352C504.512 519.572 480.23 508.959 455.805 496.97C443.239 490.8 429.883 484.955 416.211 483.134C407.059 481.915 399.11 483.747 390.327 485.324C385.803 486.14 381.237 486.716 376.655 486.853C360.864 487.318 345.103 483.415 332.446 472.127C317.774 459.045 306.624 442.24 304.105 420.635C301.56 398.82 306.927 377.083 304.69 355.171C300.939 318.461 283.874 278.652 252.299 264.119C242.543 259.629 232.605 255.164 224.24 247.706C204.349 229.974 198.36 199.663 196.183 172.431C195.207 160.168 194.531 147.614 195.187 135.303C196.284 114.813 198.78 96.1664 190.511 76.9988C183.685 61.1765 171.416 46.7832 157.866 38.3681C151.059 34.1365 143.346 30.8022 135.821 28.6532C125.059 25.5737 114.081 23.4246 103.008 22.568C88.8472 21.4787 74.7641 22.5643 60.6744 24.1853L60.6292 24.1114C64.0958 21.3901 67.7597 19.0306 71.7437 17.3247C76.2257 15.4046 80.9147 14.2673 85.5294 12.8715C85.649 12.8346 85.7719 12.7977 85.8915 12.7608L85.9045 12.8088C94.1215 11.8635 110.31 11.6383 130.832 13.2186C141.907 14.0753 152.886 16.2243 163.648 19.3038C171.17 21.4529 178.882 24.7872 185.693 29.015C199.242 37.4339 211.511 51.8235 218.338 67.6494C226.604 86.8171 224.11 105.46 223.014 125.954C222.358 138.261 223.03 150.819 224.01 163.081C226.186 190.313 232.172 220.625 252.063 238.356C260.432 245.815 270.366 250.279 280.126 254.769C311.697 269.299 328.765 309.112 332.516 345.822C334.754 367.734 329.386 389.467 331.931 411.286C334.45 432.891 345.597 449.696 360.272 462.778C372.929 474.062 388.687 477.965 404.478 477.503C409.064 477.367 413.626 476.791 418.154 475.974C426.937 474.397 434.885 472.563 444.034 473.785C457.706 475.605 471.062 481.45 483.632 487.621C508.056 499.61 532.339 510.222 558.946 513.999C573.877 516.122 588.739 515.17 603.718 514.579Z" fill="#D86B68"/>
<path d="M575.891 523.932L576.211 524.611C569.948 528.414 564.945 533.961 559.774 539.547C559.35 540.005 558.924 540.459 558.493 540.914C543.676 541.504 528.972 542.413 514.207 540.315C487.596 536.538 463.317 525.926 438.888 513.933C426.322 507.762 412.966 501.921 399.294 500.097C390.146 498.878 382.194 500.714 373.414 502.29C368.887 503.102 364.321 503.682 359.738 503.815C343.948 504.28 328.189 500.377 315.533 489.093C300.858 476.007 289.711 459.206 287.188 437.598C284.647 415.783 290.015 394.049 287.777 372.138C284.026 335.424 266.958 295.615 235.383 281.085C225.627 276.595 215.692 272.131 207.323 264.668C187.432 246.937 181.443 216.629 179.27 189.397C178.29 177.131 177.614 164.576 178.274 152.266C179.37 131.776 181.863 113.129 173.598 93.9652C166.771 78.1393 154.502 63.7497 140.953 55.3308C134.142 51.0993 126.43 47.7686 118.908 45.6159C108.146 42.5401 97.1672 40.3874 86.0915 39.5344C71.9339 38.4415 57.8508 39.5307 43.7579 41.148L43.2664 40.4982C43.7644 40.0108 44.2624 39.5197 44.7571 39.0249C49.8795 33.9182 54.9921 28.5345 60.6286 24.111L60.6739 24.1848C74.7635 22.5638 88.8466 21.4782 103.007 22.5675C114.08 23.4242 125.059 25.5732 135.821 28.6527C143.346 30.8017 151.058 34.136 157.865 38.3676C171.415 46.7828 183.684 61.176 190.511 76.9983C198.779 96.1659 196.283 114.813 195.187 135.302C194.53 147.613 195.206 160.168 196.183 172.43C198.359 199.662 204.348 229.974 224.239 247.705C232.605 255.164 242.542 259.628 252.299 264.118C283.873 278.652 300.938 318.46 304.689 355.171C306.927 377.082 301.559 398.82 304.104 420.635C306.623 442.24 317.773 459.044 332.445 472.126C345.102 483.414 360.863 487.317 376.654 486.852C381.236 486.715 385.803 486.139 390.327 485.323C399.11 483.746 407.058 481.915 416.21 483.133C429.882 484.954 443.238 490.799 455.804 496.969C480.229 508.959 504.511 519.571 531.119 523.352C546.05 525.472 560.912 524.519 575.891 523.932Z" fill="#EEDDA1"/>
<path d="M558.493 540.914C554.771 544.846 550.823 548.579 546.451 551.566C543.586 553.52 540.617 555.118 537.868 557.201L537.749 556.998C522.766 557.589 507.904 558.538 492.974 556.419C466.366 552.641 442.083 542.029 417.659 530.036C405.092 523.866 391.737 518.024 378.064 516.204C368.916 514.981 360.964 516.817 352.184 518.393C347.657 519.206 343.091 519.786 338.509 519.922C322.718 520.384 306.957 516.481 294.303 505.197C279.628 492.114 268.478 475.31 265.959 453.701C263.414 431.886 268.782 410.153 266.544 388.241C262.796 351.531 245.728 311.719 214.153 297.189C204.397 292.699 194.463 288.234 186.094 280.776C166.203 263.044 160.214 232.733 158.041 205.501C157.061 193.238 156.385 180.68 157.045 168.373C158.138 147.88 160.634 129.236 152.365 110.069C145.542 94.2429 133.27 79.8533 119.723 71.4344C112.913 67.2029 105.2 63.8722 97.6786 61.7195C86.9133 58.6437 75.9379 56.491 64.8621 55.638C50.9794 54.5672 37.1711 55.5937 23.3596 57.1593C23.7994 56.8085 24.2424 56.4615 24.6887 56.1144C28.9767 52.7837 33.3456 49.5713 37.4557 45.9564C39.4413 44.2061 41.3654 42.371 43.2668 40.4989L43.7584 41.1488C57.8512 39.5314 71.9344 38.4422 86.092 39.5351C97.1677 40.3881 108.146 42.5408 118.908 45.6166C126.43 47.7694 134.143 51.1 140.953 55.3316C154.503 63.7504 166.772 78.14 173.598 93.9659C181.864 113.13 179.371 131.777 178.274 152.266C177.615 164.577 178.291 177.132 179.27 189.398C181.444 216.63 187.433 246.938 207.324 264.669C215.693 272.132 225.627 276.596 235.384 281.086C266.958 295.616 284.026 335.425 287.777 372.139C290.015 394.05 284.647 415.784 287.189 437.599C289.712 459.207 300.858 476.008 315.533 489.094C328.19 500.378 343.948 504.281 359.739 503.816C364.321 503.683 368.887 503.103 373.415 502.291C382.194 500.714 390.146 498.879 399.294 500.098C412.967 501.921 426.322 507.763 438.889 513.933C463.317 525.927 487.596 536.539 514.207 540.316C528.972 542.413 543.676 541.504 558.493 540.914Z" fill="#B9D17D"/>
<path d="M537.749 556.998L537.868 557.201C537.028 557.837 536.21 558.516 535.42 559.266C529.545 564.844 524.591 572.145 517.221 575.269C502.239 575.859 487.376 576.808 472.449 574.689C445.838 570.908 421.559 560.296 397.131 548.306C384.564 542.136 371.209 536.295 357.536 534.471C348.388 533.252 340.436 535.083 331.657 536.664C327.129 537.476 322.563 538.056 317.981 538.189C302.19 538.654 286.432 534.751 273.775 523.467C259.1 510.381 247.95 493.576 245.431 471.972C242.886 450.157 248.257 428.419 246.016 406.512C242.269 369.797 225.201 329.989 193.626 315.459C183.869 310.965 173.935 306.504 165.566 299.042C145.675 281.311 139.686 250.999 137.513 223.767C136.533 211.504 135.857 198.95 136.517 186.639C137.61 166.15 140.107 147.503 131.838 128.339C125.014 112.513 112.745 98.1196 99.1958 89.7045C92.3855 85.4729 84.6729 82.1386 77.1511 79.9896C66.389 76.9137 55.4103 74.761 44.3346 73.9081C30.1738 72.8151 16.0906 73.9044 2.00098 75.5217C9.12502 69.3922 16.0324 62.9673 23.3602 57.159C37.1717 55.5934 50.98 54.5669 64.8627 55.6377C75.9384 56.4907 86.9139 58.6434 97.6792 61.7192C105.201 63.8719 112.914 67.2025 119.724 71.4341C133.27 79.853 145.543 94.2425 152.366 110.068C160.635 129.236 158.138 147.879 157.045 168.373C156.385 180.68 157.061 193.238 158.041 205.501C160.214 232.733 166.203 263.044 186.094 280.775C194.463 288.234 204.398 292.698 214.154 297.188C245.729 311.718 262.797 351.53 266.545 388.241C268.782 410.152 263.414 431.886 265.959 453.701C268.478 475.31 279.629 492.114 294.303 505.196C306.957 516.481 322.718 520.383 338.509 519.922C343.091 519.786 347.657 519.206 352.185 518.393C360.965 516.816 368.916 514.981 378.065 516.203C391.737 518.024 405.093 523.865 417.659 530.036C442.084 542.028 466.366 552.641 492.974 556.418C507.904 558.538 522.767 557.589 537.749 556.998Z" fill="#6288B1"/>
<path d="M603.718 514.579C588.739 515.17 573.877 516.122 558.946 513.999C532.339 510.222 508.056 499.61 483.632 487.621C471.062 481.45 457.706 475.605 444.034 473.785C434.885 472.562 426.937 474.397 418.154 475.974C413.626 476.79 409.064 477.366 404.478 477.503C388.687 477.965 372.929 474.062 360.272 462.778C345.597 449.695 334.45 432.891 331.931 411.286C329.386 389.467 334.754 367.734 332.516 345.822C328.765 309.112 311.697 269.299 280.126 254.769C270.366 250.279 260.432 245.815 252.063 238.356C232.172 220.625 226.186 190.313 224.01 163.081C223.03 150.819 222.358 138.261 223.014 125.954C224.11 105.46 226.604 86.8171 218.338 67.6494C211.511 51.8235 199.242 37.4339 185.693 29.015C178.883 24.7872 171.17 21.4528 163.648 19.3038C152.886 16.2243 141.907 14.0753 130.832 13.2186C110.31 11.6383 94.1216 11.8635 85.9045 12.8088" stroke="black" stroke-width="5" stroke-miterlimit="10"/>
<path d="M60.6738 24.1848C74.7635 22.5638 88.8466 21.4782 103.007 22.5675C114.08 23.4242 125.059 25.5732 135.821 28.6527C143.346 30.8017 151.058 34.136 157.865 38.3676C171.415 46.7828 183.684 61.176 190.511 76.9983C198.779 96.1659 196.283 114.813 195.187 135.302C194.53 147.613 195.206 160.168 196.183 172.43C198.359 199.662 204.348 229.974 224.239 247.705C232.605 255.164 242.542 259.628 252.299 264.118C283.873 278.652 300.938 318.46 304.689 355.171C306.927 377.082 301.559 398.82 304.104 420.635C306.623 442.24 317.773 459.044 332.445 472.126C345.102 483.414 360.863 487.317 376.654 486.852C381.236 486.715 385.803 486.139 390.327 485.323C399.11 483.746 407.058 481.915 416.21 483.133C429.882 484.954 443.238 490.799 455.804 496.969C480.229 508.959 504.511 519.571 531.119 523.352C546.05 525.471 560.912 524.519 575.891 523.932" stroke="black" stroke-width="5" stroke-miterlimit="10"/>
<path d="M43.7578 41.148C57.8507 39.5307 71.9338 38.4414 86.0914 39.5344C97.1671 40.3874 108.146 42.5401 118.908 45.6159C126.43 47.7686 134.142 51.0992 140.953 55.3308C154.502 63.7497 166.771 78.1392 173.598 93.9652C181.863 113.129 179.37 131.776 178.274 152.266C177.614 164.576 178.29 177.131 179.27 189.397C181.443 216.629 187.432 246.937 207.323 264.668C215.692 272.131 225.626 276.595 235.383 281.085C266.958 295.615 284.026 335.424 287.777 372.138C290.015 394.049 284.647 415.783 287.188 437.598C289.711 459.206 300.858 476.007 315.532 489.093C328.19 500.378 343.948 504.281 359.738 503.815C364.321 503.682 368.887 503.102 373.414 502.29C382.194 500.713 390.146 498.878 399.294 500.097C412.966 501.921 426.322 507.763 438.888 513.933C463.316 525.926 487.596 536.538 514.207 540.315C528.972 542.413 543.676 541.504 558.493 540.914C558.655 540.906 558.817 540.903 558.978 540.895" stroke="black" stroke-width="5" stroke-miterlimit="10"/>
<path d="M22.5281 57.2511C22.8062 57.2178 23.0811 57.1883 23.3592 57.1588C37.1707 55.5931 50.979 54.5666 64.8616 55.6375C75.9374 56.4904 86.9129 58.6431 97.6782 61.719C105.2 63.8717 112.913 67.2023 119.723 71.4339C133.269 79.8527 145.542 94.2423 152.365 110.068C160.634 129.236 158.137 147.879 157.044 168.372C156.384 180.679 157.06 193.238 158.04 205.5C160.213 232.732 166.202 263.044 186.093 280.775C194.462 288.234 204.397 292.698 214.153 297.188C245.728 311.718 262.796 351.53 266.544 388.241C268.781 410.152 263.413 431.886 265.958 453.701C268.477 475.309 279.627 492.114 294.302 505.196C306.956 516.481 322.717 520.383 338.508 519.922C343.09 519.785 347.656 519.206 352.184 518.393C360.963 516.816 368.915 514.981 378.064 516.203C391.736 518.024 405.092 523.865 417.658 530.035C442.083 542.028 466.365 552.641 492.973 556.418C507.903 558.537 522.766 557.589 537.748 556.997" stroke="black" stroke-width="5" stroke-miterlimit="10"/>
<path d="M2 75.5214C9.12404 69.3919 16.0314 62.967 23.3592 57.1587C23.799 56.8079 24.242 56.4608 24.6883 56.1138C28.9763 52.7831 33.3451 49.5707 37.4553 45.9557C39.4408 44.2055 41.365 42.3704 43.2664 40.4983C43.7644 40.0109 44.2624 39.5198 44.7572 39.025C49.8795 33.9183 54.9922 28.5347 60.6287 24.1111C64.0953 21.3897 67.7592 19.0302 71.7432 17.3243C76.2252 15.4042 80.9142 14.2669 85.5288 12.8712C85.6485 12.8342 85.7714 12.7973 85.891 12.7604C88.4651 11.9813 91.0263 11.1468 93.5939 10.3344C102.59 7.48016 111.729 5.03204 121.081 4.41909C124.076 4.22339 127.073 4.01292 130.068 3.81722C140.248 3.14888 150.541 2.60239 160.689 3.3852C171.764 4.23816 182.743 6.39087 193.505 9.46671C201.027 11.6194 208.743 14.95 215.55 19.1816C229.1 27.6005 241.369 41.99 248.195 57.816C256.461 76.9799 253.968 95.6269 252.871 116.116C252.215 128.427 252.888 140.982 253.867 153.248C256.043 180.48 262.032 210.788 281.92 228.519C290.29 235.982 300.224 240.446 309.983 244.936C341.558 259.466 358.623 299.274 362.374 335.989C364.612 357.9 359.243 379.634 361.788 401.449C364.308 423.057 375.454 439.858 390.129 452.944C402.787 464.228 418.545 468.131 434.335 467.666C438.921 467.533 443.484 466.953 448.011 466.141C456.794 464.564 464.743 462.729 473.894 463.948C487.564 465.772 500.922 471.613 513.489 477.784C537.913 489.777 562.196 500.389 588.804 504.166C603.601 506.267 618.302 503.885 633 504.882C623.418 508.59 613.529 511.643 603.734 514.653C602.415 515.055 601.099 515.458 599.782 515.864C592.61 518.072 585.263 519.855 578.455 523.349C577.689 523.744 576.942 524.165 576.212 524.611C569.948 528.415 564.945 533.961 559.774 539.547C559.35 540.005 558.924 540.459 558.494 540.914C554.771 544.846 550.823 548.579 546.451 551.566C543.586 553.52 540.617 555.119 537.868 557.201C537.028 557.837 536.21 558.516 535.42 559.266C529.545 564.845 524.591 572.145 517.221 575.269" stroke="black" stroke-width="5" stroke-miterlimit="10"/>
<path d="M2 75.5213C16.0896 73.904 30.1728 72.8147 44.3336 73.9077C55.4093 74.7607 66.388 76.9134 77.1501 79.9892C84.6719 82.1382 92.3845 85.4725 99.1948 89.7041C112.744 98.1193 125.013 112.513 131.837 128.338C140.106 147.502 137.609 166.149 136.516 186.639C135.856 198.95 136.532 211.504 137.512 223.767C139.685 250.999 145.674 281.31 165.565 299.042C173.934 306.504 183.868 310.965 193.625 315.458C225.2 329.988 242.268 369.797 246.015 406.511C248.256 428.419 242.885 450.156 245.43 471.971C247.949 493.576 259.099 510.38 273.774 523.467C286.431 534.751 302.189 538.654 317.98 538.188C322.562 538.056 327.128 537.475 331.656 536.663C340.435 535.083 348.387 533.252 357.535 534.47C371.208 536.294 384.563 542.136 397.13 548.306C421.558 560.296 445.837 570.908 472.448 574.689C487.375 576.808 502.238 575.859 517.22 575.268" stroke="black" stroke-width="5" stroke-miterlimit="10"/>
</g>
</svg>
