<svg width="788" height="821" viewBox="0 0 788 821" fill="none" xmlns="http://www.w3.org/2000/svg">
<g opacity="0.5">
<path d="M731.804 746.166C746.601 748.267 761.302 745.885 776 746.882C766.418 750.59 756.529 753.643 746.734 756.653L746.718 756.579C731.739 757.17 716.876 758.122 701.946 755.999C675.339 752.222 651.056 741.61 626.631 729.62C614.062 723.45 600.706 717.605 587.034 715.785C577.885 714.562 569.936 716.397 561.153 717.974C556.626 718.79 552.064 719.366 547.478 719.503C531.687 719.965 515.929 716.062 503.272 704.777C488.597 691.695 477.45 674.891 474.931 653.286C472.386 631.467 477.754 609.734 475.516 587.822C471.765 551.112 454.697 511.299 423.126 496.769C413.366 492.279 403.432 487.815 395.063 480.356C375.172 462.625 369.186 432.313 367.01 405.081C366.03 392.819 365.357 380.261 366.014 367.954C367.11 347.46 369.603 328.817 361.338 309.649C354.511 293.823 342.242 279.434 328.693 271.015C321.882 266.787 314.17 263.453 306.648 261.304C295.886 258.224 284.907 256.075 273.831 255.219C253.31 253.638 237.121 253.863 228.904 254.809L228.891 254.761C231.465 253.982 234.027 253.147 236.594 252.335C245.591 249.481 254.729 247.032 264.081 246.419C267.076 246.224 270.074 246.013 273.068 245.818C283.248 245.149 293.541 244.603 303.689 245.386C314.765 246.239 325.743 248.391 336.505 251.467C344.027 253.62 351.743 256.95 358.55 261.182C372.1 269.601 384.369 283.99 391.195 299.816C399.461 318.98 396.968 337.627 395.872 358.117C395.215 370.428 395.888 382.982 396.867 395.248C399.044 422.48 405.033 452.788 424.921 470.519C433.29 477.982 443.224 482.446 452.983 486.936C484.558 501.466 501.623 541.275 505.374 577.989C507.612 599.9 502.244 621.634 504.789 643.449C507.308 665.057 518.455 681.858 533.13 694.944C545.787 706.229 561.545 710.132 577.336 709.666C581.921 709.533 586.484 708.954 591.011 708.141C599.794 706.564 607.743 704.729 616.895 705.948C630.564 707.772 643.923 713.614 656.489 719.784C680.913 731.776 705.196 742.389 731.804 746.166Z" fill="#D97595"/>
<path d="M746.718 756.579L746.734 756.653C745.415 757.055 744.099 757.458 742.783 757.864C735.61 760.072 728.263 761.855 721.456 765.349C720.689 765.744 719.942 766.165 719.212 766.611L718.892 765.932C703.913 766.519 689.05 767.472 674.12 765.352C647.512 761.572 623.23 750.959 598.805 738.97C586.239 732.8 572.883 726.955 559.211 725.134C550.059 723.915 542.11 725.747 533.327 727.324C528.803 728.14 524.237 728.716 519.655 728.853C503.864 729.318 488.103 725.415 475.446 714.127C460.774 701.045 449.624 684.24 447.105 662.635C444.56 640.82 449.927 619.083 447.69 597.171C443.939 560.461 426.874 520.652 395.299 506.119C385.543 501.629 375.605 497.164 367.24 489.706C347.349 471.974 341.36 441.663 339.183 414.431C338.207 402.168 337.531 389.614 338.187 377.303C339.284 356.813 341.78 338.166 333.511 318.999C326.685 303.177 314.416 288.783 300.866 280.368C294.059 276.137 286.346 272.802 278.821 270.653C268.059 267.574 257.081 265.425 246.008 264.568C231.847 263.479 217.764 264.564 203.674 266.185L203.629 266.111C207.096 263.39 210.76 261.031 214.744 259.325C219.226 257.405 223.915 256.267 228.529 254.872C228.649 254.835 228.772 254.798 228.892 254.761L228.904 254.809C237.122 253.863 253.31 253.638 273.832 255.219C284.907 256.075 295.886 258.224 306.648 261.304C314.17 263.453 321.882 266.787 328.693 271.015C342.242 279.434 354.511 293.823 361.338 309.649C369.604 328.817 367.11 347.46 366.014 367.954C365.358 380.261 366.03 392.819 367.01 405.081C369.186 432.313 375.172 462.625 395.063 480.356C403.432 487.815 413.366 492.279 423.126 496.769C454.697 511.299 471.765 551.112 475.516 587.822C477.754 609.734 472.386 631.467 474.931 653.286C477.45 674.891 488.597 691.696 503.272 704.778C515.929 716.062 531.687 719.965 547.478 719.503C552.064 719.367 556.626 718.791 561.154 717.974C569.937 716.397 577.885 714.563 587.034 715.785C600.706 717.605 614.062 723.45 626.632 729.621C651.056 741.61 675.339 752.222 701.946 755.999C716.877 758.122 731.739 757.17 746.718 756.579Z" fill="#D86B68"/>
<path d="M718.891 765.932L719.211 766.611C712.948 770.414 707.945 775.961 702.774 781.547C702.35 782.005 701.924 782.459 701.493 782.914C686.676 783.504 671.972 784.413 657.207 782.315C630.596 778.538 606.317 767.926 581.888 755.933C569.322 749.762 555.966 743.921 542.294 742.097C533.146 740.878 525.194 742.714 516.414 744.29C511.887 745.102 507.321 745.682 502.738 745.815C486.948 746.28 471.189 742.377 458.533 731.093C443.858 718.007 432.711 701.206 430.188 679.598C427.647 657.783 433.015 636.049 430.777 614.138C427.026 577.424 409.958 537.615 378.383 523.085C368.627 518.595 358.692 514.131 350.323 506.668C330.432 488.937 324.443 458.629 322.27 431.397C321.29 419.131 320.614 406.576 321.274 394.266C322.37 373.776 324.863 355.129 316.598 335.965C309.771 320.139 297.502 305.75 283.953 297.331C277.142 293.099 269.43 289.769 261.908 287.616C251.146 284.54 240.167 282.387 229.091 281.534C214.934 280.441 200.851 281.531 186.758 283.148L186.266 282.498C186.764 282.011 187.262 281.52 187.757 281.025C192.879 275.918 197.992 270.535 203.629 266.111L203.674 266.185C217.763 264.564 231.847 263.478 246.007 264.568C257.08 265.424 268.059 267.573 278.821 270.653C286.346 272.802 294.058 276.136 300.865 280.368C314.415 288.783 326.684 303.176 333.511 318.998C341.779 338.166 339.283 356.813 338.187 377.302C337.53 389.613 338.206 402.168 339.183 414.43C341.359 441.662 347.348 471.974 367.239 489.705C375.605 497.164 385.542 501.628 395.299 506.118C426.873 520.652 443.938 560.46 447.689 597.171C449.927 619.082 444.559 640.82 447.104 662.635C449.623 684.24 460.773 701.044 475.445 714.126C488.102 725.414 503.863 729.317 519.654 728.852C524.236 728.715 528.803 728.139 533.327 727.323C542.11 725.746 550.058 723.915 559.21 725.133C572.882 726.954 586.238 732.799 598.804 738.969C623.229 750.959 647.511 761.571 674.119 765.352C689.05 767.472 703.912 766.519 718.891 765.932Z" fill="#EEDDA1"/>
<path d="M701.493 782.914C697.771 786.846 693.823 790.579 689.451 793.566C686.586 795.52 683.617 797.118 680.868 799.201L680.749 798.998C665.766 799.589 650.904 800.538 635.974 798.419C609.366 794.641 585.083 784.029 560.659 772.036C548.092 765.866 534.737 760.024 521.064 758.204C511.916 756.981 503.964 758.817 495.184 760.393C490.657 761.206 486.091 761.786 481.509 761.922C465.718 762.384 449.957 758.481 437.303 747.197C422.628 734.114 411.478 717.31 408.959 695.701C406.414 673.886 411.782 652.153 409.544 630.241C405.796 593.531 388.728 553.719 357.153 539.189C347.397 534.699 337.463 530.234 329.094 522.776C309.203 505.044 303.214 474.733 301.041 447.501C300.061 435.238 299.385 422.68 300.045 410.373C301.138 389.88 303.634 371.236 295.365 352.069C288.542 336.243 276.27 321.853 262.723 313.434C255.913 309.203 248.2 305.872 240.679 303.72C229.913 300.644 218.938 298.491 207.862 297.638C193.979 296.567 180.171 297.594 166.36 299.159C166.799 298.809 167.242 298.461 167.689 298.114C171.977 294.784 176.346 291.571 180.456 287.956C182.441 286.206 184.365 284.371 186.267 282.499L186.758 283.149C200.851 281.531 214.934 280.442 229.092 281.535C240.168 282.388 251.146 284.541 261.908 287.617C269.43 289.769 277.143 293.1 283.953 297.332C297.503 305.75 309.772 320.14 316.598 335.966C324.864 355.13 322.371 373.777 321.274 394.266C320.615 406.577 321.291 419.132 322.27 431.398C324.444 458.63 330.433 488.938 350.324 506.669C358.693 514.132 368.627 518.596 378.384 523.086C409.958 537.616 427.026 577.425 430.777 614.139C433.015 636.05 427.647 657.784 430.189 679.599C432.712 701.207 443.858 718.008 458.533 731.094C471.19 742.378 486.948 746.281 502.739 745.816C507.321 745.683 511.887 745.103 516.415 744.291C525.194 742.714 533.146 740.879 542.294 742.098C555.967 743.921 569.322 749.763 581.889 755.933C606.317 767.927 630.596 778.539 657.207 782.316C671.972 784.413 686.676 783.504 701.493 782.914Z" fill="#B9D17D"/>
<path d="M680.749 798.998L680.868 799.201C680.028 799.837 679.21 800.516 678.42 801.266C672.545 806.844 667.591 814.145 660.221 817.269C645.239 817.859 630.376 818.808 615.449 816.689C588.838 812.908 564.559 802.296 540.131 790.306C527.564 784.136 514.209 778.295 500.536 776.471C491.388 775.252 483.436 777.083 474.657 778.664C470.129 779.476 465.563 780.056 460.981 780.189C445.19 780.654 429.432 776.751 416.775 765.467C402.1 752.381 390.95 735.576 388.431 713.972C385.886 692.157 391.257 670.419 389.016 648.512C385.269 611.797 368.201 571.989 336.626 557.459C326.869 552.965 316.935 548.504 308.566 541.042C288.675 523.311 282.686 492.999 280.513 465.767C279.533 453.504 278.857 440.95 279.517 428.639C280.61 408.15 283.107 389.503 274.838 370.339C268.014 354.513 255.745 340.12 242.196 331.704C235.385 327.473 227.673 324.139 220.151 321.99C209.389 318.914 198.41 316.761 187.335 315.908C173.174 314.815 159.091 315.904 145.001 317.522C152.125 311.392 159.032 304.967 166.36 299.159C180.172 297.593 193.98 296.567 207.863 297.638C218.938 298.491 229.914 300.643 240.679 303.719C248.201 305.872 255.914 309.203 262.724 313.434C276.27 321.853 288.543 336.243 295.366 352.068C303.635 371.236 301.138 389.879 300.045 410.373C299.385 422.68 300.061 435.238 301.041 447.501C303.214 474.733 309.203 505.044 329.094 522.775C337.463 530.234 347.398 534.698 357.154 539.188C388.729 553.718 405.797 593.53 409.545 630.241C411.782 652.152 406.414 673.886 408.959 695.701C411.478 717.31 422.629 734.114 437.303 747.196C449.957 758.481 465.718 762.383 481.509 761.922C486.091 761.786 490.657 761.206 495.185 760.393C503.965 758.816 511.916 756.981 521.065 758.203C534.737 760.024 548.093 765.865 560.659 772.036C585.084 784.028 609.366 794.641 635.974 798.418C650.904 800.538 665.767 799.589 680.749 798.998Z" fill="#6288B1"/>
<path d="M746.718 756.579C731.739 757.17 716.877 758.122 701.946 755.999C675.339 752.222 651.056 741.61 626.632 729.621C614.062 723.45 600.706 717.605 587.034 715.785C577.885 714.562 569.937 716.397 561.154 717.974C556.626 718.79 552.064 719.366 547.478 719.503C531.687 719.965 515.929 716.062 503.272 704.778C488.597 691.695 477.45 674.891 474.931 653.286C472.386 631.467 477.754 609.734 475.516 587.822C471.765 551.112 454.697 511.299 423.126 496.769C413.366 492.279 403.432 487.815 395.063 480.356C375.172 462.625 369.186 432.313 367.01 405.081C366.03 392.819 365.358 380.261 366.014 367.954C367.11 347.46 369.604 328.817 361.338 309.649C354.511 293.823 342.242 279.434 328.693 271.015C321.883 266.787 314.17 263.453 306.648 261.304C295.886 258.224 284.907 256.075 273.832 255.219C253.31 253.638 237.122 253.863 228.905 254.809" stroke="black" stroke-width="5" stroke-miterlimit="10"/>
<path d="M203.674 266.185C217.763 264.564 231.847 263.478 246.007 264.568C257.08 265.424 268.059 267.573 278.821 270.653C286.346 272.802 294.058 276.136 300.865 280.368C314.415 288.783 326.684 303.176 333.511 318.998C341.779 338.166 339.283 356.813 338.187 377.302C337.53 389.613 338.206 402.168 339.183 414.43C341.359 441.662 347.348 471.974 367.239 489.705C375.605 497.164 385.542 501.628 395.299 506.118C426.873 520.652 443.938 560.46 447.689 597.171C449.927 619.082 444.559 640.82 447.104 662.635C449.623 684.24 460.773 701.044 475.445 714.126C488.102 725.414 503.863 729.317 519.654 728.852C524.236 728.715 528.803 728.139 533.327 727.323C542.11 725.746 550.058 723.915 559.21 725.133C572.882 726.954 586.238 732.799 598.804 738.969C623.229 750.959 647.511 761.571 674.119 765.352C689.05 767.471 703.912 766.519 718.891 765.932" stroke="black" stroke-width="5" stroke-miterlimit="10"/>
<path d="M186.758 283.148C200.851 281.531 214.934 280.441 229.091 281.534C240.167 282.387 251.146 284.54 261.908 287.616C269.43 289.769 277.142 293.099 283.953 297.331C297.502 305.75 309.771 320.139 316.598 335.965C324.863 355.129 322.37 373.776 321.274 394.266C320.614 406.576 321.29 419.131 322.27 431.397C324.443 458.629 330.432 488.937 350.323 506.668C358.692 514.131 368.626 518.595 378.383 523.085C409.958 537.615 427.026 577.424 430.777 614.138C433.015 636.049 427.647 657.783 430.188 679.598C432.711 701.206 443.858 718.007 458.532 731.093C471.19 742.378 486.948 746.281 502.738 745.815C507.321 745.682 511.887 745.102 516.414 744.29C525.194 742.713 533.146 740.878 542.294 742.097C555.966 743.921 569.322 749.763 581.888 755.933C606.316 767.926 630.596 778.538 657.207 782.315C671.972 784.413 686.676 783.504 701.493 782.914C701.655 782.906 701.817 782.903 701.978 782.895" stroke="black" stroke-width="5" stroke-miterlimit="10"/>
<path d="M165.528 299.251C165.806 299.218 166.081 299.188 166.359 299.159C180.171 297.593 193.979 296.567 207.862 297.637C218.937 298.49 229.913 300.643 240.678 303.719C248.2 305.872 255.913 309.202 262.723 313.434C276.269 321.853 288.542 336.242 295.365 352.068C303.634 371.236 301.137 389.879 300.044 410.372C299.384 422.679 300.06 435.238 301.04 447.5C303.213 474.732 309.202 505.044 329.093 522.775C337.462 530.234 347.397 534.698 357.153 539.188C388.728 553.718 405.796 593.53 409.544 630.241C411.781 652.152 406.413 673.886 408.958 695.701C411.477 717.309 422.627 734.114 437.302 747.196C449.956 758.481 465.717 762.383 481.508 761.922C486.09 761.785 490.656 761.206 495.184 760.393C503.963 758.816 511.915 756.981 521.064 758.203C534.736 760.024 548.092 765.865 560.658 772.035C585.083 784.028 609.365 794.641 635.973 798.418C650.903 800.537 665.766 799.589 680.748 798.997" stroke="black" stroke-width="5" stroke-miterlimit="10"/>
<path d="M145 317.521C152.124 311.392 159.031 304.967 166.359 299.159C166.799 298.808 167.242 298.461 167.688 298.114C171.976 294.783 176.345 291.571 180.455 287.956C182.441 286.206 184.365 284.37 186.266 282.498C186.764 282.011 187.262 281.52 187.757 281.025C192.88 275.918 197.992 270.535 203.629 266.111C207.095 263.39 210.759 261.03 214.743 259.324C219.225 257.404 223.914 256.267 228.529 254.871C228.648 254.834 228.771 254.797 228.891 254.76C231.465 253.981 234.026 253.147 236.594 252.334C245.59 249.48 254.729 247.032 264.081 246.419C267.076 246.223 270.073 246.013 273.068 245.817C283.248 245.149 293.541 244.602 303.689 245.385C314.764 246.238 325.743 248.391 336.505 251.467C344.027 253.619 351.743 256.95 358.55 261.182C372.1 269.6 384.369 283.99 391.195 299.816C399.461 318.98 396.968 337.627 395.871 358.116C395.215 370.427 395.888 382.982 396.867 395.248C399.043 422.48 405.032 452.788 424.92 470.519C433.29 477.982 443.224 482.446 452.983 486.936C484.558 501.466 501.623 541.274 505.374 577.989C507.612 599.9 502.243 621.634 504.788 643.449C507.308 665.057 518.454 681.858 533.129 694.944C545.787 706.228 561.545 710.131 577.335 709.666C581.921 709.533 586.484 708.953 591.011 708.141C599.794 706.564 607.743 704.729 616.894 705.948C630.564 707.772 643.922 713.613 656.489 719.784C680.913 731.777 705.196 742.389 731.804 746.166C746.601 748.267 761.302 745.885 776 746.882C766.418 750.59 756.529 753.643 746.734 756.653C745.415 757.055 744.099 757.458 742.782 757.864C735.61 760.072 728.263 761.855 721.455 765.349C720.689 765.744 719.942 766.165 719.212 766.611C712.948 770.415 707.945 775.961 702.774 781.547C702.35 782.005 701.924 782.459 701.494 782.914C697.771 786.846 693.823 790.579 689.451 793.566C686.586 795.52 683.617 797.119 680.868 799.201C680.028 799.837 679.21 800.516 678.42 801.266C672.545 806.845 667.591 814.145 660.221 817.269" stroke="black" stroke-width="5" stroke-miterlimit="10"/>
<path d="M145 317.521C159.09 315.904 173.173 314.815 187.334 315.908C198.409 316.761 209.388 318.913 220.15 321.989C227.672 324.138 235.384 327.473 242.195 331.704C255.744 340.119 268.013 354.513 274.837 370.338C283.106 389.502 280.609 408.149 279.516 428.639C278.856 440.95 279.532 453.504 280.512 465.767C282.685 492.999 288.674 523.31 308.565 541.042C316.934 548.504 326.868 552.965 336.625 557.458C368.2 571.988 385.268 611.797 389.015 648.511C391.256 670.419 385.885 692.156 388.43 713.971C390.949 735.576 402.099 752.38 416.774 765.467C429.431 776.751 445.189 780.654 460.98 780.188C465.562 780.056 470.128 779.475 474.656 778.663C483.435 777.083 491.387 775.252 500.535 776.47C514.208 778.294 527.563 784.136 540.13 790.306C564.558 802.296 588.837 812.908 615.448 816.689C630.375 818.808 645.238 817.859 660.22 817.268" stroke="black" stroke-width="5" stroke-miterlimit="10"/>
</g>
<path d="M289.958 248.952C297.58 251.764 307.141 260.977 299.927 269.093C296.35 273.114 289.606 275.018 284.562 276.288C276.052 278.434 267.433 280.074 258.755 281.384C244.544 283.53 228.745 284.408 217.642 294.722C213.081 298.958 216.017 303.446 221.09 305.879C224.896 307.702 228.916 308.446 232.015 311.525C234.832 314.323 236.549 318.191 237.028 322.105C237.561 326.45 235.356 332.839 232.823 336.302C228.323 342.45 222.046 342.886 215.398 340.223C209.013 337.664 203.148 333.993 196.758 331.447C178.468 324.162 159.056 319.978 140.722 312.724C131.57 309.1 122.114 305.473 114.096 299.649C101.878 290.777 89.66 276.136 79.8495 264.563C70.8575 253.954 64.9341 241.061 59.3024 228.454C43.9314 194.049 31.0953 155.177 37.8963 117.133C38.9887 111.018 40.0593 99.5803 46.0794 96.0682C46.5458 95.7989 47.0386 95.5875 47.5685 95.4472C61.9732 91.6033 74.0146 107.489 77.5273 119.501C78.6598 123.376 79.5347 127.588 78.8811 131.571C83.1028 129.96 89.5031 127.757 92.6557 124.397C94.5948 122.325 94.8309 107.584 94.8309 107.584C94.8763 104.618 92.503 100.821 91.0115 98.4708C88.2677 94.143 82.3303 90.6724 81.9739 85.1766C81.5903 79.2957 87.4758 76.7843 92.3258 75.9312C99.0731 74.7417 104.499 75.3482 110.221 79.2246C115.03 82.4807 118.783 87.0966 123.101 90.9395C128.873 96.0749 134.785 101.051 140.809 105.889C145.602 109.738 150.244 113.593 154.594 117.939C166.971 130.293 173.75 144.944 179.134 161.373C181.685 169.166 185.102 176.631 188.407 184.121C191.557 191.255 194.368 198.686 199.191 204.907C202.038 208.579 205.354 211.87 208.942 214.816C213.012 218.16 217.409 221.076 221.931 223.773C229.91 228.539 238.277 232.616 246.263 237.371C252.816 241.279 259.648 245.179 267.354 246.053C271.969 246.58 276.687 246.298 281.321 246.804C284.209 247.116 287.243 247.951 289.958 248.952Z" fill="black"/>
<path d="M46.0804 96.0683C40.0603 99.5804 38.9896 111.018 37.8973 117.133C31.0963 155.178 43.9324 194.049 59.3034 228.454C64.9351 241.062 70.8585 253.955 79.8505 264.564C89.6609 276.136 101.879 290.777 114.097 299.65C122.115 305.473 131.571 309.1 140.723 312.724C159.058 319.978 178.469 324.162 196.759 331.447C203.149 333.993 209.013 337.663 215.399 340.223C222.047 342.886 228.324 342.45 232.824 336.302C235.357 332.839 237.562 326.45 237.029 322.105C236.551 318.191 234.834 314.323 232.016 311.526C228.916 308.446 224.897 307.702 221.091 305.879C216.018 303.446 213.082 298.959 217.643 294.722C228.746 284.408 244.544 283.53 258.756 281.384C267.434 280.074 276.053 278.434 284.563 276.288C289.607 275.018 296.351 273.114 299.928 269.093C307.142 260.977 297.581 251.764 289.959 248.952C287.244 247.951 284.21 247.117 281.323 246.804C276.688 246.298 271.97 246.581 267.355 246.054C259.65 245.18 252.818 241.279 246.265 237.372C238.279 232.617 229.912 228.539 221.932 223.774C217.411 221.076 213.013 218.16 208.943 214.817C205.356 211.871 202.04 208.579 199.193 204.908C194.37 198.687 191.559 191.256 188.409 184.122C185.103 176.632 181.686 169.166 179.135 161.374C173.752 144.945 166.973 130.293 154.596 117.94C150.245 113.594 145.604 109.738 140.811 105.89C134.786 101.052 128.875 96.0755 123.103 90.9401C118.784 87.0972 115.031 82.4813 110.223 79.2252C104.5 75.3488 99.0744 74.7424 92.3273 75.9318C87.4774 76.7849 81.5918 79.2963 81.9755 85.1772C82.3318 90.6729 88.2693 94.1436 91.0131 98.4713C92.5046 100.822 94.8779 104.619 94.8325 107.585C94.8325 107.585 94.5964 122.326 92.6573 124.398C89.5047 127.758 83.1044 129.961 78.8827 131.572C79.5363 127.588 78.6614 123.376 77.5289 119.501C74.0161 107.489 61.9748 91.6039 47.57 95.4477C47.0396 95.5876 46.5468 95.7991 46.0804 96.0683Z" stroke="#575757" stroke-width="7" stroke-miterlimit="10"/>
<path d="M109.134 138.828C103.387 136.137 97.4138 139.96 91.979 142.698C90.0137 143.687 88.7945 145.109 88.0343 146.825C86.5741 147.474 85.165 148.229 83.8625 149.038C83.7861 148.363 83.8231 147.56 83.9851 146.611C85.0355 140.528 88.6583 134.615 91.286 129.123C95.2003 120.947 98.9075 112.69 101.982 104.157C107.376 89.1727 109.393 70.9281 119.278 58.0092C129.57 44.5642 148.052 40.628 163.887 38.3347C172.76 37.0494 181.716 36.3516 190.673 35.967C194.599 35.7998 198.529 35.6939 202.457 35.629C209.569 35.5116 215.146 36.0938 221.387 32.0181C226.456 28.7096 228.163 21.5657 225.969 15.4591C229.844 16.6027 231.611 20.3327 234.034 23.2674C242.706 33.7732 245.426 46.4264 237.329 58.215C227.836 72.0401 210.561 77.6044 194.601 79.0588C178.99 80.4823 161.802 76.9423 146.655 81.7195C133.91 85.741 130.403 97.7218 126.572 109.187C123.054 119.715 118.342 129.653 111.102 137.769C110.452 138.13 109.792 138.481 109.134 138.828Z" fill="black"/>
<path d="M111.103 137.769C118.343 129.654 123.054 119.715 126.573 109.187C130.404 97.7221 133.911 85.7413 146.656 81.7197C161.804 76.9429 178.991 80.4826 194.602 79.0591C210.562 77.6047 227.837 72.0403 237.33 58.2153C245.427 46.4265 242.707 33.7734 234.035 23.2677C231.612 20.333 229.845 16.6029 225.97 15.4594" stroke="#575757" stroke-width="7" stroke-miterlimit="10"/>
<path d="M225.969 15.4596C228.163 21.5662 226.456 28.7098 221.387 32.0186C215.147 36.0941 209.57 35.5117 202.457 35.6295C198.529 35.6946 194.6 35.8003 190.673 35.9675C181.717 36.3526 172.76 37.0499 163.888 38.3352C148.052 40.6287 129.57 44.5645 119.278 58.0096C109.393 70.9285 107.376 89.1728 101.982 104.158C98.9079 112.69 95.2004 120.948 91.2859 129.123C88.6582 134.615 85.0355 140.529 83.985 146.611C83.8233 147.56 83.7863 148.363 83.8624 149.039" stroke="#575757" stroke-width="4" stroke-miterlimit="10"/>
<path d="M228.014 231.069C230.565 232.437 231.785 234.606 231.411 237.49C230.523 244.316 227.173 249.606 221.188 253.031C218.9 254.34 216.425 255.52 213.885 256.135C209.679 257.153 206.959 255.152 206.654 250.869C206.417 247.549 206.564 244.169 206.905 240.853C207.385 236.26 210.03 233.054 216.021 230.21C218.776 229.046 223.39 228.587 228.014 231.069Z" fill="#B0FF27"/>
<path d="M139.31 216.207C144.296 222.328 147.387 229.696 150.128 237.028C150.658 238.444 150.244 239.436 148.909 240.063C147.36 240.787 145.851 241.674 144.227 242.151C141.305 243.002 140.213 242.38 139.246 239.527C138.217 236.472 137.154 233.417 136.377 230.291C135.47 226.631 134.857 222.9 134.12 219.2C134.08 218.999 134.061 218.79 134.038 218.587C133.884 217.082 133.951 215.569 135.526 214.866C137.09 214.165 138.377 215.058 139.31 216.207Z" fill="#767676"/>
<path d="M179.09 264.284C182.687 267.059 182.778 270.576 179.358 273.619C178.397 274.473 177.218 275.08 176.14 275.796C169.94 278.637 163.477 279.302 156.797 278.625C154.029 278.345 152.265 276.773 151.197 274.376C150.891 273.695 150.841 272.7 151.094 272C153.176 266.274 156.093 261.341 162.599 259.614C166.464 258.584 170.12 259.073 173.609 260.677C175.576 261.581 177.359 262.951 179.09 264.284Z" fill="#B0FF27"/>
<path d="M237.888 219.495C241.411 222.129 244.524 225.386 245.568 229.786C246.954 235.638 246.108 241.733 245.733 247.64C245.437 252.267 245.094 257.012 243.706 261.46C242.411 265.609 239.965 269.305 237.155 272.584C230.793 280.012 222.681 285.898 214.135 290.556C201.221 297.595 188.054 305.466 172.81 305.007C168.983 304.894 164.931 304.378 161.23 303.363C159.058 302.769 156.942 302.077 154.906 301.205C153.02 300.398 151.2 299.436 149.473 298.248C145.967 295.843 142.831 292.948 139.495 290.319C136.73 288.134 136.091 285.099 136.046 281.698C135.957 275.182 135.701 268.665 135.497 262.152C135.465 261.121 135.328 260.097 135.251 259.067C134.912 254.639 132.849 250.831 131.074 246.872C125.77 235.032 125.311 222.545 126.79 209.9C126.972 208.332 127.704 206.714 128.569 205.364C130.014 203.096 131.972 202.551 134.495 203.423C140.074 205.351 145.334 207.934 149.547 212.138C154.597 217.182 159.457 222.419 164.337 227.635C165.271 228.633 165.942 228.996 167.29 228.248C171.617 225.848 175.988 223.511 180.44 221.359C182.082 220.568 182.409 219.779 181.712 218.187C177.99 209.701 176.702 200.622 175.644 191.543C175.094 186.856 175.007 182.072 176.43 177.424C177.702 173.269 180.376 172.035 184.528 173.372C187.976 174.481 190.556 176.792 193.399 178.815C201.447 184.536 208.085 191.594 213.833 199.563C215.395 201.73 216.773 204.226 218.83 205.8C225.036 210.554 231.62 214.811 237.888 219.495ZM231.411 237.49C231.785 234.606 230.565 232.438 228.014 231.07C223.39 228.587 218.775 229.046 216.02 230.21C210.03 233.055 207.384 236.26 206.905 240.854C206.564 244.17 206.417 247.55 206.654 250.87C206.96 255.153 209.678 257.154 213.884 256.135C216.424 255.521 218.9 254.341 221.188 253.032C227.174 249.606 230.523 244.316 231.411 237.49ZM207.86 208.796C208.3 208.345 208.555 207.093 208.251 206.645C205.226 202.169 202.392 197.501 198.837 193.475C196.549 190.884 192.583 187.377 189.085 186.746C186.648 186.305 186.172 187.823 186.441 189.773C187.097 194.484 189.466 199.561 191.523 203.806C193.263 207.394 195.616 210.595 197.76 213.943C199.033 215.932 199.829 216.124 201.563 214.69C203.774 212.86 205.855 210.857 207.86 208.796ZM179.358 273.619C182.778 270.576 182.687 267.059 179.09 264.283C177.36 262.951 175.576 261.582 173.609 260.677C170.121 259.073 166.464 258.585 162.599 259.615C156.094 261.341 153.176 266.274 151.094 272C150.841 272.701 150.892 273.695 151.197 274.376C152.265 276.774 154.03 278.345 156.798 278.625C163.477 279.302 169.94 278.637 176.14 275.796C177.218 275.08 178.398 274.474 179.358 273.619ZM150.128 237.028C147.387 229.696 144.296 222.328 139.31 216.207C138.377 215.058 137.09 214.165 135.526 214.866C133.952 215.569 133.884 217.082 134.038 218.587C134.061 218.79 134.08 218.999 134.12 219.2C134.857 222.9 135.47 226.631 136.377 230.291C137.154 233.417 138.217 236.473 139.246 239.527C140.213 242.38 141.305 243.002 144.227 242.151C145.851 241.674 147.36 240.787 148.909 240.063C150.244 239.436 150.658 238.444 150.128 237.028Z" fill="black"/>
<path d="M208.251 206.645C208.555 207.093 208.299 208.345 207.86 208.796C205.855 210.857 203.774 212.86 201.562 214.69C199.829 216.124 199.032 215.932 197.759 213.943C195.616 210.595 193.262 207.394 191.522 203.806C189.466 199.561 187.097 194.484 186.441 189.774C186.171 187.823 186.647 186.305 189.085 186.746C192.582 187.377 196.549 190.884 198.837 193.475C202.392 197.501 205.226 202.169 208.251 206.645Z" fill="#767676"/>
<path d="M161.229 303.363C164.931 304.378 168.983 304.894 172.81 305.007C188.053 305.465 201.22 297.595 214.135 290.556C222.681 285.898 230.793 280.012 237.155 272.584C239.965 269.305 242.411 265.609 243.706 261.46C245.093 257.012 245.437 252.266 245.733 247.64C246.108 241.733 246.954 235.638 245.568 229.786C244.524 225.386 241.411 222.129 237.888 219.495C231.619 214.811 225.035 210.554 218.829 205.799C216.773 204.225 215.394 201.73 213.832 199.563C208.084 191.594 201.446 184.536 193.398 178.815C190.555 176.792 187.976 174.48 184.527 173.372C180.375 172.034 177.702 173.269 176.429 177.424C175.006 182.071 175.094 186.856 175.643 191.543C176.701 200.622 177.989 209.701 181.712 218.187C182.409 219.779 182.081 220.568 180.439 221.359C175.987 223.511 171.616 225.848 167.289 228.248C165.941 228.995 165.27 228.633 164.336 227.635C159.457 222.419 154.596 217.182 149.546 212.138C145.334 207.934 140.073 205.351 134.494 203.423C131.972 202.551 130.013 203.096 128.568 205.364C127.704 206.714 126.971 208.332 126.789 209.899C125.31 222.544 125.77 235.032 131.073 246.872C132.849 250.83 134.911 254.639 135.25 259.067C135.327 260.097 135.465 261.121 135.496 262.152C135.701 268.665 135.956 275.182 136.045 281.698C136.09 285.099 136.729 288.134 139.494 290.318C142.831 292.947 145.966 295.843 149.472 298.248C151.199 299.436 153.019 300.398 154.905 301.205C156.942 302.077 159.058 302.769 161.229 303.363Z" stroke="#575757" stroke-width="6" stroke-miterlimit="10"/>
<path d="M175.061 263.571C176.902 267.382 175.592 271.73 172.085 273.461C168.615 275.172 164.139 273.37 162.298 269.518C160.497 265.755 161.91 261.335 165.441 259.683C168.927 258.048 173.232 259.79 175.061 263.571Z" fill="black"/>
<path d="M221.576 236.72C223.416 240.53 222.106 244.879 218.599 246.61C215.129 248.321 210.653 246.519 208.813 242.666C207.012 238.904 208.425 234.483 211.956 232.832C215.441 231.196 219.746 232.939 221.576 236.72Z" fill="black"/>
<path d="M195.656 265.632L202.119 262.266L197.612 277.423" stroke="#767676" stroke-width="3" stroke-miterlimit="10"/>
<path d="M195.413 265.759L210.415 270.755" stroke="#767676" stroke-width="3" stroke-miterlimit="10"/>
</svg>
