<svg width="604" height="427" viewBox="0 0 604 427" fill="none" xmlns="http://www.w3.org/2000/svg">
<path d="M591.474 248.364C584.584 265.915 573.27 282.588 560.892 296.369C555.069 302.852 544.091 310.503 544.144 319.984C544.183 326.689 552.281 328.694 557.095 331.617C556.91 331.481 556.722 331.349 556.53 331.221C566.414 337.879 589.619 336.264 591.11 351.557C591.86 359.249 580.975 361.01 573.274 360.109C560.035 358.562 547.897 353.33 537.757 347.031C533.631 344.469 529.595 341.84 525.617 339.154C519.397 334.953 515.839 338.309 510.987 342.109C505.723 346.232 501.173 350.824 495.58 354.721C489.264 359.121 482.807 363.718 475.178 366.862C471.962 368.186 466.106 368.857 465.302 372.105C464.533 375.211 469.322 377.449 471.565 379.511C477.762 385.204 479.64 392.948 483.376 399.566C486.59 405.259 490.548 411.824 489.732 418.165C488.849 425.006 477.143 423.917 471.171 421.661C461.544 418.024 457.368 407.817 452.618 401.193C451.194 399.206 449.705 397.248 448.198 395.295C447.004 393.747 442.95 390.224 442.95 388.499C442.95 389.407 433.254 392.264 432.355 392.578C423.218 395.774 413.829 398.6 404.289 401.066C378.718 407.674 352.353 410.7 325.282 410.288C293.695 409.807 261.78 407.923 231.542 400.719C217.068 397.271 203.251 392.324 191.054 385.572C171.964 375.003 155.998 361.54 141.312 347.738C131.23 338.263 121.764 328.256 114.073 317.606C110.282 312.359 106.722 307.012 104.628 300.892C103.591 297.862 103.066 293.807 100.499 291.537C97.1134 288.54 91.871 289.274 87.7648 289.764C66.7178 292.283 46.0529 297.508 24.7247 297.568C17.9162 297.587 9.54168 296.94 4.83878 291.389C-1.1093 284.366 8.51916 276.319 17.3888 274.424C26.7711 272.42 36.4298 272.41 45.9594 271.549C51.8772 271.014 57.7923 270.381 63.698 269.743C76.1034 268.401 95.5756 267.016 97.0105 251.46C98.7831 232.251 101.24 212.899 99.2176 193.656C98.0774 182.812 90.5431 175.949 79.2113 175.838C70.5448 175.752 62.8033 169.283 60.1454 161.651C56.5942 151.449 65.3838 145.093 75.0445 143.019C76.4162 142.724 89.0308 141.261 89.0597 140.065C89.0597 140.065 95.3374 116.685 121.798 104.563C121.798 104.563 116.416 68.1944 125.386 68.1944C132.723 68.1944 140.387 72.3137 145.927 76.6422C154.374 83.2417 158.823 93.0663 168.319 98.6066C181.964 106.569 199.557 106.907 214.915 104.868C240.368 101.488 264.609 88.5541 290.202 83.4729C298.197 81.8851 306.254 80.6083 314.315 79.3698C319.974 78.4996 323.147 75.9869 324.676 70.4096C326.73 62.9217 326.513 55.1967 326.98 47.5425C327.36 41.2853 328.178 35.0117 328.297 28.746C328.431 21.7965 326.419 13.7078 330.618 7.49863C334.676 1.4966 344.729 1.32775 348.455 8.03636C351.562 13.6325 350.491 20.3645 350.226 26.4412C349.894 34.0532 349.696 41.6697 349.597 49.2882C349.526 54.7778 349.722 60.1376 348.814 65.5694C348.124 69.6959 346.865 74.9329 350.943 77.869C353.967 80.0446 358.055 79.7439 361.611 79.9342C395.711 81.7597 428.32 85.2459 459.089 100.563C477.836 109.897 497.295 121.51 510.398 137.783C517.322 146.384 537.758 185.222 549.827 161.118C553.212 154.358 553.654 145.905 553.902 138.524C554.429 122.836 552.542 106.203 547.137 91.3349C539.057 69.1101 513.126 39.5623 486.309 54.7142C481.106 57.6541 473.156 63.4081 475.743 70.4843C480.142 82.5092 499.925 72.2806 504.379 84.9484C508.608 96.9798 485.537 97.5584 479.161 95.3016C467.308 91.1063 456.903 84.1619 453.88 72.7567C452.035 65.7941 452.886 54.1135 455.426 47.0658C457.596 41.0482 462.309 35.3612 467.309 31.2717C473.316 26.3574 481.02 24.3981 488.749 23.9948C504.562 23.1694 521.679 27.2192 535.777 34.0746C549.794 40.8917 561.103 52.4724 569.606 64.9564C580.531 80.9927 590.325 98.3371 595.492 116.96C600.642 135.518 601.351 154.893 600.876 174.002C600.379 194.048 600.687 214.692 595.94 234.323C594.802 239.04 593.292 243.733 591.474 248.364Z" fill="#1A191B" stroke="#5A5A5A" stroke-width="6" stroke-miterlimit="10"/>
<path d="M67.5038 155.595C65.8079 160.427 70.8034 165.007 74.9271 166.566C77.4134 167.505 80.3827 167.94 83.0036 168.379C84.8704 168.695 87.8706 169.438 89.5026 168.101C90.731 167.09 90.7922 165.105 90.8447 163.675C90.9658 160.503 90.3018 156.621 88.3987 153.933C87.2282 152.286 84.974 151.973 83.0776 151.748C82.0006 151.621 80.222 151.479 78.2368 151.486C74.7051 151.499 68.8801 151.668 67.5038 155.595Z" fill="#767676"/>
<path d="M131.652 100.792C133.624 104.023 138.471 101.165 141.751 99.7763C142.34 99.5288 142.887 99.2457 143.367 98.9437C150.145 94.7094 150.798 93.8099 138.428 82.1975C136.787 80.6577 133.083 76.6163 130.466 78.0418C129.29 78.684 129.194 80.6473 129.1 81.7695C128.689 86.7116 128.997 96.4336 131.652 100.792Z" fill="#767676"/>
<path d="M134.319 140.486L129.372 147.342L148.076 144.552" stroke="#767676" stroke-width="3" stroke-miterlimit="10"/>
<path d="M134.29 138.989L138.063 156.893" stroke="#767676" stroke-width="3" stroke-miterlimit="10"/>
<path d="M113.456 163.132C118.316 155.602 120.328 148.338 117.949 146.908C115.571 145.477 109.704 150.422 104.844 157.952C99.9845 165.481 97.9728 172.745 100.351 174.176C102.729 175.606 108.596 170.662 113.456 163.132Z" fill="#FFD476"/>
<path d="M116.124 160.632C117.171 161.262 117.327 162.842 116.476 164.163C115.623 165.483 114.084 166.044 113.037 165.414L102.933 159.337C101.887 158.708 101.73 157.126 102.583 155.805C103.434 154.486 104.974 153.925 106.02 154.554L116.124 160.632Z" fill="#2D0827"/>
<path d="M147.296 121.611C154.207 115.763 158.312 109.373 156.465 107.339C154.618 105.305 147.519 108.398 140.608 114.246C133.697 120.094 129.592 126.484 131.439 128.518C133.286 130.552 140.386 127.46 147.296 121.611Z" fill="#FFD476"/>
<path d="M150.576 119.958C151.389 120.854 151.065 122.41 149.853 123.435C148.642 124.461 147.001 124.567 146.188 123.672L138.34 115.029C137.527 114.134 137.851 112.577 139.062 111.551C140.274 110.527 141.916 110.42 142.728 111.315L150.576 119.958Z" fill="#2D0827"/>
</svg>
